SplineFontDB: 1.0
FontName: Kinnari-Oblique
FullName: Kinnari Oblique
FamilyName: Kinnari
Weight: Medium
Copyright: KinnariItalic by Db Type : Fontographer 3.5
Version: 001.002: 2006-01-03
ItalicAngle: -12
UnderlinePosition: -70
UnderlineWidth: 25
Ascent: 800
Descent: 200
NeedsXUIDChange: 1
FSType: 0
OS2Version: 0
OS2_WeightWidthSlopeOnly: 0
OS2_UseTypoMetrics: 0
CreationTime: 1136287438
ModificationTime: 1136287438
PfmFamily: 17
TTFWeight: 500
TTFWidth: 5
LineGap: 138
VLineGap: 0
Panose: 0 0 0 0 0 0 0 0 0 0
OS2TypoAscent: 0
OS2TypoAOffset: 1
OS2TypoDescent: 0
OS2TypoDOffset: 1
OS2TypoLinegap: 0
OS2WinAscent: 0
OS2WinAOffset: 1
OS2WinDescent: 0
OS2WinDOffset: 1
HheadAscent: 0
HheadAOffset: 1
HheadDescent: 0
HheadDOffset: 1
OS2Vendor: 'PfEd'
ScriptLang: 5
 1 DFLT 1 dflt 
 1 thai 4 KUY  PAL  THA  dflt 
 1 latn 1 dflt 
 1 thai 1 dflt 
 1 thai 1 PAL  
ChainSub: class 0 1 'ccmp' 7 7 1 5
  Class: 414 uni0E01 uni0E02 uni0E03 uni0E04 uni0E05 uni0E06 uni0E07 uni0E08 uni0E09 uni0E0A uni0E0B uni0E0C uni0E0D uni0E0E uni0E0F uni0E10 uni0E11 uni0E12 uni0E13 uni0E14 uni0E15 uni0E16 uni0E17 uni0E18 uni0E19 uni0E1A uni0E1B uni0E1C uni0E1D uni0E1E uni0E1F uni0E20 uni0E21 uni0E22 uni0E23 uni0E24 uni0E25 uni0E26 uni0E27 uni0E28 uni0E29 uni0E2A uni0E2B uni0E2C uni0E2D uni0E2E uni0E10.descless uni0E0D.descless dottedcircle
  Class: 7 uni0E33
  Class: 39 uni0E48 uni0E49 uni0E4A uni0E4B uni0E4C
  Class: 23 uni0E38 uni0E39 uni0E3A
  Class: 39 uni0E31 uni0E34 uni0E35 uni0E36 uni0E37
  Class: 7 uni0E4D
  BClass: 414 uni0E01 uni0E02 uni0E03 uni0E04 uni0E05 uni0E06 uni0E07 uni0E08 uni0E09 uni0E0A uni0E0B uni0E0C uni0E0D uni0E0E uni0E0F uni0E10 uni0E11 uni0E12 uni0E13 uni0E14 uni0E15 uni0E16 uni0E17 uni0E18 uni0E19 uni0E1A uni0E1B uni0E1C uni0E1D uni0E1E uni0E1F uni0E20 uni0E21 uni0E22 uni0E23 uni0E24 uni0E25 uni0E26 uni0E27 uni0E28 uni0E29 uni0E2A uni0E2B uni0E2C uni0E2D uni0E2E uni0E10.descless uni0E0D.descless dottedcircle
  BClass: 7 uni0E33

StartChar: .notdef
Encoding: 0 0 0
Width: 384
Flags: W
HStem: 0 23<28 384> 568 23<126 482>
Fore
144 568 m 1
 28 23 l 1
 366 23 l 1
 482 568 l 1
 144 568 l 1
384 0 m 1
 0 0 l 1
 126 591 l 1
 510 591 l 1
 384 0 l 1
EndSplineSet
EndChar
StartChar: exclam
Encoding: 33 33 2
Width: 333
Flags: W
HStem: -14 115<163 195>
Fore
379 596 m 0
 379 596 l 0
 375 579 369 562 362 547 c 2
 221 177 l 1
 207 177 l 1
 263 547 l 1
 267 562 269 579 273 596 c 0
 283 628 306 676 349 676 c 0
 395 676 389 628 379 596 c 0
235 41 m 0
 227 9 194 -14 163 -14 c 0
 135 -14 112 11 120 41 c 0
 129 74 161 101 195 101 c 0
 227 101 244 74 235 41 c 0
EndSplineSet
EndChar
StartChar: quotedbl
Encoding: 34 34 3
Width: 407
Flags: W
HStem: 444 21G<221 241 402 422>
Fore
508 641 m 0
 422 444 l 1
 402 444 l 1
 422 641 l 1
 424 662 453 684 476 684 c 0
 501 684 518 662 508 641 c 0
329 641 m 1
 241 444 l 1
 221 444 l 1
 243 641 l 1
 243 662 272 684 296 684 c 0
 319 684 336 662 329 641 c 1
EndSplineSet
EndChar
StartChar: numbersign
Encoding: 35 35 4
Width: 499
Flags: W
HStem: 0 21G<78 137 272 330> 217 53<76 169 250 361 442 528> 217 242<154 361 330 528> 404 55<153 249 330 439 521 602>
Fore
602 404 m 1x90
 498 404 l 1
 442 270 l 1
 542 270 l 1
 528 217 l 1xd0
 419 217 l 1xa0
 330 0 l 1
 272 0 l 1
 361 217 l 1xc0
 227 217 l 1xa0
 137 0 l 1
 78 0 l 1
 169 217 l 1xc0
 63 217 l 1xa0
 77 270 l 1
 192 270 l 1
 249 404 l 1
 138 404 l 1xd0
 154 459 l 1
 272 459 l 1
 356 662 l 1
 415 662 l 1
 330 459 l 1
 462 459 l 1
 547 662 l 1
 604 662 l 1
 521 459 l 1xa0
 617 459 l 1
 602 404 l 1x90
439 404 m 1
 307 404 l 1
 250 270 l 1
 384 270 l 1
 439 404 l 1
EndSplineSet
EndChar
StartChar: dollar
Encoding: 36 36 5
Width: 499
Flags: W
HStem: -88 116<229 241> 0 28<228 238>
Fore
504 178 m 0x80
 504 178 l 0
 473 65 369 8 264 0 c 1x40
 241 -88 l 1
 207 -88 l 1x80
 230 0 l 1x40
 164 0 104 17 58 51 c 1
 94 181 l 1
 109 181 l 1
 98 88 140 29 238 28 c 1
 313 310 l 1
 249 353 161 407 189 508 c 0
 215 610 316 659 407 662 c 1
 425 727 l 1
 459 727 l 1
 441 662 l 1
 498 660 553 645 587 610 c 1
 558 499 l 1
 544 499 l 1
 551 576 511 631 435 636 c 1
 369 390 l 1
 444 343 536 296 504 178 c 0x80
339 407 m 0
 401 636 l 0
 367 636 287 596 270 533 c 0
 252 467 303 441 339 407 c 0
419 152 m 0
 438 223 390 263 343 293 c 1
 272 28 l 1
 343 37 399 81 419 152 c 0
EndSplineSet
EndChar
StartChar: percent
Encoding: 37 37 6
Width: 832
Flags: W
HStem: -14 31<573 591> 287 36<257 286> 324 32<758 769> 633 29<448 455>
Fore
814 676 m 1
 246 -14 l 1
 198 -14 l 1
 713 610 l 1
 647 585 571 578 535 593 c 1
 531 578 533 556 528 539 c 0
 492 404 344 287 257 287 c 0
 180 287 152 338 175 424 c 0
 204 531 341 662 453 662 c 0
 487 662 505 653 525 630 c 0
 545 610 567 607 599 607 c 0
 659 607 722 633 766 676 c 1
 814 676 l 1
837 247 m 0
 837 247 l 0
 796 91 659 -14 573 -14 c 0
 470 -14 461 48 481 123 c 0
 510 230 648 356 760 356 c 0
 828 356 851 300 837 247 c 0
505 553 m 0
 505 553 l 0
 510 570 510 584 510 599 c 1
 475 610 467 633 450 633 c 0
 413 633 280 533 243 396 c 0
 232 353 237 323 286 323 c 1
 386 332 481 456 505 553 c 0
809 241 m 0
 820 281 809 324 763 324 c 0
 710 324 657 269 624 224 c 0
 539 111 511 17 591 17 c 0
 685 17 788 161 809 241 c 0
EndSplineSet
EndChar
StartChar: ampersand
Encoding: 38 38 7
Width: 777
Flags: W
HStem: -14 54<217 273> 644 32<521 538>
Fore
776 100 m 1
 776 100 l 0
 710 26 664 -14 596 -14 c 0
 527 -14 482 31 450 78 c 1
 379 25 295 -14 217 -14 c 0
 104 -14 55 43 81 144 c 0
 112 258 253 339 338 376 c 1
 333 422 329 468 341 516 c 0
 364 604 447 676 536 676 c 0
 608 676 659 633 639 556 c 0
 614 467 519 415 439 384 c 1
 456 312 481 243 515 178 c 1
 561 220 641 303 654 358 c 0
 664 387 651 404 604 407 c 1
 608 425 l 1
 823 425 l 1
 819 407 l 1
 754 399 731 373 690 323 c 0
 636 257 556 174 533 147 c 1
 561 101 594 58 659 58 c 0
 699 58 734 80 763 111 c 1
 776 100 l 1
588 559 m 0
 588 559 l 0
 599 604 576 644 531 644 c 0
 472 644 441 599 429 548 c 0
 418 510 425 450 433 416 c 1
 495 442 570 493 588 559 c 0
432 104 m 1
 392 177 366 260 344 343 c 1
 266 301 203 257 180 172 c 0
 161 104 206 40 273 40 c 0
 315 40 381 68 432 104 c 1
EndSplineSet
EndChar
StartChar: quotesingle
Encoding: 39 39 8
Width: 179
Flags: W
HStem: 444 21G<198 218>
Fore
306 641 m 1
 218 444 l 1
 198 444 l 1
 220 641 l 1
 220 662 249 684 273 684 c 0
 296 684 313 662 306 641 c 1
EndSplineSet
EndChar
StartChar: parenleft
Encoding: 40 40 9
Width: 333
Flags: W
Fore
261 -161 m 1
 244 -177 l 1
 138 -91 61 48 118 260 c 0
 166 433 293 579 476 676 c 1
 481 659 l 1
 323 567 247 424 206 269 c 0
 161 104 143 -41 261 -161 c 1
EndSplineSet
EndChar
StartChar: parenright
Encoding: 41 41 10
Width: 333
Flags: W
Fore
346 232 m 0
 300 60 160 -91 -9 -177 c 1
 -14 -161 l 1
 146 -68 220 74 261 229 c 0
 306 396 326 556 206 659 c 1
 223 676 l 1
 257 656 421 513 346 232 c 0
EndSplineSet
EndChar
StartChar: asterisk
Encoding: 42 42 11
Width: 499
Flags: W
Fore
585 559 m 1
 587 519 538 498 518 502 c 1
 495 504 439 482 390 467 c 1
 432 442 473 427 516 419 c 0
 536 416 545 382 519 359 c 0
 482 329 449 356 447 378 c 0
 444 398 409 430 379 458 c 1
 361 401 359 353 359 310 c 0
 361 292 336 260 307 266 c 0
 270 273 286 323 304 341 c 0
 323 358 344 412 364 458 c 1
 304 427 263 395 224 361 c 0
 206 346 169 346 166 375 c 0
 164 413 214 436 235 432 c 0
 257 429 312 450 358 470 c 1
 318 499 275 513 233 522 c 0
 215 525 207 559 233 582 c 0
 267 613 301 585 303 564 c 0
 306 544 341 511 370 482 c 1
 387 547 389 593 386 636 c 0
 382 654 412 687 441 682 c 0
 478 673 464 624 444 607 c 0
 425 590 407 536 387 482 c 1
 445 505 488 539 527 573 c 1
 547 585 581 587 585 559 c 1
EndSplineSet
EndChar
StartChar: plus
Encoding: 43 43 12
Width: 563
Flags: W
HStem: 238 65<111 315 395 598>
Fore
598 238 m 1
 378 238 l 1
 318 17 l 1
 255 17 l 1
 315 238 l 1
 95 238 l 1
 112 303 l 1
 332 303 l 1
 390 521 l 1
 453 521 l 1
 395 303 l 1
 614 303 l 1
 598 238 l 1
EndSplineSet
EndChar
StartChar: comma
Encoding: 44 44 13
Width: 250
Flags: W
Fore
58 58 m 0
 69 100 101 126 144 126 c 0
 207 126 218 68 204 17 c 0
 187 -48 103 -118 35 -146 c 1
 28 -118 l 1
 74 -100 137 -41 146 -6 c 0
 147 0 151 5 144 5 c 0
 137 5 124 -5 104 -3 c 0
 72 -2 49 22 58 58 c 0
EndSplineSet
EndChar
StartChar: hyphen
Encoding: 45 45 14
Width: 333
Flags: W
HStem: 238 63<123 353>
Fore
353 238 m 1
 108 238 l 1
 124 301 l 1
 370 301 l 1
 353 238 l 1
EndSplineSet
EndChar
StartChar: period
Encoding: 46 46 15
Width: 250
Flags: W
Fore
69 60 m 0
 80 100 121 132 161 132 c 0
 201 132 224 100 214 60 c 0
 203 20 163 -12 123 -12 c 0
 83 -12 58 20 69 60 c 0
EndSplineSet
EndChar
StartChar: slash
Encoding: 47 47 16
Width: 278
Flags: W
Fore
485 682 m 1
 22 -108 l 1
 -41 -108 l 1
 422 682 l 1
 485 682 l 1
EndSplineSet
EndChar
StartChar: zero
Encoding: 48 48 17
Width: 537
Flags: W
HStem: -14 28<257 274> 650 26<430.207 450>
Fore
581 327 m 0
 581 327 l 0
 544 190 436 -14 258 -14 c 0
 117 -14 78 138 131 333 c 0
 169 476 275 676 447 676 c 0
 598 676 633 524 581 327 c 0
484 326 m 0
 531 504 541 650 445 650 c 0
 333 650 267 481 223 313 c 0
 183 164 164 14 272 14 c 0
 386 14 442 172 484 326 c 0
EndSplineSet
EndChar
StartChar: one
Encoding: 49 49 18
Width: 537
Flags: W
HStem: 0 21G<141 415>
Fore
415 0 m 1
 141 0 l 1
 144 14 l 1
 226 18 244 37 257 80 c 1
 376 528 l 1
 398 607 362 593 284 565 c 1
 287 579 l 1
 502 676 l 1
 343 80 l 1
 330 37 339 18 418 14 c 1
 415 0 l 1
EndSplineSet
EndChar
StartChar: two
Encoding: 50 50 19
Width: 537
Flags: W
HStem: 0 77<170 442> 604 72<379 450>
Fore
535 137 m 1
 442 0 l 1
 54 0 l 1
 57 14 l 1
 273 192 l 2
 358 261 456 358 484 459 c 0
 507 547 467 604 379 604 c 0
 301 604 244 539 203 473 c 1
 183 479 l 1
 232 593 329 676 450 676 c 0
 548 676 607 599 581 501 c 0
 556 407 492 339 375 243 c 2
 170 77 l 1
 384 77 l 2
 458 77 467 80 524 143 c 1
 535 137 l 1
EndSplineSet
EndChar
StartChar: three
Encoding: 51 51 20
Width: 537
Flags: W
HStem: -14 91<124 180> 616 60<396 445>
Fore
510 214 m 0
 470 63 316 -14 180 -14 c 0
 141 -14 65 -11 80 43 c 0
 84 65 104 77 124 77 c 0
 174 77 194 22 253 22 c 0
 336 22 406 88 427 167 c 0
 458 280 412 330 266 330 c 1
 267 344 l 1
 349 367 452 413 478 510 c 0
 495 574 461 616 396 616 c 0
 330 616 275 579 220 511 c 1
 206 516 l 1
 264 616 350 676 445 676 c 0
 550 676 585 621 565 542 c 0
 547 476 493 433 435 402 c 1
 510 367 536 312 510 214 c 0
EndSplineSet
EndChar
StartChar: four
Encoding: 52 52 21
Width: 537
Flags: W
HStem: 0 21G<315 392> 167 63<135 359 453 538>
Fore
538 167 m 1
 436 167 l 1
 392 0 l 1
 315 0 l 1
 359 167 l 1
 78 167 l 1
 95 230 l 1
 527 676 l 1
 573 676 l 1
 453 230 l 1
 554 230 l 1
 538 167 l 1
376 230 m 1
 467 570 l 1
 135 230 l 1
 376 230 l 1
EndSplineSet
EndChar
StartChar: five
Encoding: 53 53 22
Width: 537
Flags: W
HStem: -14 98<123 177> 582 80<372 570>
Fore
644 680 m 1
 570 582 l 1
 361 582 l 1
 296 498 l 1
 447 472 562 427 510 227 c 0
 470 78 324 -14 177 -14 c 0
 137 -14 60 -11 66 40 c 0
 69 68 94 84 123 84 c 0
 186 84 192 22 246 22 c 0
 332 22 406 100 432 195 c 0
 473 352 333 404 210 412 c 0
 201 413 198 418 201 424 c 1
 373 662 l 1
 570 662 l 2
 601 662 608 662 636 687 c 1
 644 680 l 1
EndSplineSet
EndChar
StartChar: six
Encoding: 54 54 23
Width: 537
Flags: W
HStem: -14 28<283 304> 382 45<370 418>
Fore
547 214 m 0
 547 214 l 0
 515 94 410 -14 283 -14 c 0
 157 -14 83 91 132 273 c 0
 189 490 381 645 591 674 c 0
 608 676 625 682 651 682 c 1
 648 664 l 1
 614 656 584 653 545 636 c 0
 445 594 333 518 278 382 c 1
 324 410 370 427 418 427 c 0
 535 427 582 346 547 214 c 0
458 226 m 0
 470 307 459 382 370 382 c 0
 336 382 296 370 264 350 c 0
 261 347 258 344 257 343 c 0
 237 316 226 283 217 247 c 0
 181 114 206 14 304 14 c 0
 379 14 441 108 458 226 c 0
EndSplineSet
EndChar
StartChar: seven
Encoding: 55 55 24
Width: 537
Flags: W
HStem: 587 75<280 550>
Fore
645 647 m 1
 255 -14 l 1
 190 -14 l 1
 550 587 l 1
 344 587 l 2
 270 587 250 568 195 507 c 1
 181 515 l 1
 280 662 l 1
 648 662 l 1
 645 647 l 1
EndSplineSet
EndChar
StartChar: eight
Encoding: 56 56 25
Width: 537
Flags: W
HStem: -14 25<263 286> 650 26<436 455>
Fore
507 154 m 0
 507 154 l 0
 478 46 364 -14 263 -14 c 0
 164 -14 89 45 118 152 c 0
 140 237 223 287 295 332 c 1
 249 393 197 425 224 527 c 0
 243 596 332 676 455 676 c 0
 535 676 613 630 588 539 c 0
 565 452 488 407 410 372 c 1
 465 316 533 255 507 154 c 0
519 536 m 0
 519 536 l 0
 536 604 504 650 438 650 c 0
 379 650 321 611 304 550 c 0
 284 478 341 424 386 390 c 1
 447 419 501 472 519 536 c 0
422 126 m 0
 445 214 367 267 315 312 c 1
 312 309 307 307 303 303 c 1
 252 270 209 214 195 163 c 0
 174 78 197 11 284 11 c 0
 350 11 404 60 422 126 c 0
EndSplineSet
EndChar
StartChar: nine
Encoding: 57 57 26
Width: 537
Flags: W
HStem: 237 43<296 349> 292 21G<548 548> 650 26<425 449>
Fore
548 292 m 0
 548 292 l 0
 488 186 370 63 235 12 c 0
 172 -12 108 -23 77 -23 c 1
 78 -3 l 1
 143 8 243 35 333 124 c 0
 382 174 430 233 461 292 c 1
 399 257 346 237 296 237 c 0
 189 237 138 316 174 447 c 0
 195 530 287 676 449 676 c 0
 538 676 591 611 599 531 c 0
 605 459 593 373 548 292 c 0
496 413 m 0
 519 499 541 650 427 650 c 0
 339 650 292 545 273 476 c 0
 250 390 246 280 349 280 c 0
 381 280 444 303 472 330 c 1
 481 356 488 382 496 413 c 0
EndSplineSet
EndChar
StartChar: colon
Encoding: 58 58 27
Width: 278
Flags: W
HStem: -12 144<137 175> 324 144<227 266>
Fore
174 396 m 0
 174 396 l 0
 184 436 226 468 266 468 c 0
 306 468 329 436 318 396 c 0
 307 356 267 324 227 324 c 0
 187 324 163 356 174 396 c 0
83 60 m 0
 94 100 135 132 175 132 c 0
 215 132 238 100 227 60 c 0
 217 20 177 -12 137 -12 c 0
 97 -12 72 20 83 60 c 0
EndSplineSet
EndChar
StartChar: semicolon
Encoding: 59 59 28
Width: 278
Flags: W
HStem: 5 121<160 164> 324 144<215 253>
Fore
74 58 m 0
 74 58 l 0
 84 100 117 126 160 126 c 0
 229 126 235 77 221 23 c 0
 200 -60 131 -112 51 -146 c 1
 43 -118 l 1
 89 -100 151 -45 161 -6 c 0
 163 0 166 5 160 5 c 0
 152 5 140 -5 120 -3 c 0
 88 -2 65 22 74 58 c 0
161 396 m 0
 172 436 214 468 253 468 c 0
 293 468 316 436 306 396 c 0
 295 356 255 324 215 324 c 0
 175 324 151 356 161 396 c 0
EndSplineSet
EndChar
StartChar: less
Encoding: 60 60 29
Width: 563
Flags: W
Fore
536 0 m 1
 91 233 l 1
 104 287 l 1
 676 522 l 1
 659 459 l 1
 178 261 l 1
 553 63 l 1
 536 0 l 1
EndSplineSet
EndChar
StartChar: equal
Encoding: 61 61 30
Width: 563
Flags: W
HStem: 132 65<82 568> 326 64<134 621>
Fore
621 326 m 1
 118 326 l 1
 135 390 l 1
 637 390 l 1
 621 326 l 1
568 132 m 1
 66 132 l 1
 83 197 l 1
 585 197 l 1
 568 132 l 1
EndSplineSet
EndChar
StartChar: greater
Encoding: 62 62 31
Width: 563
Flags: W
Fore
599 233 m 1
 28 0 l 1
 45 63 l 1
 525 261 l 1
 151 459 l 1
 167 522 l 1
 613 287 l 1
 599 233 l 1
EndSplineSet
EndChar
StartChar: question
Encoding: 63 63 32
Width: 443
Flags: W
HStem: -14 115<214 244> 647 29<369 398>
Fore
533 518 m 0
 533 518 l 0
 516 453 464 402 415 355 c 2
 373 316 l 2
 326 270 293 223 269 164 c 1
 252 164 l 1
 293 319 406 386 441 516 c 0
 459 582 441 647 369 647 c 0
 330 647 253 621 257 573 c 1
 260 564 266 556 269 547 c 0
 276 533 280 527 275 510 c 0
 269 485 246 470 220 470 c 0
 184 470 186 508 194 536 c 0
 217 625 316 676 398 676 c 0
 511 676 554 596 533 518 c 0
286 43 m 0
 276 11 241 -14 214 -14 c 0
 184 -14 161 12 170 43 c 0
 178 74 215 101 244 101 c 0
 272 101 293 75 286 43 c 0
EndSplineSet
EndChar
StartChar: at
Encoding: 64 64 33
Width: 920
Flags: W
HStem: -155 40<441 475> 40 43<670 688> 427 46<633 651> 636 38<648 690>
Fore
957 330 m 0
 957 330 l 0
 914 172 771 40 670 40 c 0
 634 40 574 49 574 123 c 1
 528 72 455 41 412 41 c 0
 341 41 301 83 329 184 c 0
 369 330 524 473 637 473 c 0
 690 473 711 436 714 410 c 1
 739 459 l 1
 825 459 l 1
 659 144 l 2
 637 104 657 83 688 83 c 0
 763 83 885 214 915 329 c 0
 965 513 831 636 671 636 c 0
 458 636 263 421 217 249 c 0
 177 98 180 -115 464 -115 c 0
 561 -115 685 -78 756 -23 c 1
 720 -88 l 1
 720 -88 608 -155 452 -155 c 0
 249 -155 45 -38 124 257 c 0
 169 424 376 674 682 674 c 0
 808 674 1026 590 957 330 c 0
674 344 m 0
 691 409 668 427 639 427 c 0
 585 427 462 341 419 175 c 0
 401 111 413 84 456 84 c 0
 492 84 545 127 562 147 c 0
 582 170 656 273 674 344 c 0
EndSplineSet
EndChar
StartChar: A
Encoding: 65 65 34
Width: 721
Flags: W
HStem: 0 20<198 218> 217 40<286 519>
Fore
705 0 m 1
 450 0 l 1
 455 20 l 1
 542 23 547 43 531 131 c 1
 519 217 l 1
 258 217 l 1
 233 178 170 98 161 61 c 0
 152 28 184 20 218 20 c 1
 214 0 l 1
 15 0 l 1
 20 20 l 1
 83 25 129 97 197 194 c 2
 528 676 l 1
 548 676 l 1
 641 117 l 1
 648 77 654 17 710 20 c 1
 705 0 l 1
516 257 m 1
 473 531 l 1
 286 257 l 1
 516 257 l 1
EndSplineSet
EndChar
StartChar: B
Encoding: 66 66 35
Width: 666
Flags: W
HStem: 0 20<25 48.8649> 0 37<291 337> 326 40<316 389> 642 20<197 215.343>
Fore
645 183 m 0xb0
 645 183 l 0
 613 63 492 0 335 0 c 2
 20 0 l 1x70
 25 20 l 1
 106 20 131 51 138 80 c 2
 273 582 l 1
 280 610 273 642 192 642 c 1
 197 662 l 1
 464 662 l 2
 619 662 728 621 694 493 c 0
 671 409 604 366 522 347 c 1
 604 330 670 278 645 183 c 0xb0
590 490 m 0
 590 490 l 0
 611 565 574 607 508 619 c 1
 418 625 386 627 376 593 c 2
 316 366 l 1
 398 366 l 2
 499 366 568 409 590 490 c 0
530 184 m 0
 562 304 450 326 355 326 c 2
 306 326 l 1
 243 91 l 2
 233 55 237 37 309 37 c 0
 413 37 499 68 530 184 c 0
EndSplineSet
EndChar
StartChar: C
Encoding: 67 67 36
Width: 666
Flags: W
HStem: -14 45<371 395> 450 226<556 745> 634 42<538 572>
Fore
665 111 m 1xa0
 585 37 470 -14 373 -14 c 0
 180 -14 63 111 123 330 c 0
 175 528 355 676 556 676 c 0
 693 676 720 593 776 674 c 1
 797 674 l 1
 745 450 l 1
 722 450 l 1xc0
 722 559 670 634 554 634 c 0
 390 634 284 502 235 323 c 0
 198 183 230 31 393 31 c 0
 492 31 567 63 654 131 c 1
 665 111 l 1xa0
EndSplineSet
EndChar
StartChar: D
Encoding: 68 68 37
Width: 721
Flags: W
HStem: 0 20<25 46.5091> 624 38<197 457> 642 20<197 213.339>
Fore
776 329 m 0xc0
 776 329 l 0
 722 126 553 0 286 0 c 2
 20 0 l 1
 25 20 l 1
 98 20 121 51 129 80 c 2
 264 582 l 1
 270 610 266 642 192 642 c 1xa0
 197 662 l 1
 455 662 l 2
 710 662 836 553 776 329 c 0xc0
667 327 m 0
 719 524 619 624 435 624 c 0xc0
 387 624 378 622 364 573 c 1
 235 91 l 1
 224 54 249 43 269 41 c 0
 472 32 617 143 667 327 c 0
EndSplineSet
EndChar
StartChar: E
Encoding: 69 69 38
Width: 609
Flags: W
HStem: 0 20<17 38.297> 0 41<235 551> 326 41<301 445> 519 143<189 682> 621 41<189 589> 642 20<189 205.121>
Fore
641 169 m 1x68
 551 0 l 1
 12 0 l 1x68
 17 20 l 1
 89 20 114 51 121 80 c 2
 257 582 l 1
 263 610 257 642 184 642 c 1xa4
 189 662 l 1x30
 719 662 l 1x24
 682 519 l 1
 660 519 l 1x30
 664 573 642 621 573 621 c 2
 412 621 l 2
 387 621 366 607 359 582 c 1
 301 367 l 1
 441 367 l 2
 508 367 570 384 591 462 c 1
 611 462 l 1
 548 229 l 1
 528 229 l 1
 550 307 498 326 430 326 c 2
 290 326 l 1
 224 80 l 2
 220 63 218 41 238 41 c 2
 370 41 l 2
 450 41 528 43 613 169 c 1
 641 169 l 1x68
EndSplineSet
EndChar
StartChar: F
Encoding: 70 70 39
Width: 556
Flags: W
HStem: 0 20<17 38.297 283 296> 326 41<301 445> 519 143<189 684> 621 41<189 589> 642 20<189 205.121>
Fore
684 519 m 1xe0
 659 519 l 1xe0
 676 628 613 621 542 621 c 2
 410 621 l 2xd0
 376 621 366 605 359 582 c 2
 301 367 l 1
 432 367 l 2
 499 367 561 384 582 462 c 1
 604 462 l 1
 541 229 l 1
 519 229 l 1
 541 307 488 326 421 326 c 2
 290 326 l 1
 224 80 l 2
 217 51 221 20 296 20 c 1
 292 0 l 1
 12 0 l 1
 17 20 l 1
 89 20 114 51 121 80 c 2
 257 582 l 1
 263 610 257 642 184 642 c 1xc8
 189 662 l 1xe0
 720 662 l 1xc8
 684 519 l 1xe0
EndSplineSet
EndChar
StartChar: G
Encoding: 71 71 40
Width: 721
Flags: W
HStem: -14 42<378 404> 336 20<544 562.15 544 794> 636 40<531 564>
Fore
794 336 m 1
 730 336 714 304 699 247 c 2
 648 57 l 1
 582 25 461 -14 379 -14 c 0
 209 -14 52 94 115 329 c 0
 169 527 352 676 551 676 c 0
 673 676 731 602 776 676 c 1
 797 676 l 1
 748 464 l 1
 727 464 l 1
 716 570 668 636 550 636 c 0
 384 636 276 496 229 321 c 0
 187 167 235 28 402 28 c 0
 439 28 482 34 521 49 c 0
 553 63 554 69 562 98 c 2
 602 247 l 2
 617 304 622 336 539 336 c 1
 544 356 l 1
 799 356 l 1
 794 336 l 1
EndSplineSet
EndChar
StartChar: H
Encoding: 72 72 41
Width: 721
Flags: W
HStem: 0 20<25 46.5091 291 303 429 450.571 691 707> 318 41<307 598> 642 20<194 212.958 194 470 601 617.44 601 874>
Fore
702 0 m 1
 424 0 l 1
 429 20 l 1
 502 20 527 51 535 80 c 2
 598 318 l 1
 295 318 l 1
 232 80 l 2
 224 51 229 20 303 20 c 1
 298 0 l 1
 20 0 l 1
 25 20 l 1
 98 20 121 51 129 80 c 2
 264 582 l 1
 270 610 266 642 192 642 c 1
 194 662 l 1
 475 662 l 1
 470 642 l 1
 396 642 373 610 367 582 c 1
 307 359 l 1
 610 359 l 1
 670 582 l 1
 676 610 670 642 596 642 c 1
 601 662 l 1
 879 662 l 1
 874 642 l 1
 802 642 777 610 771 582 c 1
 636 80 l 2
 628 51 634 20 707 20 c 1
 702 0 l 1
EndSplineSet
EndChar
StartChar: I
Encoding: 73 73 42
Width: 333
Flags: W
HStem: 0 20<23 47.4157 305 321> 642 20<195 213.921 195 488>
Fore
316 0 m 1
 18 0 l 1
 23 20 l 1
 106 20 131 51 138 80 c 2
 273 582 l 1
 280 610 273 642 190 642 c 1
 195 662 l 1
 493 662 l 1
 488 642 l 1
 406 642 381 610 375 582 c 1
 240 80 l 2
 232 51 238 20 321 20 c 1
 316 0 l 1
EndSplineSet
EndChar
StartChar: J
Encoding: 74 74 43
Width: 388
Flags: W
HStem: -14 122<88 109> 642 20<255 273.883 255 548>
Fore
548 642 m 1
 465 642 441 610 435 582 c 1
 332 198 l 2
 293 57 201 -14 109 -14 c 0
 80 -14 22 -3 26 45 c 1
 26 60 l 1
 32 83 60 108 88 108 c 0
 117 108 131 86 124 77 c 0
 114 57 120 25 141 25 c 0
 170 25 197 72 207 114 c 2
 333 582 l 1
 339 610 333 642 250 642 c 1
 255 662 l 1
 553 662 l 1
 548 642 l 1
EndSplineSet
EndChar
StartChar: K
Encoding: 75 75 44
Width: 721
Flags: W
HStem: 0 20<25 47.0884 290 307 409 436.305 706 713> 642 20<197 213.682 197 476 576 833>
Fore
708 0 m 1
 404 0 l 1
 409 20 l 1
 482 20 493 37 484 65 c 0
 470 112 422 183 395 221 c 2
 323 316 l 1
 292 296 l 1
 233 80 l 2
 226 51 232 20 307 20 c 1
 303 0 l 1
 20 0 l 1
 25 20 l 1
 100 20 124 51 132 80 c 2
 267 582 l 1
 273 610 267 642 192 642 c 1
 197 662 l 1
 481 662 l 1
 476 642 l 1
 399 642 375 610 369 582 c 1
 306 347 l 1
 358 387 617 562 630 608 c 0
 641 645 596 641 571 642 c 1
 576 662 l 1
 837 662 l 1
 833 642 l 1
 759 642 710 604 648 556 c 2
 421 376 l 1
 533 210 l 1
 581 137 l 2
 617 78 642 20 713 20 c 1
 708 0 l 1
EndSplineSet
EndChar
StartChar: L
Encoding: 76 76 45
Width: 609
Flags: W
HStem: 0 20<17 38.297> 0 41<283 550> 642 20<189 205.121 189 462>
Fore
644 174 m 1x60
 550 0 l 1
 12 0 l 1x60
 17 20 l 1xa0
 89 20 114 51 121 80 c 2
 257 582 l 1
 263 610 257 642 184 642 c 1
 189 662 l 1
 467 662 l 1
 462 642 l 1
 389 642 366 610 359 582 c 1
 224 80 l 2
 217 52 250 41 313 41 c 0
 439 41 527 37 619 174 c 1
 644 174 l 1x60
EndSplineSet
EndChar
StartChar: M
Encoding: 77 77 46
Width: 887
Flags: W
HStem: 0 20<25 48.8649 243 261 598 619.267 867 874> 642 20<198 216.68 846 1041>
Fore
869 0 m 1
 593 0 l 1
 598 20 l 1
 670 20 694 51 702 80 c 2
 833 568 l 1
 424 0 l 1
 410 0 l 1
 306 545 l 1
 181 80 l 2
 174 51 180 20 261 20 c 1
 257 0 l 1
 20 0 l 1
 25 20 l 1
 106 20 131 51 138 80 c 2
 273 582 l 1
 280 610 273 642 194 642 c 1
 198 662 l 1
 396 662 l 1
 492 157 l 1
 846 662 l 1
 1046 662 l 1
 1041 642 l 1
 968 642 945 610 938 582 c 1
 803 80 l 2
 796 51 802 20 874 20 c 1
 869 0 l 1
EndSplineSet
EndChar
StartChar: N
Encoding: 78 78 47
Width: 721
Flags: W
HStem: 0 20<17 40.8661 235 255> 642 20<189 207.225 647 665.83 647 880>
Fore
880 642 m 1
 799 642 774 610 768 582 c 1
 608 -14 l 1
 593 -14 l 1
 298 536 l 1
 175 80 l 2
 167 51 172 20 255 20 c 1
 250 0 l 1
 12 0 l 1
 17 20 l 1
 98 20 123 51 131 80 c 2
 266 587 l 1
 261 598 l 1
 240 633 233 642 184 642 c 1
 189 662 l 1
 359 662 l 1
 616 181 l 1
 723 582 l 1
 730 610 725 642 642 642 c 1
 647 662 l 1
 885 662 l 1
 880 642 l 1
EndSplineSet
EndChar
StartChar: O
Encoding: 79 79 48
Width: 721
Flags: W
HStem: 639 37<531 543>
Fore
776 330 m 0
 776 330 l 0
 723 138 558 -14 358 -14 c 0
 181 -14 66 120 123 330 c 0
 175 530 347 679 542 676 c 1
 716 684 833 544 776 330 c 0
664 330 m 1
 705 487 688 642 531 639 c 1
 381 630 287 522 237 330 c 0
 181 124 246 14 367 23 c 0
 548 37 639 224 664 330 c 1
EndSplineSet
EndChar
StartChar: P
Encoding: 80 80 49
Width: 556
Flags: W
HStem: 0 20<15 36.8444 278 293> 289 38<338 367> 624 38<194 428> 642 20<194 208.778>
Fore
673 487 m 0xd0
 673 487 l 0
 633 339 493 289 364 289 c 0
 336 289 309 290 280 293 c 1
 223 80 l 2
 215 51 221 20 293 20 c 1
 289 0 l 1
 11 0 l 1
 15 20 l 1
 89 20 114 51 121 80 c 2
 257 582 l 1
 263 610 257 642 189 642 c 1xd0
 194 662 l 1xe0
 444 662 l 2
 599 662 705 605 673 487 c 0xd0
562 479 m 0
 591 593 508 624 412 624 c 0xe0
 370 624 367 619 356 579 c 2
 290 330 l 1
 306 330 321 327 338 327 c 0
 445 327 531 364 562 479 c 0
EndSplineSet
EndChar
StartChar: Q
Encoding: 81 81 50
Width: 721
Flags: W
HStem: -177 200<367 653> 639 37<522 544>
Fore
653 -177 m 1
 653 -177 l 0
 479 -177 367 -147 306 -65 c 0
 292 -48 280 -20 266 -8 c 1
 258 3 244 8 237 9 c 0
 115 45 86 194 123 330 c 0
 175 525 338 676 542 676 c 0
 743 676 826 524 776 330 c 0
 723 138 554 -3 422 -8 c 1
 470 -100 539 -157 657 -160 c 1
 653 -177 l 1
664 330 m 0
 716 528 660 639 531 639 c 0
 395 637 289 530 237 330 c 0
 183 134 237 23 367 23 c 0
 505 23 614 147 664 330 c 0
EndSplineSet
EndChar
StartChar: R
Encoding: 82 82 51
Width: 666
Flags: W
HStem: 0 20<17 37.9599 279 292> 624 38<189 461> 642 20<189 204.581>
Fore
653 0 m 1xc0
 493 0 l 1
 338 307 l 1
 281 306 l 1
 221 80 l 2
 214 51 218 20 292 20 c 1
 287 0 l 1
 12 0 l 1
 17 20 l 1
 88 20 111 51 118 80 c 2
 253 582 l 1
 260 610 255 642 184 642 c 1xa0
 189 662 l 1
 453 662 l 2
 619 662 703 604 673 487 c 0
 644 381 544 332 447 319 c 1
 579 75 l 1
 598 43 614 23 657 20 c 1
 653 0 l 1xc0
564 485 m 0
 590 584 530 624 441 624 c 0xc0
 375 624 367 624 353 576 c 1
 292 343 l 1
 438 347 535 378 564 485 c 0
EndSplineSet
EndChar
StartChar: S
Encoding: 83 83 52
Width: 556
Flags: W
HStem: -14 39<260 294> 634 42<420 438>
Fore
535 169 m 0
 511 80 413 -14 276 -14 c 0
 174 -14 120 60 91 -14 c 1
 69 -14 l 1
 97 201 l 1
 118 201 l 1
 126 108 172 25 278 25 c 0
 359 25 432 94 430 172 c 0
 427 312 155 318 207 508 c 0
 233 607 332 676 429 676 c 0
 535 676 564 602 607 676 c 1
 628 676 l 1
 593 462 l 1
 568 462 l 1
 570 556 525 634 433 634 c 0
 373 634 318 602 301 539 c 0
 286 481 338 439 373 413 c 0
 488 332 567 289 535 169 c 0
EndSplineSet
EndChar
StartChar: T
Encoding: 84 84 53
Width: 609
Flags: W
HStem: 0 20<170 191.783 438 449> 619 43<201 419 201 632>
Fore
725 492 m 1
 702 492 l 1
 714 622 664 619 593 619 c 2
 522 619 l 1
 378 80 l 2
 370 51 375 20 449 20 c 1
 444 0 l 1
 166 0 l 1
 170 20 l 1
 244 20 267 51 275 80 c 2
 419 619 l 1
 349 619 272 624 232 582 c 1
 203 556 189 522 175 492 c 1
 151 492 l 1
 201 662 l 1
 763 662 l 1
 725 492 l 1
EndSplineSet
EndChar
StartChar: U
Encoding: 85 85 54
Width: 721
Flags: W
HStem: -14 45<356 387> 642 20<194 209.881 194 465 650 667.527 650 876>
Fore
876 642 m 1
 797 642 773 610 766 582 c 1
 682 267 l 2
 651 154 619 66 490 12 c 0
 455 -3 399 -14 356 -14 c 0
 175 -14 123 71 172 253 c 2
 261 582 l 1
 267 610 261 642 189 642 c 1
 194 662 l 1
 470 662 l 1
 465 642 l 1
 393 642 369 610 362 582 c 1
 272 246 l 2
 230 91 261 31 387 31 c 0
 573 31 613 172 639 267 c 1
 723 582 l 1
 730 610 723 642 645 642 c 1
 650 662 l 1
 880 662 l 1
 876 642 l 1
EndSplineSet
EndChar
StartChar: V
Encoding: 86 86 55
Width: 721
Flags: W
HStem: 642 20<192 200 197 458 673 688.161 673 872>
Fore
872 642 m 1
 825 642 796 610 770 570 c 0
 650 393 476 131 382 -14 c 1
 370 -14 l 1
 272 527 l 2
 261 587 250 642 192 642 c 1
 197 662 l 1
 462 662 l 1
 458 642 l 1
 395 642 379 630 373 605 c 0
 367 584 382 507 387 487 c 1
 445 161 l 1
 682 516 l 2
 697 538 722 576 728 599 c 0
 739 637 696 642 668 642 c 1
 673 662 l 1
 877 662 l 1
 872 642 l 1
EndSplineSet
EndChar
StartChar: W
Encoding: 87 87 56
Width: 943
Flags: W
HStem: 642 20<186 425 493 508.471 493 756>
Fore
1107 642 m 1
 1083 641 1058 633 1037 614 c 1
 1025 601 1014 585 1005 570 c 2
 644 -14 l 1
 631 -14 l 1
 584 412 l 1
 316 -14 l 1
 303 -14 l 1
 264 419 l 1
 260 468 252 561 237 604 c 0
 229 630 209 639 181 642 c 1
 186 662 l 1
 430 662 l 1
 425 642 l 1
 412 642 l 2
 378 637 359 637 350 602 c 0
 347 593 352 562 352 553 c 1
 395 189 l 1
 576 470 l 1
 571 513 568 556 559 596 c 0
 551 633 528 642 488 642 c 1
 493 662 l 1
 760 662 l 1
 756 642 l 1
 728 642 679 642 671 611 c 0
 667 596 668 576 668 570 c 1
 714 186 l 1
 923 513 l 2
 954 562 971 604 966 619 c 0
 958 641 931 641 909 642 c 1
 914 662 l 1
 1112 662 l 1
 1107 642 l 1
EndSplineSet
EndChar
StartChar: X
Encoding: 88 88 57
Width: 721
Flags: W
HStem: 0 20<17 30.2249 235 249 413 441.927 693 710> 642 20<201 498 636 657.237 636 869>
Fore
705 0 m 1
 409 0 l 1
 413 20 l 1
 484 20 504 34 499 69 c 0
 498 92 479 137 470 158 c 2
 416 287 l 1
 269 149 l 2
 244 127 214 100 194 75 c 0
 172 48 189 20 249 20 c 1
 244 0 l 1
 12 0 l 1
 17 20 l 1
 74 20 132 77 203 143 c 2
 401 326 l 1
 339 476 l 1
 289 598 267 639 197 642 c 1
 201 662 l 1
 502 662 l 1
 498 642 l 1
 435 642 421 634 415 611 c 0
 406 581 452 478 464 453 c 1
 485 404 l 1
 625 533 l 2
 644 550 687 584 693 610 c 0
 702 642 653 642 631 642 c 1
 636 662 l 1
 874 662 l 1
 869 642 l 1
 797 642 723 576 685 539 c 2
 501 367 l 1
 614 103 l 1
 644 40 664 20 710 20 c 1
 705 0 l 1
EndSplineSet
EndChar
StartChar: Y
Encoding: 89 89 58
Width: 721
Flags: W
HStem: 0 20<218 243.241 497 522> 642 20<195 203 200 475 660 685.781>
Fore
874 642 m 1
 802 633 737 564 697 519 c 2
 498 303 l 1
 438 80 l 2
 430 51 436 20 522 20 c 1
 518 0 l 1
 214 0 l 1
 218 20 l 1
 304 20 329 51 336 80 c 2
 393 293 l 1
 318 476 l 1
 276 574 266 641 195 642 c 1
 200 662 l 1
 479 662 l 1
 475 642 l 1
 421 642 401 636 395 614 c 0
 389 593 396 576 406 559 c 1
 490 347 l 1
 684 562 l 2
 699 581 720 602 717 624 c 0
 714 636 708 642 656 642 c 1
 660 662 l 1
 879 662 l 1
 874 642 l 1
EndSplineSet
EndChar
StartChar: Z
Encoding: 90 90 59
Width: 609
Flags: W
HStem: 0 38<155 573> 624 38<227 613>
Fore
644 177 m 1
 573 0 l 1
 8 0 l 1
 11 12 l 1
 613 624 l 1
 404 624 l 2
 301 624 238 605 187 490 c 1
 161 490 l 1
 227 662 l 1
 756 662 l 1
 753 650 l 1
 155 38 l 1
 401 38 l 2
 510 38 562 66 621 177 c 1
 644 177 l 1
EndSplineSet
EndChar
StartChar: bracketleft
Encoding: 91 91 60
Width: 333
Flags: W
HStem: -157 26<173 258> 636 26<264 470>
Fore
258 -157 m 1
 46 -157 l 1
 264 662 l 1
 476 662 l 1
 470 636 l 1
 392 636 l 2
 346 636 332 625 319 581 c 2
 146 -68 l 2
 132 -120 141 -131 189 -131 c 2
 264 -131 l 1
 258 -157 l 1
EndSplineSet
EndChar
StartChar: backslash
Encoding: 92 92 61
Width: 278
Flags: W
HStem: 0 21G<289 361>
Fore
361 0 m 1
 289 0 l 1
 100 682 l 1
 172 682 l 1
 361 0 l 1
EndSplineSet
EndChar
StartChar: bracketright
Encoding: 93 93 62
Width: 333
Flags: W
HStem: -157 26<-3 203> 636 26<209 297>
Fore
203 -157 m 1
 -8 -157 l 1
 -2 -131 l 1
 68 -131 l 2
 127 -129 137 -121 152 -63 c 2
 318 556 l 1
 332 610 341 636 293 636 c 2
 204 636 l 1
 210 662 l 1
 421 662 l 1
 203 -157 l 1
EndSplineSet
EndChar
StartChar: asciicircum
Encoding: 94 94 63
Width: 468
Flags: W
Fore
525 257 m 1
 452 257 l 1
 393 593 l 1
 155 257 l 1
 83 257 l 1
 379 662 l 1
 444 662 l 1
 525 257 l 1
EndSplineSet
EndChar
StartChar: underscore
Encoding: 95 95 64
Width: 499
Flags: W
HStem: -174 59<-32 453>
Fore
453 -174 m 1
 -46 -174 l 1
 -31 -115 l 1
 468 -115 l 1
 453 -174 l 1
EndSplineSet
EndChar
StartChar: grave
Encoding: 96 96 65
Width: 333
Flags: W
Fore
378 507 m 1
 338 507 l 1
 220 598 l 2
 206 607 184 624 189 641 c 0
 195 664 209 677 229 677 c 0
 246 677 270 664 278 645 c 1
 378 507 l 1
EndSplineSet
EndChar
StartChar: a
Encoding: 97 97 66
Width: 443
Flags: W
HStem: -11 60<140 209> 435 23<325 347>
Fore
455 43 m 1
 455 43 l 0
 433 25 384 -11 356 -11 c 0
 304 -11 296 28 306 66 c 1
 249 25 183 -11 140 -11 c 0
 80 -11 46 37 63 95 c 0
 95 215 267 257 361 290 c 1
 389 396 390 435 327 435 c 0
 307 435 269 425 253 407 c 1
 246 395 244 375 238 349 c 0
 232 326 204 304 181 304 c 0
 135 304 137 344 169 382 c 0
 218 442 286 458 347 458 c 0
 458 458 478 410 444 287 c 2
 387 77 l 1
 378 40 402 35 461 69 c 1
 455 43 l 1
307 94 m 1
 353 264 l 1
 284 238 184 221 160 131 c 0
 147 88 161 49 209 49 c 0
 229 49 292 71 307 94 c 1
EndSplineSet
EndChar
StartChar: b
Encoding: 98 98 67
Width: 499
Flags: W
HStem: -11 34<240 263> 396 62<364 424>
Fore
538 243 m 0
 538 243 l 0
 504 112 376 -11 240 -11 c 0
 183 -11 129 5 95 37 c 1
 91 43 88 54 92 68 c 1
 224 559 l 2
 243 628 229 619 175 619 c 1
 180 637 l 1
 218 647 246 651 273 660 c 2
 343 682 l 1
 261 378 l 1
 303 430 366 458 424 458 c 0
 539 458 565 344 538 243 c 0
439 200 m 0
 461 280 465 396 364 396 c 0
 290 396 255 353 243 309 c 2
 183 84 l 1
 170 51 181 49 206 35 c 0
 221 28 246 23 263 23 c 0
 362 23 416 117 439 200 c 0
EndSplineSet
EndChar
StartChar: c
Encoding: 99 99 68
Width: 443
Flags: W
HStem: -11 71<209 272> 429 29<346 372>
Fore
452 149 m 1
 387 63 312 -11 209 -11 c 0
 101 -11 49 91 81 214 c 0
 117 344 223 458 372 458 c 0
 429 458 507 427 495 359 c 0
 488 336 461 316 438 316 c 0
 415 316 398 338 404 359 c 0
 415 399 399 429 346 429 c 0
 260 429 194 338 170 255 c 0
 146 163 169 60 272 60 c 0
 338 60 392 106 439 157 c 1
 452 149 l 1
EndSplineSet
EndChar
StartChar: d
Encoding: 100 100 69
Width: 499
Flags: W
HStem: -11 49<209 261> 427 31<342 361>
Fore
502 45 m 1
 502 45 l 0
 450 31 395 12 336 -14 c 1
 355 60 l 1
 318 20 260 -11 209 -11 c 0
 84 -11 52 98 83 210 c 0
 114 327 230 458 359 458 c 0
 410 458 442 433 452 418 c 1
 490 559 l 1
 507 627 499 619 439 619 c 1
 444 637 l 1
 484 647 511 651 538 660 c 2
 607 682 l 1
 449 91 l 1
 438 54 475 60 505 60 c 1
 502 45 l 1
370 117 m 2
 419 300 l 2
 439 372 421 427 349 427 c 0
 266 427 201 333 177 241 c 0
 141 111 181 38 261 38 c 0
 318 38 361 83 370 117 c 2
EndSplineSet
EndChar
StartChar: e
Encoding: 101 101 70
Width: 443
Flags: W
HStem: -11 68<209 269> 276 31<177 476> 422 36<318 349>
Fore
464 158 m 1
 464 158 l 0
 409 68 309 -11 209 -11 c 0
 94 -11 49 95 80 214 c 0
 118 356 226 458 349 458 c 0
 456 458 501 379 476 276 c 1
 164 276 l 1
 141 181 155 57 269 57 c 0
 335 57 402 109 449 164 c 1
 464 158 l 1
382 307 m 1
 395 366 384 422 318 422 c 0
 247 422 203 370 177 307 c 1
 382 307 l 1
EndSplineSet
EndChar
StartChar: f
Encoding: 102 102 71
Width: 333
Flags: W
HStem: 0 21G<20 280> 416 31<140 215 307 421> 579 103<456 499>
Fore
550 624 m 1
 544 602 522 579 499 579 c 0
 445 579 472 630 439 648 c 0
 429 654 413 656 399 650 c 1
 355 639 344 587 335 553 c 2
 307 447 l 1
 429 447 l 1
 421 416 l 1
 300 416 l 1
 209 80 l 1
 197 37 207 18 283 14 c 1
 280 0 l 1
 20 0 l 1
 23 14 l 1
 92 18 112 37 124 80 c 1
 215 416 l 1
 134 416 l 1
 141 447 l 1
 223 447 l 1
 232 482 241 513 257 544 c 0
 295 622 373 682 456 682 c 0
 496 682 541 674 550 624 c 1
EndSplineSet
EndChar
StartChar: g
Encoding: 103 103 72
Width: 499
Flags: W
HStem: -217 56<141 197> 147 27<284 303> 386 72<367 573> 430 28<346 367>
Fore
573 386 m 1xe0
 490 386 l 0
 496 356 492 323 485 300 c 0
 461 204 372 147 284 147 c 0
 267 147 250 151 232 154 c 1
 210 149 157 108 157 84 c 1
 164 65 220 65 240 63 c 0
 372 57 479 68 447 -49 c 0
 418 -163 235 -217 141 -217 c 0
 26 -217 -14 -154 -3 -114 c 0
 8 -74 61 -46 126 2 c 1
 108 11 80 25 88 54 c 0
 98 94 158 134 206 163 c 1
 155 187 131 230 149 296 c 0
 175 395 272 458 367 458 c 0
 453 458 449 407 584 424 c 1
 573 386 l 1xe0
401 272 m 0
 401 272 l 0
 416 327 413 430 346 430 c 0xd0
 286 430 255 384 241 335 c 0
 224 272 220 174 301 174 c 0
 358 174 389 223 401 272 c 0
415 -68 m 0
 429 -17 359 -15 295 -14 c 0
 250 -14 190 -12 146 -3 c 1
 121 -25 83 -58 74 -91 c 0
 65 -126 94 -161 197 -161 c 0
 315 -161 399 -124 415 -68 c 0
EndSplineSet
EndChar
StartChar: h
Encoding: 104 104 73
Width: 499
Flags: W
HStem: 0 21G<9 220 280 490> 404 54<373 424>
Fore
490 0 m 1
 280 0 l 1
 283 14 l 1
 332 18 352 37 364 80 c 1
 419 287 l 2
 435 346 445 404 373 404 c 0
 318 404 287 376 249 344 c 1
 178 80 l 1
 166 37 177 18 223 14 c 1
 220 0 l 1
 9 0 l 1
 12 14 l 1
 61 18 81 37 94 80 c 1
 223 559 l 1
 240 624 229 621 175 619 c 1
 180 637 l 1
 217 647 244 651 270 660 c 2
 339 682 l 1
 258 378 l 1
 304 422 364 458 424 458 c 0
 525 458 535 399 504 289 c 1
 449 80 l 1
 436 37 447 18 493 14 c 1
 490 0 l 1
EndSplineSet
EndChar
StartChar: i
Encoding: 105 105 74
Width: 278
Flags: W
HStem: 0 21G<23 260> 579 103<289 316>
Fore
353 630 m 0
 353 630 l 0
 346 602 316 579 289 579 c 0
 260 579 244 602 252 630 c 0
 260 659 287 682 316 682 c 0
 344 682 361 659 353 630 c 0
260 0 m 1
 23 0 l 1
 26 14 l 1
 88 18 108 37 120 80 c 1
 184 323 l 1
 206 401 195 407 127 390 c 1
 131 404 l 1
 306 458 l 1
 204 80 l 1
 192 37 203 18 263 14 c 1
 260 0 l 1
EndSplineSet
EndChar
StartChar: j
Encoding: 106 106 75
Width: 278
Flags: W
HStem: 579 103<316 344>
Fore
381 630 m 0
 381 630 l 0
 373 602 344 579 316 579 c 0
 289 579 272 602 280 630 c 0
 287 659 316 682 344 682 c 0
 372 682 389 659 381 630 c 0
209 12 m 1
 169 -140 89 -217 -23 -217 c 0
 -51 -217 -80 -207 -94 -190 c 1
 -108 -167 -92 -134 -69 -124 c 0
 -46 -114 -28 -118 -18 -132 c 1
 -12 -147 -5 -167 20 -181 c 0
 57 -200 86 -134 97 -94 c 2
 214 343 l 1
 227 396 215 399 152 390 c 1
 155 404 l 1
 329 458 l 1
 209 12 l 1
EndSplineSet
EndChar
StartChar: k
Encoding: 107 107 76
Width: 499
Flags: W
HStem: 0 14<286 300.528> 433 14<390 410.933 390 591>
Fore
499 0 m 1
 283 0 l 1
 286 14 l 1
 333 14 330 40 324 51 c 1
 227 247 l 1
 183 80 l 1
 170 37 181 18 240 14 c 1
 237 0 l 1
 2 0 l 1
 5 14 l 1
 66 18 86 37 98 80 c 1
 232 579 l 2
 244 625 233 622 177 619 c 1
 181 637 l 1
 221 647 249 651 275 660 c 2
 344 682 l 1
 232 263 l 1
 387 373 l 2
 402 384 418 396 432 410 c 1
 438 427 429 433 387 433 c 1
 390 447 l 1
 594 447 l 1
 591 433 l 1
 488 433 418 362 306 283 c 1
 401 98 l 2
 421 58 452 17 502 14 c 1
 499 0 l 1
EndSplineSet
EndChar
StartChar: l
Encoding: 108 108 77
Width: 278
Flags: W
HStem: 0 21G<20 260>
Fore
260 0 m 1
 20 0 l 1
 23 14 l 1
 88 18 106 37 118 80 c 1
 247 559 l 1
 266 633 257 624 187 624 c 1
 190 637 l 1
 241 647 316 665 366 682 c 1
 204 80 l 1
 192 37 201 18 263 14 c 1
 260 0 l 1
EndSplineSet
EndChar
StartChar: m
Encoding: 109 109 78
Width: 777
Flags: W
HStem: 0 21G<14 224 283 493 553 763> 404 54<645 697>
Fore
763 0 m 1
 553 0 l 1
 556 14 l 1
 605 18 625 37 637 80 c 1
 691 283 l 2
 717 379 708 404 645 404 c 0
 599 404 554 381 522 344 c 1
 452 80 l 1
 439 37 450 18 496 14 c 1
 493 0 l 1
 283 0 l 1
 286 14 l 1
 335 18 355 37 367 80 c 1
 422 287 l 1
 438 339 450 404 384 404 c 0
 343 404 286 381 253 346 c 1
 183 80 l 1
 170 37 181 18 227 14 c 1
 224 0 l 1
 14 0 l 1
 17 14 l 1
 66 18 86 37 98 80 c 1
 163 323 l 1
 181 378 169 389 118 389 c 1
 123 406 l 1
 284 458 l 1
 266 392 l 1
 260 367 289 399 307 410 c 0
 347 436 395 458 439 458 c 0
 490 458 519 421 519 373 c 1
 567 415 641 458 697 458 c 0
 816 458 796 356 773 267 c 1
 722 80 l 1
 710 37 720 18 766 14 c 1
 763 0 l 1
EndSplineSet
EndChar
StartChar: n
Encoding: 110 110 79
Width: 499
Flags: W
HStem: 0 21G<9 220 280 490> 404 54<373 433>
Fore
490 0 m 1
 280 0 l 1
 283 14 l 1
 332 18 352 37 364 80 c 1
 421 295 l 1
 438 353 444 404 373 404 c 0
 326 404 283 373 250 347 c 1
 178 80 l 1
 166 37 177 18 223 14 c 1
 220 0 l 1
 9 0 l 1
 12 14 l 1
 61 18 81 37 94 80 c 1
 160 324 l 1
 180 401 170 399 115 396 c 1
 120 410 l 1
 280 458 l 1
 258 378 l 1
 306 416 362 458 433 458 c 0
 510 458 535 404 507 296 c 1
 449 80 l 1
 436 37 447 18 493 14 c 1
 490 0 l 1
EndSplineSet
EndChar
StartChar: o
Encoding: 111 111 80
Width: 499
Flags: W
HStem: -11 31<243 269> 427 31<345 369>
Fore
535 238 m 0
 535 238 l 0
 499 108 381 -11 243 -11 c 0
 115 -11 57 97 89 218 c 0
 124 350 230 458 369 458 c 0
 501 458 568 369 535 238 c 0
429 190 m 0
 453 281 461 427 347 427 c 0
 273 427 220 359 195 272 c 0
 157 131 174 20 269 20 c 0
 347 20 406 104 429 190 c 0
EndSplineSet
EndChar
StartChar: p
Encoding: 112 112 81
Width: 499
Flags: W
HStem: -11 34<250 271> 402 56<366 429>
Fore
535 243 m 0
 535 243 l 0
 499 109 379 -11 250 -11 c 0
 215 -11 186 9 169 35 c 1
 123 -137 l 2
 111 -181 121 -200 189 -203 c 1
 184 -217 l 1
 -55 -217 l 1
 -51 -203 l 1
 6 -200 26 -181 38 -137 c 2
 163 327 l 2
 178 384 183 404 109 396 c 1
 114 410 l 1
 283 458 l 1
 266 396 l 1
 258 373 267 392 296 413 c 0
 332 439 370 458 429 458 c 0
 539 458 567 359 535 243 c 0
438 203 m 0
 461 284 470 402 366 402 c 0
 336 402 304 389 278 369 c 0
 253 352 253 347 247 324 c 2
 187 103 l 2
 180 74 189 60 210 43 c 0
 224 31 246 23 269 23 c 0
 341 23 412 103 438 203 c 0
EndSplineSet
EndChar
StartChar: q
Encoding: 113 113 82
Width: 499
Flags: W
HStem: -11 62<190 247> 433 25<353 382>
Fore
439 -217 m 1
 198 -217 l 1
 203 -203 l 1
 270 -200 290 -181 303 -137 c 2
 355 60 l 1
 303 23 246 -11 190 -11 c 0
 60 -11 54 111 81 214 c 0
 117 343 237 458 373 458 c 0
 413 458 447 447 473 425 c 1
 530 456 l 2
 548 465 545 450 542 439 c 2
 387 -137 l 2
 375 -181 386 -200 444 -203 c 1
 439 -217 l 1
376 140 m 1
 425 323 l 1
 439 370 450 399 407 424 c 0
 390 432 381 433 361 433 c 0
 263 433 198 327 177 244 c 0
 146 134 167 51 247 51 c 0
 278 51 316 61 346 81 c 0
 370 100 370 114 376 140 c 1
EndSplineSet
EndChar
StartChar: r
Encoding: 114 114 83
Width: 333
Flags: W
HStem: 0 21G<5 240> 361 97<388 401>
Fore
438 392 m 0
 430 370 410 361 390 361 c 0
 355 361 356 396 332 396 c 0
 312 396 258 347 249 318 c 1
 186 80 l 1
 174 37 184 18 243 14 c 1
 240 0 l 1
 5 0 l 1
 8 14 l 1
 69 18 89 37 101 80 c 1
 160 298 l 1
 186 393 174 406 109 389 c 1
 112 404 l 1
 287 458 l 1
 263 367 l 1
 292 402 350 458 401 458 c 0
 439 458 456 435 438 392 c 0
EndSplineSet
EndChar
StartChar: s
Encoding: 115 115 84
Width: 388
Flags: W
HStem: -11 25<192 216> 435 23<299 322>
Fore
381 124 m 0
 358 38 276 -11 197 -11 c 0
 167 -11 152 -3 129 5 c 0
 75 23 69 6 63 -3 c 1
 49 -3 l 1
 92 154 l 1
 109 154 l 1
 101 81 118 14 201 14 c 0
 244 14 289 40 301 84 c 0
 329 190 103 194 140 335 c 0
 161 413 240 458 313 458 c 0
 336 458 353 452 382 439 c 0
 413 429 418 444 422 449 c 1
 435 449 l 1
 399 313 l 1
 384 313 l 1
 384 382 373 435 306 435 c 0
 267 435 224 410 214 370 c 0
 186 270 415 250 381 124 c 0
EndSplineSet
EndChar
StartChar: t
Encoding: 116 116 85
Width: 278
Flags: W
HStem: 416 31<276 367>
Fore
298 68 m 1
 247 20 195 -11 147 -11 c 0
 81 -11 77 31 106 129 c 1
 183 416 l 1
 154 416 l 2
 141 416 117 410 131 430 c 1
 197 468 249 524 312 579 c 1
 276 447 l 1
 375 447 l 1
 367 416 l 1
 269 416 l 1
 195 146 l 1
 177 72 172 25 243 49 c 0
 260 55 275 68 287 80 c 1
 298 68 l 1
EndSplineSet
EndChar
StartChar: u
Encoding: 117 117 86
Width: 499
Flags: W
HStem: -11 59<186 244> 433 14<129 148.035 379 402.225>
Fore
488 37 m 1
 445 25 387 6 335 -11 c 1
 358 77 l 1
 330 54 l 2
 303 29 250 -11 186 -11 c 0
 106 -11 84 46 108 132 c 2
 169 361 l 1
 184 421 181 433 126 433 c 1
 129 447 l 1
 276 447 l 1
 194 137 l 2
 180 86 189 48 244 48 c 0
 272 48 306 63 332 80 c 0
 366 103 362 115 372 151 c 2
 429 359 l 1
 444 421 442 433 376 433 c 1
 379 447 l 1
 536 447 l 1
 449 120 l 2
 435 68 433 48 493 51 c 1
 488 37 l 1
EndSplineSet
EndChar
StartChar: v
Encoding: 118 118 87
Width: 499
Flags: W
HStem: 433 14<127 134 131 323 445 452 449 584>
Fore
584 433 m 1
 547 433 522 390 492 343 c 1
 270 17 l 2
 266 9 250 -11 244 -11 c 0
 240 -11 237 9 235 17 c 1
 175 379 l 1
 170 416 151 433 127 433 c 1
 131 447 l 1
 326 447 l 1
 323 433 l 1
 260 433 266 395 269 358 c 1
 303 120 l 1
 433 323 l 2
 485 402 504 433 445 433 c 1
 449 447 l 1
 587 447 l 1
 584 433 l 1
EndSplineSet
EndChar
StartChar: w
Encoding: 119 119 88
Width: 721
Flags: W
HStem: 433 14<138 144 379 385 690 702.751>
Fore
809 433 m 1
 780 424 760 387 746 370 c 1
 495 -3 l 2
 493 -6 488 -11 485 -11 c 0
 482 -11 481 -6 478 -3 c 1
 444 267 l 1
 243 -3 l 2
 241 -6 235 -11 232 -11 c 0
 229 -11 227 -6 226 -3 c 1
 180 343 l 1
 172 406 175 433 138 433 c 1
 141 447 l 1
 321 447 l 1
 318 433 l 1
 292 435 270 430 263 399 c 0
 255 375 272 270 276 244 c 1
 290 117 l 1
 433 310 l 1
 430 396 429 433 379 433 c 1
 382 447 l 1
 584 447 l 1
 581 433 l 1
 513 435 507 413 515 343 c 1
 539 123 l 1
 676 323 l 2
 730 402 745 433 687 433 c 1
 690 447 l 1
 813 447 l 1
 809 433 l 1
EndSplineSet
EndChar
StartChar: x
Encoding: 120 120 89
Width: 499
Flags: W
HStem: 0 14<20 32.2375 145 166 477 482> 433 14<144 349 393 402 396 550>
Fore
479 0 m 1
 278 0 l 1
 281 14 l 1
 319 17 349 26 338 49 c 2
 273 197 l 1
 172 84 l 2
 117 25 114 14 166 14 c 1
 163 0 l 1
 17 0 l 1
 20 14 l 1
 57 14 81 40 117 77 c 2
 266 230 l 1
 215 362 l 1
 200 398 204 430 141 433 c 1
 144 447 l 1
 352 447 l 1
 349 433 l 1
 313 433 301 419 298 407 c 0
 293 392 323 318 330 301 c 1
 349 323 419 384 427 410 c 0
 432 430 407 433 393 433 c 1
 396 447 l 1
 553 447 l 1
 550 433 l 1
 513 433 475 407 447 379 c 2
 341 270 l 1
 413 84 l 2
 429 45 447 14 482 14 c 1
 479 0 l 1
EndSplineSet
EndChar
StartChar: y
Encoding: 121 121 90
Width: 499
Flags: W
HStem: -217 100<43 54> 433 14<135 338 461 593>
Fore
593 433 m 1
 573 433 541 399 525 376 c 2
 275 -8 l 2
 226 -83 144 -217 45 -217 c 0
 18 -217 -5 -207 -12 -184 c 1
 -14 -169 -14 -155 -2 -140 c 0
 11 -123 34 -117 52 -117 c 0
 68 -117 86 -127 108 -134 c 0
 134 -140 163 -117 224 -23 c 0
 235 -8 249 14 247 25 c 1
 175 390 l 1
 172 416 160 430 132 433 c 1
 135 447 l 1
 341 447 l 1
 338 433 l 1
 270 433 264 410 272 367 c 2
 318 114 l 1
 490 392 l 1
 504 410 505 430 458 433 c 1
 461 447 l 1
 596 447 l 1
 593 433 l 1
EndSplineSet
EndChar
StartChar: z
Encoding: 122 122 91
Width: 443
Flags: W
HStem: 0 31<141 404> 416 31<177 406>
Fore
455 135 m 1
 404 0 l 1
 25 0 l 1
 28 14 l 1
 406 416 l 1
 280 416 l 2
 194 416 180 384 160 330 c 1
 143 330 l 1
 177 447 l 1
 524 447 l 1
 521 433 l 1
 141 31 l 1
 267 31 l 2
 296 31 327 31 359 43 c 1
 401 54 418 106 436 140 c 1
 455 135 l 1
EndSplineSet
EndChar
StartChar: braceleft
Encoding: 123 123 92
Width: 479
Flags: W
Fore
296 -164 m 1
 183 -167 149 -140 181 -17 c 1
 224 143 l 1
 241 209 241 240 180 257 c 1
 246 275 269 307 286 370 c 2
 332 544 l 1
 362 662 424 682 524 682 c 1
 455 665 425 627 409 559 c 1
 361 384 l 1
 343 313 319 275 246 257 c 1
 313 238 310 194 290 121 c 2
 246 -43 l 1
 229 -111 237 -152 296 -164 c 1
EndSplineSet
EndChar
StartChar: bar
Encoding: 124 124 93
Width: 199
Flags: W
HStem: 0 21G<68 132>
Fore
132 0 m 1
 68 0 l 1
 250 682 l 1
 315 682 l 1
 132 0 l 1
EndSplineSet
EndChar
StartChar: braceright
Encoding: 125 125 94
Width: 479
Flags: W
Fore
439 257 m 1
 369 240 349 209 332 143 c 1
 289 -17 l 1
 257 -140 207 -167 95 -164 c 1
 161 -152 194 -111 210 -43 c 1
 255 121 l 2
 275 194 295 238 372 257 c 1
 307 275 307 313 326 384 c 1
 373 559 l 1
 390 627 382 665 323 682 c 1
 422 682 470 662 439 544 c 1
 393 370 l 2
 376 307 381 275 439 257 c 1
EndSplineSet
EndChar
StartChar: asciitilde
Encoding: 126 126 95
Width: 540
Flags: W
HStem: 198 63<435 453> 267 65<232 249>
Fore
605 307 m 1
 561 253 499 198 435 198 c 0
 358 198 301 267 232 267 c 0
 177 267 135 217 101 177 c 1
 77 217 l 1
 121 270 178 332 249 332 c 0
 318 332 399 261 453 261 c 0
 498 261 550 309 581 347 c 1
 605 307 l 1
EndSplineSet
EndChar
StartChar: uni0E10.descless
Encoding: 128 63232 96
Width: 508
Flags: W
HStem: -8 43<290 303> 190 39<177 191> 319 39<199 216>
Fore
574 575 m 0
 518 465 414 494 396 500 c 0
 341 520 300 530 269 530 c 0
 229 529 205 512 182 476 c 1
 444 405 l 2
 459 401 490 392 478 332 c 2
 430 106 l 2
 416 41 368 -8 290 -8 c 0
 225 -8 188 45 201 106 c 2
 220 198 l 1
 207 192 194 190 178 190 c 0
 124 190 101 232 114 280 c 0
 127 324 165 358 214 358 c 0
 294 359 321 319 310 270 c 2
 270 78 l 2
 265 58 273 35 299 35 c 0
 325 35 342 58 346 77 c 2
 398 321 l 2
 405 353 402 368 380 374 c 2
 122 443 l 1
 142 482 202 602 311 598 c 0
 388 595 504 529 563 586 c 1
 573 595 582 591 574 575 c 0
187 229 m 0
 217 229 237 252 241 274 c 0
 246 296 236 319 206 319 c 0
 177 319 157 296 152 274 c 0
 148 252 158 229 187 229 c 0
EndSplineSet
KernsSLIFO: 180 46 0 0 183 46 0 0 182 46 0 0 181 46 0 0
EndChar
StartChar: uni0E34.left
Encoding: 129 63233 97
Width: 0
Flags: W
Fore
-116 654 m 1
 -138 667 -249 722 -320 731 c 0
 -414 746 -503 733 -522 728 c 1
 -473 834 -373 900 -271 892 c 0
 -159 885 -94 796 -116 654 c 1
-154 719 m 1
 -168 803 -213 834 -285 843 c 0
 -346 851 -408 820 -439 779 c 1
 -439 779 -366 785 -300 773 c 0
 -209 756 -154 719 -154 719 c 1
EndSplineSet
EndChar
StartChar: uni0E35.left
Encoding: 130 63234 98
Width: 0
Flags: W
Fore
-116 654 m 1
 -138 667 -249 720 -320 731 c 0
 -417 746 -503 733 -522 728 c 1
 -482 820 -382 900 -280 892 c 0
 -246 891 -201 883 -166 852 c 1
 -145 951 l 1
 -78 951 l 1
 -118 762 l 1
 -118 762 -107 720 -116 654 c 1
-154 719 m 1
 -168 803 -213 834 -285 843 c 0
 -346 851 -408 820 -439 779 c 1
 -439 779 -366 785 -300 773 c 0
 -209 756 -154 719 -154 719 c 1
EndSplineSet
EndChar
StartChar: uni0E36.left
Encoding: 131 63235 99
Width: 0
Flags: W
HStem: 905 41<-128 -114>
Fore
-143 822 m 0
 -116 822 -99 843 -94 864 c 0
 -90 884 -99 905 -126 905 c 0
 -152 905 -169 884 -173 864 c 0
 -178 843 -169 822 -143 822 c 0
-154 719 m 17
 -168 803 -213 834 -285 843 c 0
 -346 851 -408 820 -439 779 c 1
 -439 779 -366 785 -300 773 c 0
 -209 756 -154 719 -154 719 c 17
-116 654 m 1
 -138 667 -249 720 -320 731 c 0
 -417 746 -503 733 -522 728 c 1
 -481 822 -377 900 -277 892 c 0
 -236 889 -210 877 -210 877 c 1
 -205 908 -168 946 -114 946 c 0
 -66 946 -40 908 -49 865 c 0
 -57 829 -85 791 -124 783 c 1
 -124 783 -102 733 -116 654 c 1
EndSplineSet
EndChar
StartChar: uni0E37.left
Encoding: 132 63236 100
Width: 0
Flags: W
Fore
-116 654 m 1
 -138 667 -249 720 -320 731 c 0
 -417 746 -503 733 -522 728 c 1
 -466 851 -349 902 -275 889 c 1
 -260 951 l 1
 -205 951 l 1
 -220 877 l 1
 -187 869 -163 845 -163 845 c 1
 -141 951 l 1
 -82 951 l 1
 -119 763 l 1
 -119 763 -104 723 -116 654 c 1
-154 719 m 1
 -168 803 -213 834 -285 843 c 0
 -346 851 -408 820 -439 779 c 1
 -439 779 -366 785 -300 773 c 0
 -209 756 -154 719 -154 719 c 1
EndSplineSet
EndChar
StartChar: ellipsis
Encoding: 133 8230 101
Width: 998
Flags: W
HStem: -14 21G<147.5 179 480 511.5 812.5 844>
Fore
899 45 m 0
 899 45 l 0
 892 12 860 -14 828 -14 c 0
 797 -14 779 14 786 45 c 0
 792 74 823 101 852 101 c 0
 883 101 905 75 899 45 c 0
568 45 m 0
 568 45 l 0
 561 12 527 -14 496 -14 c 0
 464 -14 445 14 452 45 c 0
 458 74 489 101 520 101 c 0
 551 101 574 75 568 45 c 0
234 45 m 0
 227 12 195 -14 163 -14 c 0
 132 -14 114 14 121 45 c 0
 127 74 158 101 187 101 c 0
 218 101 240 75 234 45 c 0
EndSplineSet
EndChar
StartChar: uni0E48.low_left
Encoding: 134 63237 102
Width: 0
Flags: W
Fore
-78 926 m 1
 -144 685 l 1
 -195 685 l 1
 -159 926 l 1
 -78 926 l 1
EndSplineSet
EndChar
StartChar: uni0E49.low_left
Encoding: 135 63238 103
Width: 0
Flags: W
HStem: 776 35<-381 -368> 902 35<-355 -343>
Fore
-31 931 m 17
 -140 637 -429 667 -460 670 c 1
 -453 703 l 1
 -443 707 -382 734 -353 780 c 1
 -353 780 -363 776 -379 776 c 0
 -434 776 -453 816 -444 856 c 0
 -435 897 -400 937 -345 937 c 0
 -259 937 -273 857 -273 857 c 1
 -292 765 -364 716 -364 716 c 1
 -363 714 l 1
 -298 723 -156 766 -112 931 c 1
 -31 931 l 17
-370 811 m 0
 -340 811 -320 834 -315 856 c 0
 -310 879 -320 902 -350 902 c 0
 -381 902 -401 879 -406 856 c 0
 -411 834 -401 811 -370 811 c 0
EndSplineSet
EndChar
StartChar: uni0E4A.low_left
Encoding: 136 63239 104
Width: 0
Flags: W
HStem: 667 29<-408 -400> 770 30<-391 -378> 849 54<-369 -356>
Fore
-53 906 m 17
 -75 768 -164 684 -294 670 c 1
 -288 694 l 1
 -259 710 -239 744 -232 776 c 0
 -225 810 -233 842 -258 849 c 1
 -323 811 l 1
 -368 849 l 1
 -405 849 -442 806 -444 768 c 1
 -444 768 -428 800 -378 800 c 0
 -340 800 -318 770 -325 737 c 0
 -334 697 -363 667 -406 667 c 0
 -469 667 -497 720 -481 793 c 0
 -471 843 -409 903 -356 903 c 1
 -311 857 l 1
 -247 902 l 1
 -181 884 -171 839 -179 798 c 0
 -185 771 -199 745 -211 728 c 1
 -146 766 -116 834 -117 906 c 1
 -53 906 l 17
-357 733 m 0
 -352 758 -368 770 -386 770 c 0
 -405 770 -427 758 -432 733 c 0
 -438 708 -421 696 -402 696 c 0
 -384 696 -363 708 -357 733 c 0
EndSplineSet
EndChar
StartChar: uni0E4B.low_left
Encoding: 137 63240 105
Width: 0
Flags: W
HStem: 676 21G<-262 -205> 776 58<-345 -242 -168 -68>
Fore
-68 777 m 1
 -182 776 l 1
 -205 676 l 1
 -262 676 l 1
 -242 776 l 1
 -357 777 l 1
 -345 834 l 1
 -231 836 l 1
 -211 935 l 1
 -145 935 l 1
 -168 836 l 1
 -56 834 l 1
 -68 777 l 1
EndSplineSet
EndChar
StartChar: uni0E4C.low_left
Encoding: 138 63241 106
Width: 0
Flags: W
HStem: 670 33<-295 -277>
Fore
-23 954 m 1
 -59 846 -181 826 -226 816 c 1
 -198 811 -188 777 -194 748 c 0
 -203 707 -242 670 -291 670 c 0
 -340 670 -365 707 -356 748 c 0
 -348 786 -325 831 -216 860 c 0
 -164 876 -102 906 -92 968 c 1
 -23 954 l 1
-284 703 m 0
 -255 703 -236 724 -231 746 c 0
 -227 767 -237 788 -266 788 c 0
 -295 788 -314 767 -318 746 c 0
 -323 724 -313 703 -284 703 c 0
EndSplineSet
EndChar
StartChar: uni0E48.low
Encoding: 139 63242 107
Width: 0
Flags: W
HStem: 670 21G<-28 30>
AnchorPoint: "AboveBase" 31.1406 645.12 mark 0
Fore
99 914 m 1
 30 670 l 1
 -28 670 l 1
 7 914 l 1
 99 914 l 1
EndSplineSet
EndChar
StartChar: uni0E49.low
Encoding: 140 63243 108
Width: 0
Flags: W
HStem: 776 37<-144 -126> 919 36<-114 -102>
AnchorPoint: "AboveBase" 31.1406 645.12 mark 0
Fore
222 952 m 17
 124 636 -188 667 -222 670 c 1
 -214 705 l 1
 -205 708 -142 733 -112 780 c 1
 -112 780 l 1
 -112 780 -125 776 -142 776 c 0
 -203 776 -224 821 -215 866 c 0
 -206 910 -165 955 -104 955 c 0
 -9 955 -26 868 -26 866 c 0
 -47 765 -126 716 -126 716 c 1
 -124 716 l 1
 -124 716 84 722 141 952 c 1
 222 952 l 17
-134 813 m 0
 -98 813 -74 840 -69 866 c 0
 -63 892 -76 919 -112 919 c 0
 -147 919 -169 892 -175 866 c 0
 -180 840 -169 813 -134 813 c 0
EndSplineSet
EndChar
StartChar: uni0E4A.low
Encoding: 141 63244 109
Width: 0
Flags: W
HStem: 668 30<-215 -197> 782 32<-190 -179> 876 56<-166 -151>
AnchorPoint: "AboveBase" 31.1406 645.12 mark 0
Fore
205 926 m 17
 179 799 82 691 -81 670 c 1
 -74 699 l 1
 -40 717 -17 756 -10 792 c 0
 -1 831 -10 867 -38 876 c 1
 -112 831 l 1
 -118 836 -166 876 -166 876 c 1
 -206 876 -254 816 -251 777 c 1
 -250 777 l 1
 -250 777 -231 814 -179 814 c 0
 -139 814 -112 782 -120 745 c 0
 -129 702 -162 668 -210 668 c 0
 -280 668 -305 733 -289 809 c 0
 -278 862 -211 931 -151 932 c 1
 -149 931 -99 885 -99 883 c 1
 -29 932 l 1
 47 909 55 857 46 813 c 0
 37 773 14 739 14 739 c 1
 16 739 l 2
 73 770 132 852 129 926 c 1
 205 926 l 17
-155 739 m 0
 -149 768 -167 782 -188 782 c 0
 -208 782 -232 768 -238 739 c 0
 -244 712 -226 698 -206 698 c 0
 -185 698 -161 712 -155 739 c 0
EndSplineSet
EndChar
StartChar: uni0E4B.low
Encoding: 142 63245 110
Width: 0
Flags: W
HStem: 677 21G<-30 30> 777 62<-111 -10 68 166>
AnchorPoint: "AboveBase" 31.1406 645.12 mark 0
Fore
166 779 m 1
 53 777 l 1
 30 677 l 1
 -30 677 l 1
 -10 777 l 1
 -123 779 l 1
 -111 839 l 1
 2 840 l 1
 22 942 l 1
 91 942 l 1
 68 840 l 1
 178 839 l 1
 166 779 l 1
EndSplineSet
EndChar
StartChar: uni0E4C.low
Encoding: 143 63246 111
Width: 0
Flags: W
HStem: 668 39<-67 -55>
AnchorPoint: "AboveBase" 31.1406 645.12 mark 0
Fore
202 949 m 1
 156 851 42 835 0 825 c 1
 36 819 43 782 37 751 c 0
 27 707 -15 668 -65 668 c 0
 -124 668 -145 707 -135 754 c 0
 -126 793 -105 837 7 871 c 0
 63 888 112 917 134 971 c 1
 202 949 l 1
-57 707 m 0
 -29 707 -10 729 -6 750 c 0
 -1 772 -10 794 -38 794 c 0
 -69 794 -90 772 -95 750 c 0
 -99 729 -88 707 -57 707 c 0
EndSplineSet
EndChar
StartChar: uni0E0D.descless
Encoding: 144 63247 112
Width: 800
Flags: W
HStem: -8 37<538 560> 121 41<237 251> 392 44<190 212 190 350> 547 51<372 397>
Fore
716 104 m 2
 705 54 629 -8 540 -8 c 0
 454 -8 405 48 419 112 c 2
 482 407 l 2
 502 506 444 548 374 547 c 0
 304 547 221 504 190 436 c 1
 360 436 l 1
 350 392 l 1
 340 392 301 392 301 392 c 2
 257 392 248 343 247 341 c 2
 208 154 l 1
 224 159 239 162 251 162 c 0
 304 162 324 120 315 78 c 0
 306 37 269 -5 210 -8 c 0
 112 -12 110 69 118 109 c 2
 164 324 l 2
 175 375 212 392 212 392 c 1
 128 392 l 1
 161 527 288 599 397 598 c 0
 496 598 578 538 560 413 c 2
 493 101 l 2
 485 61 507 29 550 29 c 0
 594 29 630 60 638 100 c 2
 729 527 l 1
 789 585 l 2
 802 593 821 599 814 564 c 2
 716 104 l 2
219 32 m 0
 251 32 270 54 275 76 c 0
 280 99 270 121 238 121 c 0
 208 121 188 99 183 76 c 0
 178 54 189 32 219 32 c 0
EndSplineSet
EndChar
StartChar: quoteleft
Encoding: 145 8216 113
Width: 333
Flags: W
HStem: 456 21G<240.5 293.5>
Fore
354 524 m 0
 345 482 315 456 272 456 c 0
 209 456 195 515 206 565 c 0
 220 630 300 700 367 728 c 1
 375 700 l 1
 333 679 271 624 263 588 c 0
 262 582 260 578 266 578 c 0
 274 578 285 587 304 585 c 0
 338 584 362 561 354 524 c 0
EndSplineSet
EndChar
StartChar: quoteright
Encoding: 146 8217 114
Width: 333
Flags: W
Fore
229 659 m 0
 238 700 269 727 312 727 c 0
 375 727 388 668 377 617 c 0
 364 553 283 482 217 455 c 1
 208 482 l 1
 250 504 313 559 320 594 c 0
 322 601 324 605 318 605 c 0
 310 605 299 596 279 598 c 0
 245 599 221 622 229 659 c 0
EndSplineSet
EndChar
StartChar: quotedblleft
Encoding: 147 8220 115
Width: 473
Flags: W
HStem: 456 21G<179.5 232.5 426.5 479.5>
Fore
540 524 m 0
 531 482 501 456 458 456 c 0
 395 456 381 515 392 565 c 0
 406 630 485 700 553 728 c 1
 561 700 l 1
 519 679 457 624 449 588 c 0
 448 582 446 578 452 578 c 0
 459 578 471 587 490 585 c 0
 523 584 548 561 540 524 c 0
292 524 m 0
 283 482 254 456 211 456 c 0
 148 456 134 515 145 565 c 0
 159 630 238 700 306 728 c 1
 313 700 l 1
 271 679 210 624 202 588 c 0
 201 582 198 578 204 578 c 0
 212 578 223 587 242 585 c 0
 276 584 300 561 292 524 c 0
EndSplineSet
EndChar
StartChar: quotedblright
Encoding: 148 8221 116
Width: 473
Flags: W
Fore
183 659 m 0
 192 700 223 727 266 727 c 0
 329 727 342 668 331 617 c 0
 318 553 237 482 171 455 c 1
 162 482 l 1
 204 504 266 559 273 594 c 0
 275 601 278 605 272 605 c 0
 264 605 253 596 233 598 c 0
 199 599 175 622 183 659 c 0
430 659 m 0
 439 700 470 727 513 727 c 0
 576 727 589 668 578 617 c 0
 565 553 484 482 418 455 c 1
 409 482 l 1
 451 504 514 559 521 594 c 0
 523 601 525 605 519 605 c 0
 511 605 500 596 480 598 c 0
 446 599 422 622 430 659 c 0
EndSplineSet
EndChar
StartChar: bullet
Encoding: 149 8226 117
Width: 385
Flags: W
HStem: 430 20G<252 325>
Fore
391 319 m 0
 376 247 306 189 232 189 c 0
 161 189 116 247 131 319 c 0
 144 392 216 450 288 450 c 0
 362 450 406 392 391 319 c 0
EndSplineSet
EndChar
StartChar: endash
Encoding: 150 8211 118
Width: 768
Flags: W
HStem: 214 47<88 779>
Fore
779 214 m 1
 79 214 l 1
 89 261 l 1
 789 261 l 1
 779 214 l 1
EndSplineSet
EndChar
StartChar: emdash
Encoding: 151 8212 119
Width: 1536
Flags: W
HStem: 214 47<76 1559>
Fore
1559 214 m 1
 67 214 l 1
 77 261 l 1
 1569 261 l 1
 1559 214 l 1
EndSplineSet
EndChar
StartChar: uni0E31.left
Encoding: 152 63248 120
Width: 0
Flags: W
HStem: 677 52<-130 -96> 871 41<-226 -210>
Fore
259 908 m 17
 186 750 16 677 -121 677 c 0
 -262 677 -334 752 -318 826 c 0
 -309 871 -267 912 -210 912 c 1
 -161 915 -128 877 -139 822 c 0
 -151 767 -204 745 -204 745 c 1
 -172 734 -140 729 -109 729 c 0
 31 729 148 833 171 908 c 1
 259 908 l 17
-236 780 m 0
 -206 780 -187 803 -182 826 c 0
 -178 848 -187 871 -217 871 c 0
 -248 871 -268 848 -272 826 c 0
 -277 803 -267 780 -236 780 c 0
EndSplineSet
EndChar
StartChar: uni0E4D.left
Encoding: 153 63249 121
Width: 0
Flags: W
HStem: 676 41<-208 -196> 820 43<-178 -165>
Fore
-206 676 m 0
 -268 676 -290 723 -280 770 c 0
 -271 816 -229 863 -167 863 c 0
 -105 863 -84 816 -94 769 c 0
 -104 722 -143 676 -206 676 c 0
-198 717 m 0
 -164 717 -140 743 -135 768 c 0
 -129 794 -142 820 -176 820 c 0
 -212 820 -234 794 -240 768 c 0
 -245 743 -234 717 -198 717 c 0
EndSplineSet
EndChar
StartChar: uni0E47.left
Encoding: 154 63250 122
Width: 0
Flags: W
HStem: 668 40<-179 -169> 668 85<-393 -392.565> 745 55<-328 -322> 784 36<-160 -145>
Fore
-24 995 m 17x40
 -45 895 -106 837 -258 868 c 0
 -321 880 -366 882 -389 822 c 0
 -401 794 -399 763 -393 753 c 1x40
 -393 753 -374 800 -322 800 c 0x20
 -269 800 -257 746 -234 734 c 1
 -234 734 -236 740 -234 748 c 0
 -224 796 -183 820 -147 820 c 0x10
 -110 820 -78 795 -89 745 c 0
 -100 693 -145 668 -177 668 c 0
 -277 668 -275 745 -326 745 c 0xa0
 -378 745 -383 684 -373 668 c 1
 -409 668 l 1
 -444 702 -463 773 -428 846 c 0
 -409 891 -351 952 -231 923 c 0
 -152 905 -107 911 -95 995 c 1
 -24 995 l 17x40
-125 745 m 0xa0
 -119 771 -135 784 -154 784 c 0x10
 -173 784 -195 771 -201 745 c 0
 -206 720 -190 708 -171 708 c 0
 -152 708 -130 720 -125 745 c 0xa0
EndSplineSet
EndChar
StartChar: uni0E48.left
Encoding: 155 63251 123
Width: 0
Flags: W
Fore
-15 1226 m 1
 -75 1006 l 1
 -129 1006 l 1
 -94 1226 l 1
 -15 1226 l 1
EndSplineSet
EndChar
StartChar: uni0E49.left
Encoding: 156 63252 124
Width: 0
Flags: W
HStem: 1078 33<-148 -139> 1195 34<-129 -112>
Fore
184 1229 m 17
 120 1052 -45 975 -224 997 c 1
 -218 1026 l 1
 -190 1034 -156 1049 -132 1081 c 1
 -132 1081 -141 1078 -146 1078 c 0
 -199 1078 -217 1116 -209 1154 c 0
 -201 1191 -167 1229 -114 1229 c 0
 -35 1229 -50 1154 -50 1154 c 1
 -67 1072 -132 1035 -132 1035 c 1
 -133 1032 l 1
 -23 1038 72 1098 109 1229 c 1
 184 1229 l 17
-139 1111 m 0
 -111 1111 -92 1132 -88 1153 c 0
 -83 1174 -93 1195 -121 1195 c 0
 -151 1195 -170 1174 -175 1153 c 0
 -179 1132 -169 1111 -139 1111 c 0
EndSplineSet
EndChar
StartChar: uni0E4A.left
Encoding: 157 63253 125
Width: 0
Flags: W
HStem: 994 29<-173 -165> 1096 30<-156 -143> 1175 54<-134 -121>
Fore
181 1229 m 17
 160 1091 66 1012 -59 995 c 1
 -53 1020 l 1
 -24 1036 -4 1070 3 1101 c 0
 10 1135 2 1168 -22 1175 c 1
 -87 1137 l 1
 -132 1175 l 1
 -169 1175 -206 1132 -208 1094 c 1
 -208 1094 -193 1126 -143 1126 c 0
 -105 1126 -83 1095 -90 1063 c 0
 -99 1023 -128 994 -171 994 c 0
 -234 994 -262 1046 -246 1118 c 0
 -236 1169 -174 1229 -121 1229 c 1
 -121 1229 -75 1185 -76 1183 c 1
 -12 1229 l 1
 54 1211 65 1166 56 1124 c 0
 50 1097 37 1071 24 1054 c 1
 89 1092 119 1157 117 1229 c 1
 181 1229 l 17
-122 1058 m 0
 -117 1084 -133 1096 -151 1096 c 0
 -170 1096 -192 1084 -197 1058 c 0
 -202 1034 -186 1023 -167 1023 c 0
 -149 1023 -127 1034 -122 1058 c 0
EndSplineSet
EndChar
StartChar: uni0E4B.left
Encoding: 158 63254 126
Width: 0
Flags: W
HStem: 1080 58<-210 -114 -41 50>
Fore
50 1081 m 1
 -54 1080 l 1
 -75 992 l 1
 -132 992 l 1
 -114 1080 l 1
 -222 1081 l 1
 -210 1138 l 1
 -104 1140 l 1
 -86 1229 l 1
 -20 1229 l 1
 -41 1140 l 1
 62 1138 l 1
 50 1081 l 1
EndSplineSet
EndChar
StartChar: uni0E4C.left
Encoding: 159 63255 127
Width: 0
Flags: W
HStem: 923 29<-121 -112>
Fore
147 1164 m 17
 103 1085 5 1069 -56 1060 c 1
 -31 1048 -24 1023 -29 997 c 0
 -37 960 -71 923 -119 923 c 0
 -168 923 -190 954 -181 997 c 0
 -168 1057 -114 1091 -41 1103 c 0
 -14 1107 76 1140 91 1193 c 1
 147 1164 l 17
-114 952 m 0
 -86 952 -67 973 -63 994 c 0
 -58 1014 -68 1035 -96 1035 c 0
 -124 1035 -142 1014 -147 994 c 0
 -151 973 -142 952 -114 952 c 0
EndSplineSet
EndChar
StartChar: uni0E01
Encoding: 161 3585 129
Width: 602
Flags: W
HStem: 0 21G<95 175 422 499> 392 44<190 350> 550 49<386 412>
Fore
499 0 m 1
 422 0 l 1
 509 407 l 2
 530 506 466 550 388 550 c 0
 313 550 226 508 190 436 c 1
 360 436 l 1
 350 392 l 1
 340 392 301 392 301 392 c 2
 258 392 248 343 247 341 c 2
 175 0 l 1
 95 0 l 1
 164 324 l 2
 174 373 212 392 212 392 c 1
 128 392 l 1
 157 528 295 600 412 599 c 0
 517 597 606 538 587 413 c 1
 499 0 l 1
EndSplineSet
EndChar
StartChar: uni0E02
Encoding: 162 3586 130
Width: 585
Flags: W
HStem: -8 43<356 375> 319 33<189 198> 438 34<212 223> 547 51<276 297>
Fore
505 106 m 18
 491 40 437 -8 357 -8 c 0
 285 -8 244 41 258 106 c 2
 331 453 l 2
 342 505 325 547 276 547 c 0
 224 547 181 513 167 453 c 1
 188 468 198 472 221 472 c 0
 273 471 291 433 283 396 c 0
 275 357 240 319 191 319 c 0
 111 319 110 407 127 468 c 0
 149 539 210 598 297 598 c 0
 390 598 428 531 410 449 c 2
 332 78 l 2
 327 57 340 35 366 35 c 0
 391 35 416 58 420 77 c 2
 517 530 l 1
 578 588 l 2
 591 596 610 602 603 567 c 2
 505 106 l 18
196 352 m 0
 225 352 243 374 248 395 c 0
 252 416 243 438 214 438 c 0
 186 438 167 416 163 395 c 0
 158 374 168 352 196 352 c 0
EndSplineSet
EndChar
StartChar: uni0E03
Encoding: 163 3587 131
Width: 634
Flags: W
HStem: -8 43<403 424> 280 32<173 185> 399 34<198 211>
Fore
553 106 m 2
 539 40 485 -8 405 -8 c 0
 333 -8 293 45 306 106 c 2
 381 461 l 2
 388 495 389 524 368 524 c 1
 280 452 l 1
 225 524 l 1
 194 524 162 482 156 413 c 1
 156 413 173 433 209 433 c 0
 261 433 278 395 270 357 c 0
 262 319 228 280 175 280 c 0
 88 280 94 390 122 470 c 0
 148 545 197 581 240 593 c 1
 293 515 l 1
 384 591 l 1
 449 587 476 536 460 461 c 2
 379 78 l 2
 374 57 385 35 414 35 c 0
 442 35 464 58 468 77 c 2
 565 530 l 1
 626 588 l 2
 638 596 658 602 651 567 c 2
 553 106 l 2
183 312 m 0
 213 312 233 334 238 356 c 0
 242 377 232 399 202 399 c 0
 173 399 154 378 150 356 c 0
 145 334 155 312 183 312 c 0
EndSplineSet
EndChar
StartChar: uni0E04
Encoding: 164 3588 132
Width: 589
Flags: W
HStem: 0 21G<101 180 412 488> 273 36<308 323> 407 37<340 348> 553 46<356 390>
Fore
321 309 m 0
 321 309 l 0
 355 309 377 334 382 358 c 0
 387 382 376 407 342 407 c 0
 309 407 287 382 282 358 c 0
 277 334 288 309 321 309 c 0
192 321 m 1
 215 376 263 444 346 444 c 0
 404 444 425 402 416 359 c 0
 407 316 368 273 308 273 c 0
 270 273 254 301 254 301 c 1
 241 280 232 246 229 229 c 2
 180 0 l 1
 101 0 l 1
 149 224 l 2
 158 266 101 310 123 413 c 0
 145 519 256 599 374 599 c 0
 499 599 606 554 573 401 c 2
 488 0 l 1
 412 0 l 1
 497 401 l 2
 523 521 454 553 364 553 c 0
 267 553 183 479 169 413 c 0
 159 369 166 335 192 321 c 1
EndSplineSet
EndChar
StartChar: uni0E05
Encoding: 165 3589 133
Width: 588
Flags: W
HStem: 0 21G<101 180 410 487> 273 36<308 323> 407 37<340 348>
Fore
487 0 m 1
 410 0 l 1
 495 399 l 2
 507 458 520 504 461 538 c 1
 357 468 l 1
 280 538 l 1
 243 528 185 479 171 413 c 0
 161 366 171 335 194 321 c 1
 221 390 263 444 346 444 c 4
 404 444 425 402 416 359 c 0
 407 316 368 273 308 273 c 4
 273 273 258 295 258 295 c 1
 245 287 237 267 231 240 c 2
 180 0 l 1
 101 0 l 1
 150 229 l 2
 159 272 102 316 123 413 c 0
 148 530 250 581 296 594 c 1
 369 524 l 1
 470 594 l 1
 506 588 604 551 572 399 c 2
 487 0 l 1
321 309 m 4
 355 309 377 334 382 358 c 0
 387 382 376 407 342 407 c 4
 309 407 287 382 282 358 c 0
 277 334 288 309 321 309 c 4
EndSplineSet
EndChar
StartChar: uni0E06
Encoding: 166 3590 134
Width: 757
Flags: W
HStem: -8 206<282 329> 280 32<178 189> 399 34<199 215>
Fore
249 90 m 0
 237 34 294 34 301 68 c 2
 318 144 l 1
 279 147 255 118 249 90 c 0
385 461 m 2
 392 495 394 524 372 524 c 1
 285 452 l 1
 229 524 l 1
 199 524 167 482 160 413 c 1
 160 413 178 433 213 433 c 0
 265 433 283 395 275 357 c 0
 267 319 232 280 180 280 c 0
 92 280 98 390 126 470 c 0
 153 545 201 581 244 593 c 1
 298 515 l 1
 389 591 l 1
 454 587 481 536 465 461 c 2
 407 190 l 1
 407 190 535 170 590 77 c 1
 686 527 l 1
 748 585 l 2
 759 593 780 599 771 564 c 2
 771 564 661 45 651 0 c 1
 570 0 l 1
 520 134 399 141 399 141 c 1
 382 57 368 -8 282 -8 c 0
 214 -8 193 41 204 92 c 0
 215 145 262 199 329 198 c 1
 385 461 l 2
187 312 m 0
 217 312 237 334 242 356 c 0
 246 377 236 399 206 399 c 0
 177 399 159 378 155 356 c 0
 150 334 159 312 187 312 c 0
EndSplineSet
EndChar
StartChar: uni0E07
Encoding: 167 3591 135
Width: 479
Flags: W
HStem: 0 21G<295 378> 418 37<342 360> 556 38<371 390>
Fore
378 0 m 1
 295 0 l 1
 103 269 l 1
 117 326 l 1
 319 98 l 1
 390 432 l 1
 376 419 359 418 346 418 c 0
 284 418 261 461 270 504 c 0
 280 549 323 594 390 594 c 0
 512 594 484 501 482 488 c 2
 378 0 l 1
350 455 m 0
 385 455 408 480 414 506 c 0
 419 531 406 556 371 556 c 0
 336 556 314 531 309 506 c 0
 303 480 315 455 350 455 c 0
EndSplineSet
EndChar
StartChar: uni0E08
Encoding: 168 3592 136
Width: 565
Flags: W
HStem: -5 43<336 353> 276 40<234 247> 406 41<263 279> 544 54<351 372>
Fore
485 109 m 2
 471 43 417 -5 337 -5 c 0
 271 -5 225 48 238 109 c 2
 276 286 l 1
 263 280 251 276 237 276 c 0
 182 276 160 321 172 367 c 0
 185 413 226 447 279 447 c 0
 364 449 378 402 368 355 c 2
 310 81 l 2
 306 60 318 38 346 38 c 0
 375 38 395 61 399 80 c 2
 471 419 l 2
 487 495 440 544 359 544 c 0
 250 544 174 464 158 439 c 1
 128 453 l 1
 162 508 258 598 370 598 c 0
 502 598 575 533 550 413 c 2
 485 109 l 2
245 316 m 0
 275 316 295 338 300 361 c 0
 305 384 294 406 264 406 c 0
 234 406 215 384 210 361 c 0
 205 338 215 316 245 316 c 0
EndSplineSet
EndChar
StartChar: uni0E09
Encoding: 169 3593 137
Width: 615
Flags: W
HStem: -8 40<463 476> 233 39<185 197> 364 40<214 236> 544 54<386 409>
Fore
465 -8 m 0
 416 -8 391 34 400 76 c 0
 406 105 428 127 428 127 c 1
 315 106 260 14 252 0 c 1
 177 0 l 1
 228 240 l 1
 212 235 199 233 187 233 c 0
 131 233 110 277 119 320 c 0
 132 383 188 404 236 404 c 0
 316 404 329 357 315 292 c 2
 272 91 l 1
 279 89 l 1
 279 89 335 166 469 172 c 1
 520 415 l 2
 536 490 482 544 386 544 c 0
 280 544 191 464 173 439 c 1
 144 453 l 1
 213 551 318 596 409 598 c 0
 527 600 623 532 598 416 c 2
 548 181 l 2
 546 169 530 164 530 164 c 1
 529 161 l 1
 565 152 578 115 571 78 c 0
 561 35 525 -8 465 -8 c 0
195 272 m 0
 195 272 l 0
 225 272 245 295 250 318 c 0
 254 341 244 364 214 364 c 0
 184 364 164 341 160 318 c 0
 155 295 165 272 195 272 c 0
474 32 m 0
 505 32 525 54 530 76 c 0
 535 99 524 121 493 121 c 0
 463 121 443 99 438 76 c 0
 433 54 444 32 474 32 c 0
EndSplineSet
EndChar
StartChar: uni0E0A
Encoding: 170 3594 138
Width: 583
Flags: W
HStem: 0 49<178 371> 319 33<189 198> 438 34<210 223> 547 49<268 294>
Fore
664 591 m 17
 599 447 488 421 488 421 c 1
 606 387 528 -2 369 0 c 2
 169 0 l 1
 179 49 l 1
 243 49 l 1
 329 453 l 2
 340 502 330 547 268 547 c 0
 211 547 170 493 167 450 c 1
 182 467 201 472 223 472 c 0
 273 470 289 433 281 395 c 0
 273 357 240 319 191 319 c 0
 117 319 104 393 125 465 c 0
 147 539 208 596 294 596 c 0
 443 596 409 450 409 450 c 1
 501 445 563 531 578 591 c 1
 664 591 l 17
196 352 m 0
 196 352 l 0
 224 352 242 374 247 395 c 0
 251 416 242 438 214 438 c 0
 184 438 164 416 160 395 c 0
 155 374 166 352 196 352 c 0
449 387 m 0
 434 396 414 399 398 398 c 1
 323 49 l 1
 365 49 l 2
 451 49 520 345 449 387 c 0
EndSplineSet
EndChar
StartChar: uni0E0B
Encoding: 171 3595 139
Width: 649
Flags: W
HStem: 0 49<232 423> 280 32<178 189> 399 34<202 215>
Fore
503 386 m 0
 486 395 471 399 451 399 c 1
 376 49 l 1
 417 49 l 2
 501 51 567 333 503 386 c 0
384 461 m 2
 391 495 394 524 372 524 c 1
 285 452 l 1
 229 524 l 1
 199 524 167 482 160 413 c 1
 160 413 178 433 213 433 c 0
 265 433 283 395 275 357 c 0
 267 319 232 280 180 280 c 0
 92 280 98 390 126 470 c 0
 153 545 201 581 244 593 c 1
 298 515 l 1
 389 591 l 1
 454 587 480 536 464 461 c 2
 462 450 l 1
 558 445 615 531 630 591 c 1
 716 591 l 1
 659 456 542 422 542 422 c 1
 655 379 581 -2 421 0 c 2
 223 0 l 1
 233 49 l 1
 296 49 l 1
 384 461 l 2
187 312 m 0
 217 312 237 334 242 356 c 0
 246 377 236 399 206 399 c 0
 177 399 159 378 155 356 c 0
 150 334 159 312 187 312 c 0
EndSplineSet
EndChar
StartChar: uni0E0C
Encoding: 172 3596 140
Width: 815
Flags: W
HStem: -8 39<194 212> 121 37<223 239> 392 44<190 212 190 351> 550 49<386 413>
Fore
710 0 m 9
 631 0 l 17
 634 111 525 120 525 120 c 1
 510 52 491 -8 416 -8 c 0
 358 -8 340 35 350 78 c 0
 359 122 399 168 457 166 c 1
 509 407 l 2
 529 507 466 550 389 550 c 0
 314 550 226 508 190 436 c 1
 360 436 l 1
 350 392 l 1
 340 392 301 392 301 392 c 2
 257 392 248 343 247 341 c 2
 208 154 l 1
 219 157 230 158 239 158 c 0
 290 158 309 116 300 74 c 0
 291 33 255 -8 196 -8 c 0
 115 -8 110 69 118 109 c 2
 164 324 l 2
 175 375 212 392 212 392 c 1
 128 392 l 1
 158 528 296 600 413 599 c 0
 518 597 606 537 587 413 c 1
 534 163 l 1
 534 163 628 149 653 94 c 1
 745 527 l 1
 804 585 l 2
 817 593 837 599 830 564 c 2
 830 564 720 45 710 0 c 9
386 78 m 0
 375 30 426 18 435 61 c 2
 449 126 l 1
 416 129 391 104 386 78 c 0
204 31 m 0
 235 31 255 54 260 76 c 0
 265 98 254 121 223 121 c 0
 193 121 173 98 168 76 c 0
 163 54 174 31 204 31 c 0
EndSplineSet
EndChar
StartChar: uni0E0D
Encoding: 173 3597 141
Width: 800
Flags: W
HStem: -230 32<473 499> -8 37<538 560> 121 41<237 251> 392 44<190 212 190 350> 547 51<372 397>
Fore
716 104 m 2
 705 54 629 -8 540 -8 c 0
 454 -8 405 48 419 112 c 2
 482 407 l 2
 502 506 444 548 374 547 c 0
 304 547 221 504 190 436 c 1
 360 436 l 1
 350 392 l 1
 340 392 301 392 301 392 c 2
 257 392 248 343 247 341 c 2
 208 154 l 1
 224 159 239 162 251 162 c 0
 304 162 324 120 315 78 c 0
 306 37 269 -5 210 -8 c 0
 112 -12 110 69 118 109 c 2
 164 324 l 2
 175 375 212 392 212 392 c 1
 128 392 l 1
 161 527 288 599 397 598 c 0
 496 598 578 538 560 413 c 2
 493 101 l 2
 485 61 507 29 550 29 c 0
 594 29 630 60 638 100 c 2
 729 527 l 1
 789 585 l 2
 802 593 821 599 814 564 c 2
 716 104 l 2
671 -108 m 2
 661 -155 604 -230 484 -230 c 0
 366 -230 369 -140 377 -112 c 0
 384 -84 411 -38 474 -38 c 0
 516 -38 533 -68 524 -108 c 0
 517 -140 482 -169 446 -169 c 0
 429 -169 420 -163 412 -157 c 1
 420 -180 445 -198 491 -198 c 0
 545 -198 592 -152 601 -106 c 2
 613 -52 l 1
 683 -52 l 1
 671 -108 l 2
219 32 m 0
 251 32 270 54 275 76 c 0
 280 99 270 121 238 121 c 0
 208 121 188 99 183 76 c 0
 178 54 189 32 219 32 c 0
496 -103 m 0
 507 -54 431 -54 420 -103 c 0
 409 -154 485 -154 496 -103 c 0
EndSplineSet
Substitution: 0 65534 'ndsc' uni0E0D.descless
Substitution: 0 65534 'nds0' uni0E0D.descless
EndChar
StartChar: uni0E0E
Encoding: 174 3598 142
Width: 612
Flags: W
HStem: -212 43<133 150> -83 43<169 189> -8 40<96 109> 121 42<124 137> 392 44<199 361> 550 49<396 418>
AnchorPoint: "BelowBase" 457.714 -245.76 basechar 0
Fore
459 -241 m 1
 381 -241 l 0
 381 -217 343 -141 280 -111 c 1
 280 -111 227 -212 139 -212 c 0
 81 -212 42 -183 54 -126 c 0
 64 -78 119 -40 187 -40 c 0
 210 -40 236 -44 261 -55 c 1
 261 -55 288 -3 329 12 c 1
 361 -5 l 1
 314 -34 300 -69 300 -69 c 1
 374 -97 398 -160 398 -160 c 1
 519 407 l 2
 540 506 476 550 398 550 c 0
 323 550 235 509 199 436 c 1
 371 436 l 1
 361 392 l 1
 313 392 l 2
 266 392 257 343 256 341 c 2
 201 80 l 2
 189 25 145 -8 98 -8 c 0
 42 -8 23 35 32 77 c 0
 42 120 79 163 135 163 c 0
 141 163 l 1
 177 332 l 2
 186 378 221 392 221 392 c 1
 137 392 l 1
 171 531 303 599 418 599 c 0
 529 599 624 535 597 407 c 2
 459 -241 l 1
107 32 m 0
 137 32 156 54 161 76 c 0
 166 99 156 121 126 121 c 0
 96 121 76 99 71 76 c 0
 66 54 77 32 107 32 c 0
243 -95 m 1
 219 -86 192 -83 171 -83 c 0
 139 -83 106 -94 99 -126 c 0
 91 -163 125 -169 148 -169 c 0
 196 -169 229 -121 243 -95 c 1
EndSplineSet
EndChar
StartChar: uni0E0F
Encoding: 175 3599 143
Width: 612
Flags: W
HStem: -163 48<310 325> -111 43<54 69> -8 40<96 113> 121 42<124 137> 392 44<199 223 199 362> 550 49<396 418>
AnchorPoint: "BelowBase" 457.714 -245.76 basechar 0
Fore
107 32 m 0
 137 32 156 54 161 76 c 0
 166 99 156 121 126 121 c 0
 96 121 76 99 71 76 c 0
 66 54 77 32 107 32 c 0
110 -129 m 1
 93 -117 74 -111 57 -111 c 0
 7 -111 -7 -135 -11 -154 c 0
 -15 -174 -8 -201 35 -198 c 0
 68 -195 86 -164 110 -129 c 1
136 -89 m 1
 156 -63 180 -40 217 -26 c 1
 241 -54 l 1
 209 -66 185 -89 168 -115 c 1
 189 -137 205 -164 209 -187 c 1
 239 -139 285 -115 325 -115 c 0
 355 -115 382 -128 399 -155 c 1
 519 407 l 2
 540 506 476 550 398 550 c 0
 323 550 235 509 199 436 c 1
 371 436 l 1
 361 392 l 1
 313 392 l 2
 266 392 257 343 256 341 c 2
 201 80 l 2
 189 25 145 -8 98 -8 c 0
 42 -8 22 35 32 78 c 0
 41 121 78 163 135 163 c 0
 141 163 l 1
 177 332 l 2
 187 381 223 392 223 392 c 1
 137 392 l 1
 171 531 303 599 418 599 c 0
 529 599 624 535 597 407 c 2
 459 -241 l 1
 385 -241 l 1
 377 -189 348 -163 314 -163 c 0
 281 -163 244 -189 219 -240 c 1
 173 -240 l 1
 175 -210 160 -180 139 -157 c 1
 110 -197 82 -233 27 -240 c 0
 -51 -247 -62 -186 -55 -155 c 0
 -42 -95 14 -68 67 -68 c 0
 92 -68 115 -75 136 -89 c 1
EndSplineSet
EndChar
StartChar: uni0E10
Encoding: 176 3600 144
Width: 508
Flags: W
HStem: -276 53<168 296> -233 35<29 42> -186 29<270 286> -83 37<280 294> -8 43<290 301> 190 39<177 189> 319 39<199 216>
Fore
574 575 m 0x3e
 518 465 414 494 396 500 c 0
 341 520 300 530 269 530 c 0
 229 529 205 512 182 476 c 1
 444 405 l 2
 459 401 490 392 478 332 c 2
 430 106 l 2
 416 41 368 -8 290 -8 c 0
 225 -8 188 45 201 106 c 2
 220 198 l 1
 207 192 194 190 178 190 c 0
 124 190 101 232 114 280 c 0
 127 324 165 358 214 358 c 0
 294 359 321 319 310 270 c 2
 270 78 l 2
 265 58 273 35 299 35 c 0
 325 35 342 58 346 77 c 2
 398 321 l 2
 405 353 402 368 380 374 c 2
 122 443 l 1
 142 482 202 602 311 598 c 0
 366 596 439 563 498 563 c 0
 523 563 545 569 563 586 c 0
 573 595 582 591 574 575 c 0x3e
361 -218 m 1
 361 -218 l 0
 355 -243 337 -276 296 -276 c 2
 115 -276 l 1xbe
 126 -226 l 2
 132 -198 133 -175 117 -149 c 1
 117 -161 102 -233 30 -233 c 0x7e
 -2 -233 -20 -214 -23 -178 c 0
 -23 -134 24 -81 93 -97 c 1
 93 -97 97 -72 111 -57 c 1
 145 -61 l 1
 124 -81 128 -111 128 -111 c 1
 188 -135 168 -223 168 -223 c 1
 251 -223 l 2xbe
 262 -223 280 -215 283 -201 c 2
 286 -186 l 1
 283 -186 274 -194 252 -192 c 0
 211 -188 197 -154 204 -120 c 0
 212 -83 244 -46 292 -46 c 0
 293 -46 l 0
 354 -46 385 -75 379 -131 c 1
 361 -218 l 1
187 229 m 0
 217 229 237 252 241 274 c 0
 246 296 236 319 206 319 c 0
 177 319 157 296 152 274 c 0
 148 252 158 229 187 229 c 0
270 -157 m 0
 293 -157 309 -138 312 -120 c 0
 316 -102 308 -83 285 -83 c 0
 260 -83 243 -102 239 -120 c 0
 236 -138 245 -157 270 -157 c 0
86 -132 m 1
 86 -132 65 -127 50 -127 c 0
 29 -129 14 -146 10 -163 c 0
 7 -181 15 -198 38 -198 c 0x7e
 61 -198 85 -170 86 -132 c 1
EndSplineSet
KernsSLIFO: 180 46 1 0 183 46 1 0 182 46 1 0 181 46 1 0
Substitution: 0 65534 'ndsc' uni0E10.descless
Substitution: 0 65534 'nds0' uni0E10.descless
EndChar
StartChar: uni0E11
Encoding: 177 3601 145
Width: 780
Flags: W
HStem: 0 21G<287 362 596 674> 280 32<178 189> 399 34<202 215> 531 62<659 688>
Fore
385 461 m 2
 392 495 394 524 372 524 c 1
 285 452 l 1
 229 524 l 1
 199 524 167 482 160 413 c 1
 160 413 178 433 213 433 c 0
 265 433 283 395 275 357 c 0
 267 319 232 280 180 280 c 0
 92 280 98 390 126 470 c 0
 153 545 201 581 244 593 c 1
 298 515 l 1
 389 591 l 1
 454 587 481 536 465 461 c 2
 406 184 l 1
 556 498 l 2
 583 563 639 593 688 593 c 0
 750 593 791 550 773 464 c 2
 674 0 l 1
 596 0 l 1
 695 468 l 2
 706 518 685 531 659 531 c 0
 634 531 603 514 586 482 c 2
 362 0 l 1
 287 0 l 1
 385 461 l 2
187 312 m 0
 217 312 237 334 242 356 c 0
 246 377 236 399 206 399 c 0
 177 399 159 378 155 356 c 0
 150 334 159 312 187 312 c 0
EndSplineSet
EndChar
StartChar: uni0E12
Encoding: 178 3602 146
Width: 801
Flags: W
HStem: 0 21G<101 180 614 694> 257 36<298 309> 395 40<331 341>
Fore
309 293 m 0
 344 293 367 318 372 344 c 0
 378 370 366 395 331 395 c 0
 299 395 278 370 272 344 c 0
 267 318 277 293 309 293 c 0
379 86 m 0
 369 38 413 32 419 63 c 2
 438 151 l 1
 410 152 386 117 379 86 c 0
491 401 m 2
 508 482 504 515 463 538 c 1
 359 468 l 1
 281 538 l 1
 236 519 185 475 166 384 c 0
 160 359 167 301 179 272 c 1
 207 192 197 175 199 166 c 1
 223 200 321 257 307 257 c 0
 245 257 223 298 234 346 c 0
 236 358 261 433 339 435 c 0
 396 435 432 399 420 344 c 0
 416 325 407 305 392 283 c 0
 337 206 225 169 198 86 c 1
 180 0 l 1
 101 0 l 1
 121 94 l 2
 148 220 100 298 119 384 c 0
 150 531 246 578 298 594 c 1
 371 524 l 1
 472 594 l 1
 523 582 600 547 568 396 c 2
 525 194 l 1
 525 194 618 158 635 88 c 1
 729 530 l 1
 792 588 l 2
 804 596 822 602 815 567 c 2
 815 567 704 45 694 0 c 1
 614 0 l 1
 619 58 559 131 516 151 c 1
 511 127 501 81 501 81 c 2
 491 32 468 -8 400 -8 c 0
 338 -8 319 39 330 88 c 0
 340 139 384 193 448 197 c 1
 491 401 l 2
EndSplineSet
EndChar
StartChar: uni0E13
Encoding: 179 3603 147
Width: 800
Flags: W
HStem: -8 40<652 665> 121 41<236 250> 392 44<190 214 190 350> 547 51<375 398>
Fore
732 181 m 2
 730 169 716 160 716 160 c 1
 752 151 763 114 755 77 c 0
 746 35 711 -8 654 -8 c 0
 611 -8 587 15 585 52 c 0
 582 94 618 132 618 132 c 1
 530 118 482 18 473 0 c 1
 392 0 l 1
 479 410 l 2
 500 507 444 547 375 547 c 0
 304 547 219 504 190 436 c 1
 360 436 l 1
 350 392 l 1
 340 392 301 392 301 392 c 2
 257 392 247 338 246 335 c 2
 208 155 l 1
 224 160 238 162 250 162 c 0
 303 162 324 120 315 78 c 0
 306 37 269 -5 210 -8 c 0
 112 -12 110 69 118 109 c 2
 164 326 l 2
 175 376 214 392 214 392 c 1
 128 392 l 1
 160 525 289 598 398 598 c 0
 496 598 579 540 560 416 c 1
 493 101 l 1
 493 101 553 177 652 169 c 1
 729 530 l 1
 790 588 l 2
 803 596 822 602 815 567 c 2
 732 181 l 2
663 32 m 0
 693 32 712 54 717 76 c 0
 722 99 712 121 682 121 c 0
 651 121 631 99 626 76 c 0
 621 54 632 32 663 32 c 0
219 32 m 0
 251 32 270 54 275 76 c 0
 280 99 270 121 238 121 c 0
 208 121 188 99 183 76 c 0
 178 54 189 32 219 32 c 0
EndSplineSet
KernsSLIFO: 180 -46 1 0 183 -46 1 0 182 -46 1 0 181 -46 1 0
EndChar
StartChar: uni0E14
Encoding: 180 3604 148
Width: 609
Flags: W
HStem: 0 21G<114 190 430 507> 273 36<329 335> 409 40<356 366> 551 47<385 403>
Fore
507 0 m 1
 430 0 l 1
 514 396 l 2
 531 476 504 551 387 551 c 0
 327 551 208 516 180 384 c 0
 163 307 215 244 213 166 c 1
 237 203 344 273 331 273 c 0
 247 272 253 343 257 361 c 0
 260 378 284 447 364 449 c 0
 419 450 454 413 442 358 c 0
 438 339 429 318 413 296 c 0
 360 220 237 169 208 86 c 1
 190 0 l 1
 114 0 l 1
 134 94 l 2
 161 220 114 298 133 384 c 0
 164 533 305 598 397 598 c 0
 436 598 633 594 591 396 c 2
 507 0 l 1
335 309 m 0
 368 309 390 334 395 359 c 0
 401 384 389 409 356 409 c 0
 321 409 299 384 293 359 c 0
 288 334 300 309 335 309 c 0
EndSplineSet
EndChar
StartChar: uni0E15
Encoding: 181 3605 149
Width: 609
Flags: W
HStem: 0 21G<114 190 430 507> 258 35<314 323> 395 40<345 355>
Fore
507 0 m 1
 430 0 l 1
 518 416 l 2
 535 496 518 515 481 538 c 1
 377 468 l 1
 300 538 l 1
 263 528 199 475 180 384 c 0
 174 359 179 301 192 272 c 0
 221 192 215 166 220 174 c 1
 241 203 328 258 316 258 c 1
 236 258 238 326 243 347 c 0
 248 370 275 433 353 435 c 0
 407 435 443 399 431 343 c 0
 427 325 418 305 403 283 c 0
 350 206 234 157 206 74 c 1
 190 0 l 1
 114 0 l 1
 134 94 l 2
 161 220 114 298 133 384 c 0
 163 527 259 574 316 594 c 1
 389 524 l 1
 490 594 l 1
 540 584 622 542 591 396 c 2
 507 0 l 1
323 293 m 0
 357 293 380 318 385 344 c 0
 391 370 379 395 345 395 c 0
 312 395 290 370 284 344 c 0
 279 318 290 293 323 293 c 0
EndSplineSet
EndChar
StartChar: uni0E16
Encoding: 182 3606 150
Width: 602
Flags: W
HStem: 0 21G<421 498> 121 41<236 249> 392 44<188 210 188 349> 550 49<385 410>
Fore
498 0 m 1
 421 0 l 1
 508 410 l 2
 528 508 466 550 390 550 c 0
 313 551 222 508 188 436 c 1
 359 436 l 1
 349 392 l 1
 338 392 300 392 300 392 c 2
 255 392 246 337 245 335 c 2
 207 155 l 1
 223 160 237 162 249 162 c 0
 303 162 323 121 314 79 c 0
 305 37 268 -5 210 -8 c 0
 111 -12 109 69 117 109 c 2
 163 326 l 2
 174 375 210 392 210 392 c 1
 126 392 l 1
 156 527 291 599 408 599 c 0
 514 599 605 540 586 416 c 1
 498 0 l 1
219 32 m 0
 249 32 269 54 274 76 c 0
 279 99 268 121 238 121 c 0
 208 121 187 99 182 76 c 0
 177 54 189 32 219 32 c 0
EndSplineSet
EndChar
StartChar: uni0E17
Encoding: 183 3607 151
Width: 655
Flags: W
HStem: 0 21G<166 238 475 551> 418 37<211 222> 556 38<240 257>
Fore
551 0 m 1
 475 0 l 1
 575 472 l 2
 584 515 566 533 540 534 c 0
 514 535 482 518 464 485 c 2
 238 0 l 1
 166 0 l 1
 256 425 l 1
 243 418 226 418 213 418 c 0
 154 418 133 461 142 505 c 0
 152 549 192 594 257 594 c 0
 376 594 350 502 348 492 c 2
 281 177 l 1
 433 501 l 2
 464 566 521 596 569 596 c 0
 629 596 669 557 650 467 c 2
 551 0 l 1
220 455 m 0
 253 455 275 480 281 506 c 0
 286 531 274 556 241 556 c 0
 206 556 184 531 179 506 c 0
 173 480 185 455 220 455 c 0
EndSplineSet
EndChar
StartChar: uni0E18
Encoding: 184 3608 152
Width: 508
Flags: W
HStem: 0 45<61 306> 530 68<269 311>
Fore
398 321 m 2
 405 353 402 368 380 374 c 2
 122 443 l 1
 142 482 202 602 311 598 c 0
 359 598 434 564 495 564 c 0
 521 564 544 570 563 586 c 0
 573 595 582 591 574 575 c 0
 518 465 414 494 396 500 c 0
 340 520 300 530 269 530 c 0
 228 529 205 512 182 476 c 1
 444 405 l 2
 459 401 490 392 478 332 c 2
 430 108 l 2
 414 35 370 0 306 0 c 2
 52 0 l 1
 62 45 l 1
 107 45 l 1
 174 364 l 1
 252 364 l 1
 185 45 l 1
 260 45 l 2
 314 45 344 66 354 114 c 2
 398 321 l 2
EndSplineSet
EndChar
StartChar: uni0E19
Encoding: 185 3609 153
Width: 663
Flags: W
HStem: -8 40<500 513> -8 180<500 505> 418 38<212 220> 558 40<239 256>
Fore
587 186 m 2x70
 584 172 565 163 565 163 c 1
 643 138 608 -8 500 -8 c 0xb0
 460 -8 436 15 433 54 c 0
 430 97 464 131 464 131 c 1
 331 132 249 15 238 0 c 1
 166 0 l 1
 257 427 l 1
 243 418 226 418 212 418 c 0
 152 416 131 462 141 507 c 0
 150 552 192 598 256 598 c 0
 377 598 350 504 348 493 c 2
 259 77 l 1
 259 77 330 175 505 172 c 1
 581 531 l 1
 644 591 l 2
 654 598 676 605 668 568 c 2
 587 186 l 2x70
218 456 m 0
 252 456 274 482 280 507 c 0
 285 532 274 558 240 558 c 0
 205 558 182 532 177 507 c 0
 171 482 183 456 218 456 c 0
511 32 m 0
 574 32 593 121 530 121 c 0
 470 121 451 32 511 32 c 0
EndSplineSet
KernsSLIFO: 180 -46 1 0 183 -46 1 0 182 -46 1 0 181 -46 1 0
EndChar
StartChar: uni0E1A
Encoding: 186 3610 154
Width: 649
Flags: W
HStem: 0 45<120 441> 418 38<206 224> 558 38<240 258>
Fore
568 106 m 2
 559 64 522 0 441 0 c 2
 111 0 l 1
 121 45 l 1
 176 45 l 1
 256 425 l 1
 247 421 226 418 213 418 c 0
 151 418 128 461 137 505 c 0
 147 550 191 596 258 596 c 0
 377 596 350 504 348 493 c 2
 253 45 l 1
 409 45 l 2
 443 45 480 62 492 118 c 2
 580 531 l 1
 643 590 l 2
 655 598 675 604 666 568 c 2
 568 106 l 2
218 456 m 0
 252 456 274 482 280 507 c 0
 285 532 274 558 240 558 c 0
 205 558 182 532 177 507 c 0
 171 482 183 456 218 456 c 0
EndSplineSet
EndChar
StartChar: uni0E1B
Encoding: 187 3611 155
Width: 665
Flags: W
HStem: 0 45<120 456> 418 38<206 224> 558 38<240 258>
AnchorPoint: "AboveBase" 522.66 645.12 basechar 0
Fore
584 106 m 2
 575 64 538 0 456 0 c 2
 111 0 l 1
 121 45 l 1
 176 45 l 1
 256 425 l 1
 247 421 226 418 213 418 c 0
 151 418 128 461 137 505 c 0
 147 550 191 596 258 596 c 0
 377 596 350 504 348 493 c 2
 253 45 l 1
 425 45 l 2
 459 45 496 64 507 118 c 2
 676 911 l 1
 739 969 l 2
 752 977 771 983 763 948 c 2
 584 106 l 2
218 456 m 0
 252 456 274 482 280 507 c 0
 285 532 274 558 240 558 c 0
 205 558 182 532 177 507 c 0
 171 482 183 456 218 456 c 0
EndSplineSet
EndChar
StartChar: uni0E1C
Encoding: 188 3612 156
Width: 649
Flags: W
HStem: 0 21G<92 172 467 545> 428 38<306 319>
Fore
545 0 m 1
 467 0 l 1
 472 22 l 2
 476 43 469 51 467 58 c 1
 386 316 l 1
 195 58 l 1
 191 51 182 45 177 22 c 2
 172 0 l 1
 92 0 l 1
 197 494 l 2
 207 539 248 602 345 598 c 0
 400 596 417 555 408 514 c 0
 399 471 362 428 308 428 c 0
 295 428 281 431 265 437 c 1
 196 115 l 1
 404 401 l 1
 492 118 l 1
 580 530 l 1
 643 588 l 2
 655 596 675 602 666 567 c 2
 545 0 l 1
317 466 m 0
 349 466 371 490 376 514 c 0
 382 539 370 563 338 563 c 0
 304 563 283 539 277 514 c 0
 272 490 283 466 317 466 c 0
EndSplineSet
EndChar
StartChar: uni0E1D
Encoding: 189 3613 157
Width: 665
Flags: W
HStem: 0 21G<92 172 482 561> 428 38<306 319>
AnchorPoint: "AboveBase" 522.66 645.12 basechar 0
Fore
561 0 m 1
 482 0 l 1
 486 17 l 2
 490 38 483 46 481 54 c 1
 396 326 l 1
 194 54 l 1
 190 46 181 40 176 17 c 2
 172 0 l 1
 92 0 l 1
 197 494 l 2
 207 539 248 602 345 598 c 0
 400 596 417 555 408 514 c 0
 399 471 362 428 308 428 c 0
 295 428 281 431 265 437 c 1
 197 117 l 1
 414 407 l 1
 507 118 l 1
 674 902 l 1
 737 960 l 2
 748 968 768 974 760 935 c 2
 561 0 l 1
317 466 m 0
 349 466 371 490 376 514 c 0
 382 539 370 563 338 563 c 0
 304 563 283 539 277 514 c 0
 272 490 283 466 317 466 c 0
EndSplineSet
EndChar
StartChar: uni0E1E
Encoding: 190 3614 158
Width: 723
Flags: W
HStem: 0 21G<167 249 536 619> 420 39<213 223> 560 38<242 259>
Fore
619 0 m 1
 536 0 l 1
 497 490 l 1
 249 0 l 1
 167 0 l 1
 258 428 l 1
 250 423 227 420 215 420 c 0
 155 420 135 464 144 508 c 0
 154 553 194 598 259 598 c 0
 379 598 352 506 349 496 c 2
 268 115 l 1
 504 588 l 1
 532 588 l 1
 566 115 l 1
 656 535 l 1
 719 593 l 2
 732 601 750 607 740 571 c 2
 619 0 l 1
221 459 m 0
 254 459 276 484 281 510 c 0
 287 535 275 560 242 560 c 0
 207 560 185 535 179 510 c 0
 174 484 186 459 221 459 c 0
EndSplineSet
EndChar
StartChar: uni0E1F
Encoding: 191 3615 159
Width: 723
Flags: W
HStem: 0 21G<167 249 536 619> 420 39<213 223> 560 38<242 259>
AnchorPoint: "AboveBase" 581.028 645.12 basechar 0
Fore
619 0 m 1
 536 0 l 1
 497 490 l 1
 249 0 l 1
 167 0 l 1
 258 428 l 1
 250 423 227 420 215 420 c 0
 155 420 135 464 144 508 c 0
 154 553 194 598 259 598 c 0
 379 598 352 506 349 496 c 2
 268 111 l 1
 505 591 l 1
 533 591 l 1
 566 111 l 1
 734 902 l 1
 797 962 l 2
 805 969 826 975 818 937 c 2
 619 0 l 1
221 459 m 0
 254 459 276 484 281 510 c 0
 287 535 275 560 242 560 c 0
 207 560 185 535 179 510 c 0
 174 484 186 459 221 459 c 0
EndSplineSet
EndChar
StartChar: uni0E20
Encoding: 192 3616 160
Width: 619
Flags: W
HStem: -5 40<120 132> 124 42<143 160> 392 44<205 244 205 370> 549 50<403 426>
Fore
516 0 m 9
 438 0 l 1
 525 410 l 2
 546 506 483 549 406 549 c 0
 330 550 239 508 205 436 c 1
 380 436 l 1
 370 392 l 1
 333 392 l 2
 287 392 279 343 278 341 c 2
 224 83 l 2
 212 28 168 -5 122 -5 c 0
 66 -5 46 38 55 81 c 0
 64 124 101 166 158 166 c 0
 164 166 l 1
 200 332 l 2
 210 379 244 392 244 392 c 1
 143 392 l 1
 173 528 309 599 426 599 c 0
 533 599 624 540 604 416 c 1
 604 416 524 37 516 0 c 9
130 35 m 0
 160 35 180 57 185 80 c 0
 190 102 179 124 149 124 c 0
 118 124 98 102 93 80 c 0
 88 57 99 35 130 35 c 0
EndSplineSet
EndChar
StartChar: uni0E21
Encoding: 193 3617 161
Width: 646
Flags: W
HStem: -5 214<159 210> 420 39<208 221> 560 38<240 258>
Fore
542 0 m 9
 462 0 l 17
 414 127 275 147 275 147 c 1
 271 124 262 86 262 86 c 2
 251 34 223 -5 159 -5 c 0
 89 -5 66 46 77 98 c 0
 89 153 139 210 210 209 c 1
 257 428 l 1
 247 422 226 420 213 420 c 0
 154 420 134 464 143 508 c 0
 153 553 193 598 258 598 c 0
 377 598 351 506 348 496 c 2
 286 203 l 1
 286 203 413 174 482 80 c 1
 578 530 l 1
 641 590 l 2
 651 596 672 604 663 567 c 2
 663 567 552 45 542 0 c 9
219 459 m 0
 253 459 275 484 280 510 c 0
 286 535 274 560 240 560 c 0
 205 560 183 535 177 510 c 0
 172 484 184 459 219 459 c 0
123 99 m 0
 109 35 173 31 180 68 c 2
 199 157 l 1
 156 163 130 131 123 99 c 0
EndSplineSet
EndChar
StartChar: uni0E22
Encoding: 194 3618 162
Width: 580
Flags: W
HStem: -8 54<280 308> 309 41<297 333> 422 39<300 314> 562 36<322 343>
Fore
509 154 m 2
 487 52 397 -8 282 -8 c 0
 168 -8 97 52 120 158 c 2
 134 226 l 2
 146 283 193 313 229 324 c 1
 196 327 171 358 169 379 c 0
 162 422 171 470 194 510 c 0
 229 567 270 598 339 598 c 0
 396 598 416 555 407 511 c 0
 397 467 359 423 302 422 c 0
 265 422 253 436 253 436 c 1
 241 389 260 350 311 350 c 2
 340 350 l 1
 332 309 l 1
 304 309 l 2
 261 309 223 276 213 232 c 2
 196 152 l 2
 182 86 224 46 296 46 c 0
 371 46 417 83 430 146 c 2
 430 146 514 542 512 531 c 1
 573 593 l 2
 584 601 607 607 597 568 c 2
 509 154 l 2
310 461 m 0
 344 461 367 486 373 512 c 0
 378 537 365 562 331 562 c 0
 297 562 275 537 270 512 c 0
 264 486 276 461 310 461 c 0
EndSplineSet
EndChar
StartChar: uni0E23
Encoding: 195 3619 163
Width: 462
Flags: W
HStem: -3 38<227 239> 138 37<253 265> 534 64<273 310>
Fore
544 580 m 0
 493 472 397 505 395 506 c 0
 341 524 303 534 273 534 c 0
 232 534 207 516 181 476 c 1
 384 420 l 2
 398 417 430 403 423 371 c 2
 365 101 l 2
 363 89 352 -3 229 -3 c 0
 165 -3 145 41 154 85 c 0
 164 130 204 175 263 175 c 0
 275 175 292 174 302 163 c 1
 341 348 l 2
 347 368 349 385 324 391 c 2
 126 446 l 1
 143 480 207 598 310 598 c 0
 362 598 419 568 469 568 c 0
 492 568 513 574 532 592 c 0
 541 600 552 598 544 580 c 0
233 35 m 0
 267 35 289 61 294 86 c 0
 300 112 289 138 255 138 c 0
 221 138 198 112 192 86 c 0
 187 61 199 35 233 35 c 0
EndSplineSet
KernsSLIFO: 180 46 1 0 183 46 1 0 182 46 1 0 181 46 1 0
EndChar
StartChar: uni0E24
Encoding: 196 3620 164
Width: 597
Flags: W
HStem: 124 41<233 247> 392 44<188 347> 549 50<383 408>
Fore
458 -178 m 1
 395 -237 l 2
 383 -244 363 -250 372 -215 c 2
 505 410 l 2
 526 507 463 550 386 549 c 0
 311 549 224 508 188 436 c 1
 357 436 l 1
 347 392 l 1
 336 392 298 392 298 392 c 2
 253 392 243 335 243 333 c 2
 206 158 l 1
 222 163 235 165 247 165 c 0
 301 165 320 123 311 81 c 0
 303 40 267 -2 208 -5 c 0
 110 -9 107 72 116 112 c 2
 161 324 l 2
 171 373 209 392 209 392 c 1
 126 392 l 1
 159 530 293 599 408 599 c 0
 517 599 610 536 583 410 c 2
 458 -178 l 1
216 35 m 0
 247 35 268 57 273 80 c 0
 278 102 266 124 235 124 c 0
 205 124 186 102 181 80 c 0
 176 57 186 35 216 35 c 0
EndSplineSet
EndChar
StartChar: uni0E25
Encoding: 197 3621 165
Width: 579
Flags: W
HStem: 0 21G<399 476> 129 36<223 239> 401 49<351 370> 539 59<367 394>
Fore
476 0 m 1
 399 0 l 1
 460 289 l 2
 474 353 431 401 363 401 c 0
 291 401 237 347 224 289 c 2
 197 158 l 1
 213 163 227 165 239 165 c 0
 293 165 312 124 303 82 c 0
 295 40 258 -2 200 -5 c 0
 112 -8 98 66 107 108 c 2
 146 293 l 2
 163 372 250 450 353 450 c 0
 446 450 485 395 485 395 c 1
 521 521 422 539 368 539 c 0
 290 539 210 505 154 444 c 1
 131 467 l 1
 212 561 311 599 394 598 c 0
 505 598 589 530 568 433 c 2
 476 0 l 1
204 32 m 0
 237 32 258 56 263 80 c 0
 268 105 257 129 224 129 c 0
 191 129 170 105 165 80 c 0
 160 56 171 32 204 32 c 0
EndSplineSet
EndChar
StartChar: uni0E26
Encoding: 198 3622 166
Width: 611
Flags: W
HStem: -5 40<97 109> 124 42<121 137> 392 44<201 361> 549 50<397 420>
Fore
472 -178 m 1
 409 -237 l 2
 397 -244 379 -250 386 -215 c 2
 519 410 l 2
 540 508 475 550 398 549 c 0
 322 549 234 507 201 436 c 1
 371 436 l 1
 361 392 l 1
 313 392 l 2
 266 392 256 337 255 335 c 2
 202 83 l 2
 190 28 146 -5 99 -5 c 0
 40 -5 19 38 28 81 c 0
 37 124 75 166 135 166 c 0
 141 166 l 1
 175 326 l 2
 186 375 223 392 223 392 c 1
 138 392 l 1
 170 529 304 598 420 599 c 0
 530 599 624 537 597 410 c 2
 472 -178 l 1
107 35 m 0
 137 35 157 57 162 80 c 0
 167 102 156 124 126 124 c 0
 96 124 77 102 72 80 c 0
 67 57 77 35 107 35 c 0
EndSplineSet
EndChar
StartChar: uni0E27
Encoding: 199 3623 167
Width: 505
Flags: W
HStem: -5 36<275 297> 131 35<308 317> 545 53<314 344>
Fore
426 118 m 2
 410 41 369 -5 275 -5 c 0
 229 -5 202 32 210 77 c 0
 218 124 258 164 311 166 c 0
 333 166 342 163 356 155 c 1
 416 438 l 2
 430 502 380 545 314 545 c 0
 227 545 168 484 154 470 c 1
 120 479 l 1
 130 502 208 598 344 598 c 0
 439 598 514 531 494 438 c 2
 426 118 l 2
287 31 m 0
 321 31 342 56 347 81 c 0
 353 106 342 131 308 131 c 0
 275 131 253 106 247 81 c 0
 242 56 254 31 287 31 c 0
EndSplineSet
EndChar
StartChar: uni0E28
Encoding: 200 3624 168
Width: 589
Flags: W
HStem: 0 21G<101 180 412 488> 273 36<308 323> 407 37<340 348> 553 46<356 390>
Fore
321 309 m 0
 321 309 l 0
 355 309 377 334 382 358 c 0
 387 382 376 407 342 407 c 0
 309 407 287 382 282 358 c 0
 277 334 288 309 321 309 c 0
499 473 m 0
 499 473 l 0
 487 535 431 553 364 553 c 0
 267 553 183 479 169 413 c 0
 159 369 166 335 192 321 c 1
 215 376 263 444 346 444 c 0
 377 444 398 432 407 415 c 1
 437 427 468 447 499 473 c 0
577 482 m 1
 582 461 580 433 573 401 c 2
 488 0 l 1
 412 0 l 1
 497 401 l 2
 499 409 500 415 500 422 c 1
 473 404 445 390 418 378 c 1
 419 330 377 273 308 273 c 0
 270 273 254 301 254 301 c 1
 241 280 232 246 229 229 c 2
 180 0 l 1
 101 0 l 1
 149 224 l 2
 158 266 101 310 123 413 c 0
 145 519 256 599 374 599 c 0
 450 599 517 584 553 536 c 1
 573 565 589 601 597 641 c 1
 597 641 672 642 672 641 c 0
 660 582 623 528 577 482 c 1
EndSplineSet
EndChar
StartChar: uni0E29
Encoding: 201 3625 169
Width: 665
Flags: W
HStem: 0 45<120 473> 346 41<346 360> 422 37<212 224> 560 38<241 258>
Fore
222 459 m 0
 256 459 278 484 283 510 c 0
 289 535 277 560 243 560 c 0
 209 560 186 535 180 510 c 0
 175 484 188 459 222 459 c 0
334 255 m 0
 334 255 l 0
 364 255 383 278 388 300 c 0
 393 323 384 346 354 346 c 0
 323 346 303 323 298 300 c 0
 293 278 303 255 334 255 c 0
288 212 m 9
 253 45 l 1
 432 45 l 2
 466 45 500 69 506 101 c 2
 536 240 l 1
 491 169 339 129 288 212 c 9
558 344 m 2
 598 530 l 1
 661 590 l 2
 669 596 689 602 682 567 c 2
 583 103 l 2
 572 51 535 0 473 0 c 2
 111 0 l 1
 121 45 l 1
 174 45 l 1
 255 429 l 1
 242 422 227 422 214 422 c 0
 155 422 134 465 143 509 c 0
 153 553 193 598 258 598 c 0
 377 598 351 506 348 496 c 2
 348 496 324 379 323 378 c 1
 335 384 346 387 360 387 c 0
 401 389 436 367 436 329 c 0
 436 257 389 224 353 221 c 1
 440 178 543 273 558 344 c 2
EndSplineSet
EndChar
StartChar: uni0E2A
Encoding: 202 3626 170
Width: 579
Flags: W
HStem: 0 21G<399 476> 129 36<223 239> 538 60<366 392>
Fore
204 32 m 0
 237 32 258 56 263 80 c 0
 268 105 257 129 224 129 c 0
 191 129 170 105 165 80 c 0
 160 56 171 32 204 32 c 0
472 501 m 1
 448 526 409 538 366 538 c 0
 291 538 204 503 154 444 c 1
 131 467 l 1
 216 565 312 598 392 598 c 0
 453 598 504 578 533 551 c 1
 558 576 582 607 597 641 c 1
 672 641 l 1
 652 588 609 545 561 510 c 1
 572 482 573 456 567 429 c 2
 476 0 l 1
 399 0 l 1
 452 250 l 2
 466 315 426 378 358 378 c 0
 286 378 232 324 220 266 c 2
 197 158 l 1
 213 163 227 165 239 165 c 0
 293 165 312 124 303 82 c 0
 295 40 258 -2 200 -5 c 0
 112 -8 98 66 107 108 c 2
 141 270 l 2
 155 335 225 413 320 425 c 1
 367 442 422 467 472 501 c 1
382 424 m 1
 457 409 477 356 477 356 c 1
 479 369 491 422 491 422 c 2
 494 436 494 452 492 465 c 1
 451 445 410 430 382 424 c 1
EndSplineSet
EndChar
StartChar: uni0E2B
Encoding: 203 3627 171
Width: 654
Flags: W
HStem: 0 21G<157 235 472 550> 422 37<202 211> 560 38<230 250>
Fore
550 0 m 1
 472 0 l 1
 553 380 l 2
 559 410 543 426 543 426 c 1
 412 356 295 190 284 172 c 0
 271 147 262 127 258 109 c 2
 235 0 l 1
 157 0 l 1
 250 436 l 1
 236 423 219 422 204 422 c 0
 146 422 124 466 133 509 c 0
 143 554 184 598 250 598 c 0
 368 598 341 506 338 496 c 2
 285 244 l 1
 385 379 527 460 527 460 c 1
 515 477 513 497 517 516 c 0
 526 558 565 598 615 598 c 0
 671 598 688 559 679 519 c 0
 673 488 650 457 619 445 c 1
 619 445 640 422 632 388 c 2
 550 0 l 1
589 476 m 0
 619 476 639 498 644 520 c 0
 648 543 638 565 608 565 c 0
 579 565 559 543 555 520 c 0
 550 498 560 476 589 476 c 0
209 459 m 0
 244 459 266 484 271 510 c 0
 277 535 265 560 230 560 c 0
 196 560 174 535 168 510 c 0
 163 484 175 459 209 459 c 0
EndSplineSet
EndChar
StartChar: uni0E2C
Encoding: 204 3628 172
Width: 715
Flags: W
HStem: 0 21G<158 237 531 611> 422 37<203 214> 475 41<628 638> 560 38<231 251> 607 38<655 667>
Fore
839 659 m 1
 839 659 l 0
 810 536 718 502 718 502 c 1
 611 0 l 1
 531 0 l 1
 465 425 l 1
 237 0 l 1
 158 0 l 1
 251 436 l 1
 237 423 217 422 205 422 c 0
 148 422 126 466 135 510 c 0
 145 554 185 598 251 598 c 0
 370 598 345 506 342 496 c 2
 263 121 l 1
 493 556 l 1
 558 126 l 1
 632 475 l 1
 573 475 552 518 561 561 c 0
 570 603 607 645 665 645 c 0
 758 645 732 562 732 562 c 1
 770 607 772 639 773 659 c 1
 839 659 l 1
638 516 m 0
 668 516 687 539 691 562 c 0
 696 584 687 607 657 607 c 0
 627 607 607 584 602 562 c 0
 598 539 608 516 638 516 c 0
210 459 m 0
 244 459 267 484 272 510 c 0
 278 535 265 560 231 560 c 0
 197 560 176 535 170 510 c 0
 165 484 176 459 210 459 c 0
EndSplineSet
EndChar
StartChar: uni0E2D
Encoding: 205 3629 173
Width: 580
Flags: W
HStem: -8 44<271 290> 272 37<260 275> 550 46<360 384>
Fore
509 146 m 2
 482 18 328 -8 273 -8 c 0
 204 -8 86 15 114 147 c 2
 153 327 l 2
 161 367 207 450 295 445 c 0
 352 442 371 399 362 357 c 0
 353 314 316 272 262 272 c 0
 249 272 235 275 221 280 c 1
 189 132 l 2
 175 68 229 36 288 36 c 0
 347 36 412 67 426 132 c 2
 488 423 l 2
 501 486 463 550 367 550 c 0
 258 550 206 498 170 466 c 1
 145 487 l 1
 187 529 261 596 382 596 c 0
 514 596 589 521 570 431 c 2
 509 146 l 2
266 309 m 0
 300 309 323 334 328 359 c 0
 334 384 321 409 287 409 c 0
 253 409 230 384 224 359 c 0
 219 334 232 309 266 309 c 0
EndSplineSet
EndChar
StartChar: uni0E2E
Encoding: 206 3630 174
Width: 580
Flags: W
HStem: -8 44<270 290> 188 36<236 254> 399 40<284 318> 553 43<360 382>
VStem: 170 47<476 484>
Fore
615 602 m 17
 600 567 583 542 560 516 c 1
 573 495 575 458 569 429 c 2
 509 146 l 2
 482 18 328 -8 273 -8 c 0
 204 -8 86 15 114 147 c 2
 135 243 l 2
 143 283 189 366 277 361 c 0
 334 358 353 315 344 273 c 0
 335 230 298 188 243 188 c 0
 231 188 217 190 202 195 c 1
 189 132 l 2
 175 68 229 36 288 36 c 0
 347 36 412 67 426 132 c 2
 487 421 l 2
 490 432 495 450 493 461 c 1
 436 419 363 399 302 399 c 0
 229 399 172 426 170 476 c 0
 170 544 285 596 373 596 c 0
 456 596 502 565 515 559 c 1
 523 571 530 584 534 602 c 1
 615 602 l 17
475 508 m 1
 462 531 428 553 362 553 c 0
 315 553 216 530 217 481 c 0
 219 455 255 439 304 439 c 0
 359 439 430 460 475 508 c 1
248 224 m 0
 282 224 305 249 310 274 c 0
 316 299 303 324 269 324 c 0
 235 324 212 299 206 274 c 0
 201 249 214 224 248 224 c 0
EndSplineSet
EndChar
StartChar: uni0E2F
Encoding: 207 3631 175
Width: 539
Flags: W
HStem: 0 21G<347 425> 560 38<233 246>
Fore
425 0 m 1
 347 0 l 1
 447 469 l 1
 393 430 329 416 275 416 c 0
 224 416 181 428 165 442 c 0
 141 462 135 489 140 515 c 0
 150 558 191 598 244 598 c 0
 288 598 314 575 317 537 c 0
 320 496 289 466 289 466 c 1
 432 456 469 575 473 595 c 1
 551 595 l 1
 425 0 l 1
220 469 m 0
 250 469 270 492 274 514 c 0
 279 537 269 560 239 560 c 0
 208 560 188 537 183 514 c 0
 179 492 189 469 220 469 c 0
EndSplineSet
EndChar
StartChar: uni0E30
Encoding: 208 3632 176
Width: 460
Flags: W
HStem: 141 33<155 171> 551 33<242 258>
Fore
505 579 m 17
 459 445 344 406 244 418 c 1
 244 418 158 424 159 492 c 0
 159 521 184 584 256 584 c 0
 293 584 318 564 318 527 c 0
 318 487 292 461 292 461 c 1
 372 455 424 499 444 579 c 1
 505 579 l 17
418 169 m 17
 371 35 257 -3 157 8 c 1
 157 8 71 14 71 81 c 0
 72 111 97 174 169 174 c 0
 206 174 231 154 231 117 c 0
 230 77 205 51 205 51 c 1
 285 45 337 89 357 169 c 1
 418 169 l 17
230 468 m 0
 257 468 276 489 280 510 c 0
 285 530 275 551 248 551 c 0
 219 551 201 530 196 510 c 0
 192 489 201 468 230 468 c 0
143 58 m 0
 170 58 189 79 193 100 c 0
 198 120 188 141 161 141 c 0
 132 141 114 120 109 100 c 0
 105 79 114 58 143 58 c 0
EndSplineSet
EndChar
StartChar: uni0E31
Encoding: 209 3633 177
Width: 0
Flags: W
HStem: 676 52<-7 17> 874 41<-86 -76>
AnchorPoint: "AboveMark" 99.7031 967.68 basemark 0
AnchorPoint: "AboveBase" 31.1406 645.12 mark 0
Fore
335 911 m 17
 263 747 115 676 -6 676 c 0
 -72 676 -131 697 -164 737 c 0
 -189 766 -195 797 -189 825 c 0
 -178 875 -131 915 -80 915 c 0
 -80 915 -79 915 -78 915 c 0
 -38 915 -5 895 -3 852 c 0
 1 774 -72 745 -72 745 c 1
 -42 733 -13 728 15 728 c 0
 117 728 206 800 246 911 c 1
 335 911 l 17
-104 782 m 0
 -74 782 -54 805 -49 828 c 0
 -44 851 -54 874 -84 874 c 0
 -116 874 -136 851 -141 828 c 0
 -146 805 -136 782 -104 782 c 0
EndSplineSet
EndChar
StartChar: uni0E32
Encoding: 210 3634 178
Width: 427
Flags: W
HStem: 0 21G<246 326> 555 44<266 288>
Fore
326 0 m 1
 246 0 l 1
 343 456 l 2
 355 512 330 555 269 555 c 0
 201 555 143 513 123 496 c 1
 133 539 l 1
 156 559 210 599 288 599 c 0
 393 599 444 555 424 461 c 2
 326 0 l 1
EndSplineSet
EndChar
StartChar: uni0E33
Encoding: 211 3635 179
Width: 427
Flags: W
HStem: 0 21G<246 326> 555 44<267 288> 682 43<11 24> 826 47<42 54>
Fore
13 682 m 0
 -51 682 -73 730 -63 778 c 0
 -53 825 -10 873 54 873 c 0
 117 873 137 825 127 778 c 0
 117 730 76 682 13 682 c 0
326 0 m 1
 246 0 l 1
 343 456 l 2
 355 512 330 555 269 555 c 0
 201 555 143 513 123 496 c 1
 133 539 l 1
 156 559 210 599 288 599 c 0
 393 599 444 555 424 461 c 2
 326 0 l 1
84 776 m 0
 90 805 72 826 44 826 c 0
 15 826 -12 805 -18 776 c 0
 -24 748 -7 725 22 725 c 0
 50 725 78 748 84 776 c 0
EndSplineSet
Substitution: 0 65534 'amaa' uni0E32
MultipleSubs: 0 65534 'G001' uni0E4D uni0E32
EndChar
StartChar: uni0E34
Encoding: 212 3636 180
Width: 0
Flags: W
AnchorPoint: "AboveMark" 61.3027 967.68 basemark 0
AnchorPoint: "AboveBase" 31.1406 645.12 mark 0
Fore
54 651 m 1
 17 671 -58 713 -157 730 c 0
 -259 748 -324 737 -380 728 c 1
 -332 823 -227 900 -117 892 c 0
 11 883 75 796 54 651 c 1
12 717 m 1
 -6 808 -60 837 -131 843 c 0
 -199 849 -256 820 -293 777 c 1
 -249 782 -201 780 -148 773 c 0
 -61 760 12 717 12 717 c 1
EndSplineSet
EndChar
StartChar: uni0E35
Encoding: 213 3637 181
Width: 0
Flags: W
AnchorPoint: "AboveMark" 61.3027 967.68 basemark 0
AnchorPoint: "AboveBase" 31.1406 645.12 mark 0
Fore
-1 849 m 9
 21 951 l 1
 96 951 l 1
 96 951 54 753 54 751 c 0
 59 722 58 688 54 651 c 1
 17 671 -58 713 -157 730 c 0
 -259 748 -324 737 -380 728 c 1
 -332 823 -227 900 -117 892 c 0
 -69 889 -29 874 -1 849 c 9
12 717 m 1
 -6 808 -60 837 -131 843 c 0
 -199 849 -256 820 -293 777 c 1
 -249 782 -201 780 -148 773 c 0
 -61 760 12 717 12 717 c 1
EndSplineSet
EndChar
StartChar: uni0E36
Encoding: 214 3638 182
Width: 0
Flags: W
HStem: 906 45<44 61>
AnchorPoint: "AboveMark" 62.8389 967.68 basemark 0
AnchorPoint: "AboveBase" 31.1406 645.12 mark 0
Fore
54 651 m 1
 -1 684 -93 722 -169 731 c 1
 -271 748 -337 736 -378 728 c 1
 -336 822 -228 899 -120 894 c 1
 -75 889 -44 874 -44 874 c 1
 -42 892 -16 951 59 951 c 0
 118 951 138 909 129 866 c 0
 121 828 91 790 46 780 c 1
 46 780 66 731 54 651 c 1
31 820 m 0
 60 820 80 842 84 863 c 0
 89 884 79 906 50 906 c 0
 20 906 -0 884 -5 863 c 0
 -9 842 1 820 31 820 c 0
12 717 m 1
 -6 808 -60 837 -131 843 c 0
 -199 849 -256 820 -293 777 c 1
 -249 782 -201 780 -148 773 c 0
 -61 760 12 717 12 717 c 1
EndSplineSet
EndChar
StartChar: uni0E37
Encoding: 215 3639 183
Width: 0
Flags: W
AnchorPoint: "AboveMark" -1.67285 967.68 basemark 0
AnchorPoint: "AboveBase" 31.1406 645.12 mark 0
Fore
55 648 m 1
 -7 684 -81 714 -168 728 c 0
 -254 742 -315 737 -377 725 c 1
 -296 888 -124 876 -124 876 c 1
 -107 951 l 1
 -38 951 l 1
 -55 863 l 1
 -19 852 2 831 2 831 c 1
 28 951 l 1
 96 951 l 1
 54 743 l 1
 54 743 64 714 55 648 c 1
11 714 m 1
 -2 788 -49 823 -134 829 c 0
 -190 834 -252 816 -297 773 c 1
 -253 779 -207 776 -146 768 c 0
 -66 757 11 714 11 714 c 1
EndSplineSet
EndChar
StartChar: uni0E38
Encoding: 216 3640 184
Width: 0
Flags: W
HStem: -220 36<-267 -255>
AnchorPoint: "BelowBase" -119.14 -69.1201 mark 0
Fore
-169 -307 m 1
 -248 -307 l 1
 -228 -214 l 1
 -233 -215 -244 -220 -265 -220 c 0
 -315 -219 -332 -183 -324 -147 c 0
 -316 -110 -284 -73 -233 -69 c 0
 -169 -66 -129 -95 -137 -155 c 1
 -169 -307 l 1
-257 -184 m 0
 -230 -184 -213 -164 -209 -144 c 0
 -204 -124 -213 -104 -240 -104 c 0
 -267 -104 -284 -124 -289 -144 c 0
 -293 -164 -284 -184 -257 -184 c 0
EndSplineSet
EndChar
StartChar: uni0E39
Encoding: 217 3641 185
Width: 0
Flags: W
HStem: -307 34<-282 -263> -206 28<-378 -369> -101 32<-357 -345>
AnchorPoint: "BelowBase" -119.14 -69.1201 mark 0
Fore
-149 -212 m 2
 -160 -264 -202 -307 -263 -307 c 0
 -325 -307 -358 -275 -348 -226 c 2
 -343 -201 l 1
 -347 -203 -354 -206 -376 -206 c 0
 -424 -205 -441 -171 -434 -137 c 0
 -427 -103 -395 -69 -347 -69 c 0
 -287 -69 -272 -106 -282 -157 c 2
 -300 -238 l 2
 -304 -257 -295 -273 -275 -273 c 0
 -253 -273 -238 -261 -234 -238 c 2
 -198 -69 l 1
 -119 -69 l 1
 -149 -212 l 2
-326 -140 m 0
 -321 -117 -334 -101 -354 -101 c 0
 -376 -101 -398 -117 -403 -140 c 0
 -407 -158 -393 -178 -371 -178 c 0
 -351 -178 -330 -158 -326 -140 c 0
EndSplineSet
EndChar
StartChar: uni0E3A
Encoding: 218 3642 186
Width: 0
Flags: W
AnchorPoint: "BelowBase" -116.854 -58.3682 mark 0
Fore
-175 -161 m 0
 -212 -161 -224 -134 -219 -108 c 0
 -213 -82 -190 -55 -153 -55 c 0
 -120 -55 -108 -81 -114 -108 c 0
 -119 -134 -142 -161 -175 -161 c 0
EndSplineSet
EndChar
StartChar: uni25CC
Encoding: 221 9676 188
Width: 649
Flags: W
HStem: 5 36<344 352> 41 39<203 210> 52 39<482 492> 134 36<121 131> 146 37<585 593> 276 37<648 656> 283 36<117 124> 412 37<642 650> 501 38<565 574> 508 37<310 318> 544 37<456 464>
VStem: 102 38<296 304> 627 38<425 433>
Fore
187 453 m 6
307 544 m 6
198 78 m 6
118 169 m 6
479 88 m 6
581 181 m 6
637 447 m 6
562 536 m 6
645 312 m 6
114 318 m 6
453 579 m 6
198 455 m 4,11,12
 207 455 213 448 213 441 c 0,13,14
 213 439 213 438 212 436 c 4,15,16
 210 425 201 416 190 416 c 4,17,18
 181 416 175 424 175 433 c 0,19,20
 175 436 l 4,21,22
 178 445 187 455 198 455 c 4,11,12
318 545 m 4,23,24
 328 545 335 539 335 530 c 0,25,26
 335 527 l 4,27,28
 333 518 321 508 310 508 c 4,29,30
 302 508 296 516 296 524 c 0,31,32
 296 527 l 4,33,34
 298 538 309 545 318 545 c 4,23,24
210 80 m 4,35,36
 219 80 226 72 226 64 c 0,37,38
 226 61 l 4,39,40
 223 51 212 41 203 41 c 4,41,42
 194 41 187 48 187 57 c 0,43,44
 187 58 187 60 187 61 c 4,45,46
 189 71 200 80 210 80 c 4,35,36
131 170 m 4,47,48
 139 170 145 165 145 157 c 0,49,50
 145 156 145 154 144 152 c 4,51,52
 143 141 132 134 121 134 c 4,53,54
 112 134 107 140 107 148 c 0,55,56
 107 149 107 151 108 152 c 4,57,58
 111 163 120 170 131 170 c 4,47,48
492 91 m 4,59,60
 501 91 506 84 506 75 c 0,61,62
 506 73 506 72 505 71 c 4,63,64
 504 61 493 52 482 52 c 4,65,66
 474 52 468 60 468 68 c 0,67,68
 468 71 l 4,69,70
 470 81 482 91 492 91 c 4,59,60
593 183 m 4,71,72
 603 183 608 177 608 168 c 0,73,74
 608 167 608 165 608 164 c 4,75,76
 605 154 596 146 585 146 c 4,77,78
 576 146 571 151 571 159 c 0,79,80
 571 161 571 162 571 164 c 4,81,82
 573 175 582 183 593 183 c 4,71,72
650 449 m 4,83,84
 659 449 665 442 665 433 c 0,85,86
 665 430 l 4,87,88
 662 419 653 412 642 412 c 4,89,90
 633 412 627 417 627 425 c 0,91,92
 627 426 628 428 628 430 c 4,93,94
 630 441 639 449 650 449 c 4,83,84
574 539 m 4,95,96
 584 539 590 532 590 522 c 0,97,98
 590 519 l 4,99,100
 588 510 576 501 565 501 c 4,101,102
 557 501 551 508 551 516 c 0,103,104
 551 519 l 4,105,106
 553 530 565 539 574 539 c 4,95,96
656 313 m 4,107,108
 666 313 673 307 673 298 c 0,109,110
 673 295 l 4,111,112
 670 284 659 276 648 276 c 4,113,114
 640 276 634 282 634 290 c 0,115,116
 634 292 634 293 634 295 c 4,117,118
 636 306 647 313 656 313 c 4,107,108
124 319 m 4,119,120
 134 319 140 313 140 304 c 0,121,122
 140 301 l 4,123,124
 137 292 127 283 117 283 c 4,125,126
 108 283 102 289 102 296 c 0,127,128
 102 298 102 299 103 301 c 4,129,130
 104 312 114 319 124 319 c 4,119,120
352 41 m 4,131,132
 361 41 366 36 366 28 c 0,133,134
 366 27 366 25 366 23 c 4,135,136
 364 12 355 5 344 5 c 4,137,138
 336 5 329 11 329 20 c 0,139,140
 329 23 l 4,141,142
 332 34 343 41 352 41 c 4,131,132
464 581 m 4,143,144
 474 581 479 573 479 565 c 0,145,146
 479 562 l 4,147,148
 476 551 467 544 456 544 c 4,149,150
 448 544 442 549 442 557 c 0,151,152
 442 559 442 561 442 562 c 4,153,154
 444 571 455 581 464 581 c 4,143,144
EndSplineSet
EndChar
StartChar: uni0E3F
Encoding: 223 3647 189
Width: 752
Flags: W
HStem: -106 144<317.34 345> 2 18<39 64.3972> 2 36<320 344> 3 17<36 39> 359 40<331 412> 359 363<322 412> 707 15<185 197>
Fore
703 200 m 0x42
 703 200 l 0
 676 77 563 11 407 3 c 1x12
 381 -106 l 1
 315 -106 l 1x80
 336 2 l 1x20
 36 3 l 1x10
 39 20 l 1
 130 20 152 54 160 88 c 2
 276 637 l 2
 283 670 276 705 185 707 c 1
 188 722 l 1
 221 722 487 723 490 723 c 1
 513 822 l 1
 579 822 l 1
 559 720 l 1
 681 708 764 656 740 541 c 0
 721 450 650 404 562 382 c 1
 561 376 l 1
 650 359 725 304 703 200 c 0x42
632 536 m 0
 649 614 613 659 549 674 c 1
 492 406 l 1
 565 422 617 467 632 536 c 0
421 399 m 1x08
 481 684 l 0
 418 687 391 682 384 650 c 2
 331 399 l 1
 421 399 l 1x08
344 38 m 9x84
 412 359 l 0x88
 403 359 322 359 322 359 c 1
 267 100 l 2
 259 60 266 38 344 38 c 9x84
584 203 m 0
 603 292 549 333 480 349 c 1
 416 45 l 1
 497 58 562 100 584 203 c 0
EndSplineSet
EndChar
StartChar: uni0E40
Encoding: 224 3648 190
Width: 337
Flags: W
HStem: -5 40<197 213> 127 39<225 237>
Fore
199 -5 m 0
 131 -5 108 54 120 109 c 2
 211 535 l 1
 275 593 l 2
 288 601 306 607 298 571 c 2
 212 164 l 1
 212 164 225 166 235 166 c 0
 290 166 310 123 301 80 c 0
 292 37 255 -5 199 -5 c 0
207 35 m 0
 239 35 259 58 264 81 c 0
 269 104 259 127 227 127 c 0
 196 127 176 104 171 81 c 0
 166 58 176 35 207 35 c 0
EndSplineSet
EndChar
StartChar: uni0E41
Encoding: 225 3649 191
Width: 609
Flags: W
HStem: -5 40<197 213 467 483> 127 39<225 237 495 507>
Fore
469 -5 m 0
 401 -5 378 54 390 109 c 2
 481 535 l 1
 545 593 l 2
 558 601 576 607 568 571 c 2
 482 164 l 1
 482 164 496 166 505 166 c 0
 561 166 580 123 571 80 c 0
 562 37 526 -5 469 -5 c 0
199 -5 m 0
 131 -5 108 54 120 109 c 2
 211 535 l 1
 275 593 l 2
 288 601 306 607 298 571 c 2
 212 164 l 1
 212 164 225 166 235 166 c 0
 290 166 310 123 301 80 c 0
 292 37 255 -5 199 -5 c 0
477 35 m 0
 477 35 l 0
 509 35 529 58 534 81 c 0
 539 104 529 127 497 127 c 0
 467 127 446 104 441 81 c 0
 436 58 447 35 477 35 c 0
207 35 m 0
 239 35 259 58 264 81 c 0
 269 104 259 127 227 127 c 0
 196 127 176 104 171 81 c 0
 166 58 176 35 207 35 c 0
EndSplineSet
EndChar
StartChar: uni0E42
Encoding: 226 3650 192
Width: 331
Flags: W
HStem: -5 40<223 239> 127 39<251 263>
Fore
526 909 m 0
 458 777 367 845 366 845 c 0
 310 879 274 892 247 892 c 0
 220 892 203 878 186 860 c 1
 331 770 l 2
 346 760 370 743 360 694 c 2
 247 164 l 1
 253 167 258 166 261 166 c 0
 316 166 334 123 325 80 c 0
 316 38 280 -5 225 -5 c 0
 153 -5 145 51 157 106 c 2
 283 700 l 2
 287 719 291 739 259 757 c 2
 126 836 l 1
 143 862 205 955 284 958 c 0
 351 962 462 865 516 919 c 0
 526 926 534 923 526 909 c 0
233 35 m 0
 263 35 283 58 288 81 c 0
 293 104 283 127 253 127 c 0
 222 127 202 104 197 81 c 0
 192 58 202 35 233 35 c 0
EndSplineSet
EndChar
StartChar: uni0E43
Encoding: 227 3651 193
Width: 362
Flags: W
HStem: -5 40<243 258> 127 37<268 283> 679 40<181 193> 793 36<207 218> 908 50<271 292>
Fore
245 -5 m 0
 176 -5 166 51 178 106 c 2
 327 811 l 2
 338 862 320 906 271 908 c 0
 213 908 173 868 159 803 c 1
 178 826 207 829 216 829 c 0
 266 829 284 792 276 755 c 0
 268 717 234 679 182 679 c 0
 107 679 106 768 122 828 c 1
 145 900 206 958 292 958 c 0
 385 958 423 892 405 808 c 2
 268 164 l 1
 270 164 276 166 281 166 c 0
 336 166 355 122 346 79 c 0
 337 37 301 -5 245 -5 c 0
209 793 m 0
 184 793 167 777 163 756 c 0
 159 740 165 719 191 719 c 0
 217 719 233 738 237 756 c 0
 241 775 233 793 209 793 c 0
253 35 m 0
 285 35 305 58 310 81 c 0
 315 104 305 127 273 127 c 0
 241 127 221 104 216 81 c 0
 211 58 221 35 253 35 c 0
EndSplineSet
EndChar
StartChar: uni0E44
Encoding: 228 3652 194
Width: 403
Flags: W
HStem: -5 40<289 305> 127 37<313 329> 654 37<210 225> 919 39<370 399>
Fore
291 -5 m 0
 222 -5 214 51 226 106 c 2
 391 883 l 2
 395 905 387 919 370 919 c 0
 349 919 335 900 332 883 c 2
 299 730 l 2
 290 688 262 654 210 654 c 0
 159 653 138 690 147 734 c 2
 184 909 l 2
 186 919 189 929 178 945 c 0
 168 957 163 958 151 971 c 1
 143 983 159 992 171 983 c 1
 233 962 l 1
 253 949 249 942 247 931 c 2
 202 720 l 2
 198 703 207 691 225 691 c 0
 241 691 257 702 261 720 c 2
 292 866 l 2
 303 917 338 958 399 958 c 0
 459 958 472 914 463 871 c 2
 313 164 l 1
 318 164 324 166 327 166 c 0
 382 166 402 122 393 79 c 0
 384 37 347 -5 291 -5 c 0
299 35 m 0
 331 35 352 58 357 81 c 0
 362 104 351 127 319 127 c 0
 288 127 268 104 263 81 c 0
 258 58 268 35 299 35 c 0
EndSplineSet
EndChar
StartChar: uni0E45
Encoding: 229 3653 195
Width: 304
Flags: W
HStem: 555 44<144 165>
Fore
165 -180 m 1
 100 -238 l 2
 88 -246 69 -252 77 -217 c 2
 220 456 l 2
 232 512 207 555 146 555 c 0
 78 555 20 513 1 496 c 1
 11 539 l 1
 33 559 87 599 165 599 c 0
 270 599 321 555 301 461 c 2
 165 -180 l 1
EndSplineSet
EndChar
StartChar: uni0E46
Encoding: 230 3654 196
Width: 703
Flags: W
HStem: 263 32<393 408> 382 34<418 429>
Fore
555 -177 m 1
 494 -235 l 2
 481 -243 463 -249 471 -214 c 2
 615 464 l 2
 623 504 612 518 590 524 c 1
 503 455 l 1
 491 468 444 524 444 524 c 1
 393 499 367 429 368 399 c 1
 368 399 398 416 427 416 c 0
 478 415 496 376 488 339 c 0
 480 301 446 263 395 263 c 0
 308 263 303 350 319 424 c 0
 331 479 383 565 460 598 c 1
 518 528 l 1
 606 599 l 1
 698 598 705 527 692 464 c 2
 555 -177 l 1
402 295 m 0
 431 295 450 317 455 338 c 0
 460 360 449 382 420 382 c 0
 391 382 373 360 368 338 c 0
 363 317 373 295 402 295 c 0
EndSplineSet
EndChar
StartChar: uni0E47
Encoding: 231 3655 197
Width: 0
Flags: W
HStem: 668 94<-254 -253.738> 757 57<-194 -182> 795 39<-6 5>
AnchorPoint: "AboveMark" -153.18 645.12 mark 0
AnchorPoint: "AboveBase" 6.56445 645.12 mark 0
Fore
144 1028 m 17x80
 120 919 37 868 -110 892 c 0
 -181 905 -224 903 -251 837 c 0
 -264 806 -261 773 -254 762 c 1x80
 -254 762 -242 814 -182 814 c 0x40
 -120 814 -115 753 -89 739 c 1
 -89 739 -91 748 -89 756 c 0
 -78 808 -34 834 5 834 c 0
 45 834 80 807 68 753 c 0
 56 696 5 667 -30 668 c 0xa0
 -147 671 -134 759 -191 757 c 0x40
 -238 756 -250 685 -239 668 c 1
 -279 668 l 1
 -317 705 -338 785 -300 865 c 0
 -278 911 -231 963 -86 943 c 0
 4 931 52 935 65 1028 c 1
 144 1028 l 17x80
29 753 m 0
 35 781 17 795 -4 795 c 0x20
 -25 795 -49 781 -55 753 c 0
 -61 726 -43 712 -22 712 c 0
 -1 712 23 726 29 753 c 0
EndSplineSet
EndChar
StartChar: uni0E48
Encoding: 232 3656 198
Width: 0
Flags: W
AnchorPoint: "AboveMark" 65.9111 967.68 mark 0
Fore
157 1210 m 1
 102 1009 l 1
 48 1009 l 1
 79 1210 l 1
 157 1210 l 1
EndSplineSet
Substitution: 0 65534 'loww' uni0E48.low
MultipleSubs: 0 65534 'amtn' uni0E4D uni0E48
EndChar
StartChar: uni0E49
Encoding: 233 3657 199
Width: 0
Flags: W
HStem: 1063 37<26 39> 1184 34<47 64>
AnchorPoint: "AboveMark" 150.391 967.68 mark 0
Fore
392 1213 m 17
 333 1040 137 951 -35 978 c 1
 -29 1008 l 1
 -18 1011 24 1032 46 1066 c 1
 46 1066 l 1
 46 1066 39 1063 29 1063 c 0
 -24 1063 -43 1102 -35 1140 c 0
 -26 1179 9 1218 62 1218 c 0
 138 1218 126 1143 126 1143 c 1
 109 1061 54 1021 54 1021 c 1
 49 1017 l 1
 144 1025 280 1087 312 1213 c 1
 392 1213 l 17
37 1100 m 0
 65 1100 83 1121 88 1142 c 0
 92 1163 83 1184 55 1184 c 0
 25 1184 5 1163 1 1142 c 0
 -4 1121 7 1100 37 1100 c 0
EndSplineSet
Substitution: 0 65534 'loww' uni0E49.low
MultipleSubs: 0 65534 'amtn' uni0E4D uni0E49
EndChar
StartChar: uni0E4A
Encoding: 234 3658 200
Width: 0
Flags: W
HStem: 1172 54<68 80>
AnchorPoint: "AboveMark" 98.167 967.68 mark 0
Fore
382 1229 m 17
 361 1091 266 1009 142 992 c 1
 147 1017 l 1
 209 1051 226 1158 178 1172 c 1
 114 1134 l 1
 68 1172 l 1
 31 1172 -6 1129 -8 1091 c 1
 -8 1091 9 1123 58 1123 c 0
 96 1123 117 1092 110 1060 c 0
 102 1020 72 989 29 989 c 0
 -34 989 -61 1043 -46 1115 c 0
 -35 1166 28 1226 80 1226 c 1
 125 1180 l 1
 188 1224 l 1
 297 1195 256 1094 225 1051 c 1
 289 1089 320 1157 318 1229 c 1
 382 1229 l 17
78 1055 m 0
 89 1106 14 1106 3 1055 c 0
 -7 1006 68 1006 78 1055 c 0
EndSplineSet
Substitution: 0 65534 'loww' uni0E4A.low
MultipleSubs: 0 65534 'amtn' uni0E4D uni0E4A
EndChar
StartChar: uni0E4B
Encoding: 235 3659 201
Width: 0
Flags: W
HStem: 1080 58<-39 56 130 221>
AnchorPoint: "AboveMark" 59.7666 967.68 mark 0
Fore
221 1081 m 1
 116 1080 l 1
 96 992 l 1
 39 992 l 1
 56 1080 l 1
 -51 1081 l 1
 -39 1138 l 1
 67 1140 l 1
 84 1229 l 1
 150 1229 l 1
 130 1140 l 1
 233 1138 l 1
 221 1081 l 1
EndSplineSet
Substitution: 0 65534 'loww' uni0E4B.low
MultipleSubs: 0 65534 'amtn' uni0E4D uni0E4B
EndChar
StartChar: uni0E4C
Encoding: 236 3660 202
Width: 0
Flags: W
HStem: 902 29<21 30>
AnchorPoint: "AboveMark" 18.8662 890.88 mark 0
Fore
289 1143 m 17
 244 1064 145 1048 86 1038 c 1
 110 1026 118 1001 112 976 c 0
 105 939 71 902 23 902 c 0
 -26 902 -49 932 -40 975 c 0
 -27 1035 29 1069 103 1081 c 0
 130 1086 220 1118 234 1172 c 1
 289 1143 l 17
28 931 m 0
 56 931 74 952 79 972 c 0
 83 993 74 1014 46 1014 c 0
 18 1014 -1 993 -5 972 c 0
 -10 952 -0 931 28 931 c 0
EndSplineSet
Substitution: 0 65534 'loww' uni0E4C.low
MultipleSubs: 0 65534 'amtn' uni0E4D uni0E4C
EndChar
StartChar: uni0E4D
Encoding: 237 3661 203
Width: 0
Flags: HW
HStem: 668 43<-31 32.5> 813 46<10 73.5>
AnchorPoint: "AboveMark" 64.375 967.68 basemark 0
AnchorPoint: "AboveBase" 31.1406 645.12 mark 0
Fore
1 668 m 0
 -63 668 -85 716 -75 764 c 0
 -65 811 -22 859 42 859 c 0
 105 859 126 811 116 764 c 0
 106 716 64 668 1 668 c 0
71 762 m 0
 77 791 59 813 32 813 c 0
 3 813 -24 791 -30 762 c 0
 -36 734 -19 711 10 711 c 0
 37 711 65 734 71 762 c 0
EndSplineSet
Substitution: 0 65534 'high' uni0E4D.high
EndChar
StartChar: uni0E4E
Encoding: 238 3662 204
Width: 0
Flags: W
AnchorPoint: "AboveBase" 31.1406 645.12 mark 0
Fore
275 865 m 2
 201 923 142 862 153 816 c 1
 153 816 156 805 152 800 c 0
 141 788 104 759 90 762 c 0
 87 762 83 765 83 765 c 1
 33 831 -63 765 -30 696 c 1
 -30 696 -23 685 -30 680 c 0
 -41 674 -73 654 -83 651 c 0
 -89 650 -93 657 -93 657 c 1
 -161 762 15 903 105 806 c 1
 107 808 l 1
 82 908 233 980 309 900 c 1
 309 900 312 897 310 892 c 0
 304 882 291 862 278 863 c 0
 277 863 275 865 275 865 c 2
EndSplineSet
EndChar
StartChar: uni0E4F
Encoding: 239 3663 205
Width: 737
Flags: W
HStem: -2 54<363 384> 164 43<402 415> 382 47<446 462> 539 55<478 501>
Fore
776 296 m 0
 734 101 530 -2 369 -2 c 0
 203 -2 44 101 86 296 c 0
 128 492 329 594 495 594 c 0
 656 594 818 492 776 296 c 0
674 296 m 0
 702 430 617 539 484 539 c 0
 347 539 215 430 187 296 c 0
 159 163 243 52 380 52 c 0
 513 52 646 163 674 296 c 0
565 296 m 0
 548 218 474 164 404 164 c 0
 328 164 279 218 296 296 c 0
 313 376 384 429 460 429 c 0
 530 429 582 376 565 296 c 0
495 296 m 0
 504 341 494 382 450 382 c 0
 405 382 378 341 369 296 c 0
 360 252 368 207 413 207 c 0
 457 207 486 252 495 296 c 0
EndSplineSet
EndChar
StartChar: uni0E50
Encoding: 240 3664 206
Width: 645
Flags: W
HStem: -8 45<319 337> 430 45<399 433>
Fore
637 232 m 0
 608 92 466 -8 321 -8 c 0
 170 -8 71 89 102 233 c 0
 131 373 273 475 424 475 c 0
 569 475 667 373 637 232 c 0
558 233 m 0
 579 336 523 430 414 430 c 0
 301 430 204 341 181 232 c 0
 159 126 223 37 331 37 c 0
 438 37 536 132 558 233 c 0
EndSplineSet
EndChar
StartChar: uni0E51
Encoding: 241 3665 207
Width: 645
Flags: W
HStem: 95 46<321 336> 224 45<350 363> 430 45<393 429>
Fore
643 232 m 0
 616 104 519 0 393 -29 c 1
 363 -14 l 1
 502 32 546 146 565 233 c 0
 590 353 516 430 410 430 c 0
 305 430 206 352 180 232 c 0
 133 8 336 0 376 115 c 1
 376 115 361 95 321 95 c 0
 269 95 246 137 255 181 c 0
 266 230 309 269 363 269 c 0
 433 269 455 214 442 152 c 0
 394 -74 37 -65 100 232 c 0
 133 386 278 475 420 475 c 0
 560 475 676 384 643 232 c 0
385 183 m 0
 391 210 373 224 352 224 c 0
 332 224 308 210 302 183 c 0
 296 155 314 141 334 141 c 0
 355 141 379 155 385 183 c 0
EndSplineSet
EndChar
StartChar: uni0E52
Encoding: 242 3666 208
Width: 645
Flags: W
HStem: 0 45<195 488> 83 43<306 317> 209 44<331 344>
Fore
650 232 m 0
 639 180 632 146 615 104 c 0
 592 46 570 0 472 0 c 2
 194 0 l 2
 92 0 59 54 75 126 c 2
 165 551 l 2
 185 644 176 664 176 664 c 1
 174 703 202 696 214 687 c 1
 242 641 l 1
 242 641 255 622 240 551 c 2
 149 124 l 2
 139 74 168 45 208 45 c 2
 475 45 l 2
 515 45 531 71 541 95 c 0
 565 166 561 160 577 233 c 0
 595 318 606 402 564 412 c 0
 533 418 489 350 475 312 c 0
 460 275 419 270 422 313 c 0
 424 352 408 418 375 412 c 0
 338 404 299 327 296 235 c 1
 296 235 312 253 344 253 c 0
 457 250 417 83 308 83 c 0
 242 83 223 131 223 184 c 0
 224 353 301 475 383 472 c 0
 444 470 460 401 456 364 c 1
 461 364 l 1
 475 401 522 470 584 472 c 0
 674 473 676 352 650 232 c 0
365 166 m 0
 371 194 353 209 332 209 c 0
 311 209 287 194 281 166 c 0
 276 139 294 126 315 126 c 0
 336 126 360 139 365 166 c 0
EndSplineSet
EndChar
StartChar: uni0E53
Encoding: 243 3667 209
Width: 645
Flags: W
HStem: -8 42<190 202> 118 45<216 229> 412 61<292 311>
Fore
515 412 m 0
 464 406 419 316 403 238 c 0
 399 223 397 214 394 197 c 0
 386 160 337 161 345 197 c 0
 348 212 350 223 353 237 c 0
 375 339 348 412 300 412 c 0
 252 412 172 352 166 137 c 1
 166 137 192 163 229 163 c 0
 279 163 304 123 294 77 c 0
 285 31 242 -8 192 -8 c 0
 133 -8 101 32 93 86 c 0
 74 224 130 473 311 473 c 0
 391 473 403 370 403 370 c 1
 405 370 l 1
 446 450 493 473 542 473 c 0
 705 473 685 253 564 11 c 1
 519 0 l 2
 505 -2 482 -8 497 25 c 0
 615 286 597 421 515 412 c 0
251 75 m 0
 257 104 239 118 218 118 c 0
 197 118 173 104 167 75 c 0
 161 48 179 34 200 34 c 0
 221 34 245 48 251 75 c 0
EndSplineSet
EndChar
StartChar: uni0E54
Encoding: 244 3668 210
Width: 645
Flags: W
HStem: 421 47<462 485.543> 424 48<377 394>
Fore
465 257 m 0x00
 470 284 452 298 431 298 c 0
 410 298 386 284 381 257 c 0
 374 228 392 214 413 214 c 0
 434 214 458 228 465 257 c 0x00
571 46 m 0
 577 46 594 49 600 49 c 0
 621 49 605 29 605 29 c 1
 582 0 l 1
 582 0 493 0 405 3 c 0
 363 5 330 -2 288 -5 c 0
 172 -11 72 78 107 243 c 0
 140 398 270 472 392 472 c 0x40
 430 472 438 468 466 468 c 0
 560 468 647 536 680 690 c 1
 744 670 l 2
 750 668 755 664 751 650 c 0
 714 519 610 421 462 421 c 0x80
 444 421 413 424 394 424 c 0x40
 274 424 207 329 187 243 c 0
 163 134 188 35 322 45 c 0
 336 46 345 48 360 48 c 0
 382 48 406 45 406 45 c 1
 347 69 288 140 308 235 c 0
 324 309 390 349 446 344 c 0
 496 339 520 304 509 252 c 0
 495 186 409 146 365 184 c 1
 357 146 455 37 571 46 c 0
EndSplineSet
EndChar
StartChar: uni0E55
Encoding: 245 3669 211
Width: 645
Flags: W
HStem: 567 44<462 474>
Fore
465 257 m 0
 470 284 452 298 431 298 c 0
 410 298 386 284 381 257 c 0
 374 228 392 214 413 214 c 0
 434 214 458 228 465 257 c 0
510 507 m 0
 510 507 l 0
 518 547 493 567 464 567 c 0
 435 567 400 547 392 507 c 0
 388 488 392 478 396 470 c 1
 418 467 466 467 490 472 c 1
 500 481 507 492 510 507 c 0
678 690 m 1
 744 670 l 2
 750 668 755 664 751 650 c 0
 713 515 603 422 470 421 c 0
 450 421 413 422 394 422 c 0
 274 422 207 329 187 243 c 0
 163 134 188 35 322 45 c 0
 336 46 345 48 360 48 c 0
 382 48 407 43 407 43 c 1
 349 68 288 140 308 235 c 0
 324 309 390 349 446 344 c 0
 496 339 520 304 509 252 c 0
 495 186 409 146 365 184 c 1
 357 146 455 37 571 46 c 0
 577 46 594 49 600 49 c 0
 621 49 605 29 605 29 c 1
 582 0 l 1
 582 0 493 0 405 3 c 0
 363 5 330 -2 288 -5 c 0
 172 -11 72 78 107 243 c 0
 138 390 255 456 348 468 c 1
 345 479 343 492 345 505 c 0
 359 570 414 611 474 611 c 0
 537 611 571 568 557 505 c 0
 555 496 553 490 547 485 c 1
 586 508 653 553 678 690 c 1
EndSplineSet
EndChar
StartChar: uni0E56
Encoding: 246 3670 212
Width: 645
Flags: W
HStem: -8 45<296 335> 104 45<215 227> 233 47<237 252> 430 45<381 415>
Fore
407 475 m 0
 563 475 663 381 631 230 c 0
 602 94 490 -8 308 -8 c 0
 20 -8 89 280 252 280 c 0
 304 280 329 238 318 190 c 0
 309 146 271 104 216 104 c 0
 188 104 180 120 180 120 c 1
 178 72 246 37 318 37 c 0
 429 37 527 118 551 230 c 0
 576 349 504 430 397 430 c 0
 354 430 292 419 244 393 c 0
 231 386 198 393 209 435 c 0
 233 544 225 610 197 674 c 0
 196 680 195 691 208 691 c 2
 285 691 l 1
 296 664 310 564 279 453 c 1
 311 468 364 475 407 475 c 0
276 192 m 0
 282 220 264 233 243 233 c 0
 222 233 198 220 192 192 c 0
 186 164 204 149 225 149 c 0
 246 149 270 164 276 192 c 0
EndSplineSet
EndChar
StartChar: uni0E57
Encoding: 247 3671 213
Width: 645
Flags: W
HStem: -8 42<171 186> 118 45<196 210> 418 54<462 475>
Fore
730 671 m 0
 761 430 628 43 459 -2 c 1
 459 -2 391 -18 407 22 c 1
 407 22 440 97 460 146 c 0
 539 355 502 418 464 418 c 0
 422 418 387 366 370 326 c 0
 364 312 357 287 354 275 c 0
 343 240 304 238 307 275 c 0
 311 290 313 313 313 327 c 0
 314 370 298 418 261 418 c 0
 227 418 152 367 144 138 c 1
 144 138 172 163 210 163 c 0
 259 163 284 124 275 78 c 0
 265 32 224 -8 173 -8 c 0
 107 -8 79 38 75 94 c 0
 62 281 131 465 274 472 c 0
 316 473 351 427 347 362 c 1
 352 362 l 1
 374 427 434 473 475 472 c 0
 604 465 605 284 472 52 c 1
 472 52 510 68 536 109 c 0
 626 249 688 459 651 641 c 1
 697 687 l 2
 711 702 725 710 730 671 c 0
230 75 m 0
 236 104 218 118 197 118 c 0
 177 118 153 104 147 75 c 0
 141 48 159 34 179 34 c 0
 200 34 224 48 230 75 c 0
EndSplineSet
EndChar
StartChar: uni0E58
Encoding: 248 3672 214
Width: 645
Flags: W
HStem: -3 21G<427 490.5> 289 47<558 570> 424 49<372 393>
Fore
649 240 m 0
 625 71 527 -3 454 -3 c 0
 400 -3 304 6 316 152 c 1
 288 134 251 48 234 -6 c 1
 168 -8 55 69 93 243 c 0
 128 398 255 473 376 473 c 0
 405 473 440 468 463 468 c 0
 549 468 636 542 665 690 c 1
 730 668 l 2
 738 667 743 662 739 648 c 0
 700 519 588 421 470 421 c 0
 441 421 417 424 393 424 c 0
 267 424 193 338 172 241 c 0
 155 160 163 95 210 61 c 1
 210 61 255 192 333 220 c 1
 374 214 l 1
 329 2 524 0 562 166 c 1
 482 143 452 200 461 246 c 0
 473 303 520 336 570 336 c 0
 642 336 654 284 649 240 c 0
594 247 m 0
 599 272 583 289 560 289 c 0
 536 289 516 272 511 247 c 0
 505 223 519 206 543 206 c 0
 566 206 588 223 594 247 c 0
EndSplineSet
EndChar
StartChar: uni0E59
Encoding: 249 3673 215
Width: 645
Flags: W
HStem: -9 41<238 249> 115 45<262 275> 346 60<584 593> 346 121<485 591>
Fore
297 74 m 0xc0
 302 97 285 115 264 115 c 0
 241 115 219 97 214 74 c 0
 209 51 224 32 247 32 c 0
 268 32 292 51 297 74 c 0xc0
439 362 m 1
 443 356 456 327 460 318 c 0
 508 190 542 40 542 40 c 2
 556 -8 479 -29 465 20 c 2
 465 20 425 178 390 275 c 0
 347 390 296 439 228 398 c 0
 165 361 154 204 203 124 c 1
 203 124 229 160 275 160 c 0
 324 160 350 123 340 74 c 0
 331 31 285 -9 238 -9 c 0
 198 -9 163 11 138 51 c 0
 66 167 83 369 205 442 c 0
 235 461 337 496 405 407 c 1
 411 439 451 467 485 467 c 0xd0
 560 468 547 406 591 406 c 0
 640 406 684 501 693 687 c 1
 769 664 l 1
 777 664 777 659 775 650 c 0
 743 449 676 346 584 346 c 0xe0
 515 346 521 412 483 413 c 0
 455 415 441 389 439 362 c 1
EndSplineSet
EndChar
StartChar: uni0E5A
Encoding: 250 3674 216
Width: 731
Flags: W
HStem: 0 21G<347 425 539 617> 560 38<233 246>
Fore
425 0 m 1
 347 0 l 1
 447 469 l 1
 396 428 335 414 281 414 c 0
 227 414 182 428 165 442 c 0
 141 462 135 489 140 515 c 0
 150 558 191 598 244 598 c 0
 288 598 314 575 317 537 c 0
 320 496 289 466 289 466 c 1
 432 456 469 575 473 595 c 1
 551 595 l 1
 425 0 l 1
220 469 m 0
 250 469 270 492 274 514 c 0
 279 537 269 560 239 560 c 0
 208 560 188 537 183 514 c 0
 179 492 189 469 220 469 c 0
665 595 m 1
 743 595 l 1
 617 0 l 1
 539 0 l 1
 665 595 l 1
EndSplineSet
EndChar
StartChar: uni0E5B
Encoding: 251 3675 217
Width: 1474
Flags: W
HStem: 210 42<408 426> 280 26<380 393> 401 26<394 407>
Fore
1519 335 m 1
 1417 332 l 0
 1401 332 1392 330 1386 315 c 0
 1364 260 1296 261 1304 323 c 0
 1308 358 1272 347 1273 326 c 0
 1277 263 1230 204 1161 192 c 0
 1154 190 1132 190 1138 203 c 0
 1174 281 1189 376 1147 435 c 1
 1144 435 l 1
 1164 378 1129 218 1025 170 c 1
 1025 170 1002 157 981 157 c 0
 965 157 975 175 975 175 c 1
 1013 278 1022 427 975 473 c 1
 972 473 l 1
 994 390 954 187 800 123 c 1
 800 123 782 117 775 115 c 0
 764 112 754 121 758 131 c 0
 779 187 820 418 749 530 c 1
 746 530 l 1
 766 465 757 366 729 293 c 0
 700 218 596 66 400 49 c 0
 225 34 90 155 129 338 c 0
 173 547 335 637 470 619 c 0
 590 602 642 524 614 392 c 0
 597 309 513 210 414 210 c 0
 338 210 291 263 309 347 c 0
 319 395 361 427 407 427 c 0
 452 427 479 396 469 349 c 0
 458 298 413 280 393 280 c 2
 376 281 l 1
 380 264 390 252 424 252 c 0
 467 252 522 303 541 390 c 0
 557 468 551 559 458 573 c 0
 362 587 253 487 220 336 c 0
 190 192 279 69 409 91 c 0
 619 124 712 409 697 561 c 0
 695 587 725 593 739 587 c 0
 767 574 776 564 783 558 c 0
 887 464 872 312 806 167 c 1
 811 167 l 1
 874 215 933 381 935 504 c 1
 935 504 936 531 963 522 c 0
 979 518 993 508 993 508 c 2
 1109 449 1054 284 1014 198 c 1
 1017 198 l 1
 1074 249 1110 393 1116 464 c 1
 1116 464 1114 485 1140 478 c 0
 1155 473 1162 465 1162 465 c 2
 1249 416 1233 316 1178 224 c 1
 1182 224 l 2
 1207 237 1232 283 1244 329 c 0
 1258 392 1343 392 1334 330 c 0
 1331 300 1354 300 1365 329 c 0
 1378 364 1395 362 1424 361 c 2
 1524 358 l 1
 1519 335 l 1
417 349 m 0
 421 369 424 401 401 401 c 0
 380 401 366 372 361 349 c 0
 356 326 361 306 380 306 c 0
 398 306 412 324 417 349 c 0
EndSplineSet
EndChar
StartChar: uni0E38.low
Encoding: 252 63256 218
Width: 0
Flags: W
HStem: -372 25<-264 -234>
Fore
-188 -492 m 1
 -257 -492 l 1
 -234 -372 l 1
 -237 -372 -247 -378 -263 -378 c 0
 -308 -376 -323 -344 -316 -312 c 0
 -310 -280 -281 -248 -235 -246 c 0
 -179 -243 -148 -264 -152 -323 c 1
 -188 -492 l 1
-257 -347 m 0
 -233 -347 -217 -329 -213 -311 c 0
 -209 -293 -217 -275 -241 -275 c 0
 -264 -275 -280 -293 -284 -311 c 0
 -288 -329 -280 -347 -257 -347 c 0
EndSplineSet
EndChar
StartChar: uni0E39.low
Encoding: 253 63257 219
Width: 0
Flags: W
HStem: -493 29<-287 -271> -367 26<-363 -349> -273 27<-348 -335>
Fore
-170 -409 m 2
 -179 -453 -217 -493 -271 -493 c 0
 -325 -493 -354 -464 -344 -421 c 2
 -332 -361 l 1
 -337 -362 -344 -367 -361 -367 c 0
 -404 -367 -418 -336 -412 -306 c 0
 -407 -276 -378 -246 -335 -246 c 0
 -282 -246 -271 -278 -281 -323 c 2
 -304 -432 l 2
 -307 -449 -299 -464 -280 -464 c 0
 -262 -464 -247 -449 -244 -432 c 2
 -205 -250 l 1
 -136 -250 l 1
 -170 -409 l 2
-317 -307 m 0
 -313 -287 -325 -273 -344 -273 c 0
 -362 -273 -382 -287 -386 -307 c 0
 -390 -324 -376 -341 -358 -341 c 0
 -339 -341 -321 -324 -317 -307 c 0
EndSplineSet
EndChar
StartChar: uni0E3A.low
Encoding: 254 63258 220
Width: 0
Flags: W
Fore
-192 -318 m 0
 -220 -318 -229 -297 -225 -276 c 0
 -220 -254 -202 -233 -174 -233 c 0
 -146 -233 -137 -254 -142 -276 c 0
 -146 -297 -164 -318 -192 -318 c 0
EndSplineSet
EndChar
StartChar: multiply
Encoding: 256 215 221
Width: 619
Flags: W
Fore
549 115 m 1
 493 68 l 1
 360 238 l 1
 153 69 l 1
 116 117 l 1
 322 286 l 1
 189 456 l 1
 245 502 l 1
 380 333 l 1
 585 502 l 1
 621 456 l 1
 417 286 l 1
 549 115 l 1
EndSplineSet
EndChar
StartChar: divide
Encoding: 257 247 222
Width: 546
Flags: W
HStem: 14 104<276 298> 224 57<91 563> 387 106<355 378>
Fore
419 439 m 0
 413 409 385 387 355 387 c 0
 326 387 309 413 314 439 c 0
 320 468 348 493 378 493 c 0
 408 493 426 472 419 439 c 0
563 224 m 1
 80 224 l 1
 92 281 l 1
 575 281 l 1
 563 224 l 1
340 66 m 0
 333 34 306 14 276 14 c 0
 247 14 229 37 235 66 c 0
 241 92 268 118 298 118 c 0
 328 118 346 95 340 66 c 0
EndSplineSet
EndChar
StartChar: registered
Encoding: 258 174 223
Width: 735
Flags: W
HStem: -11 42<359 394> 154 13<255 395> 315 17<390 421> 492 13<329 346 330 480.493> 611 42<486 522>
Fore
762 323 m 0
 722 138 546 -11 368 -11 c 0
 187 -11 74 138 114 323 c 0
 152 504 328 653 509 653 c 0
 687 653 800 504 762 323 c 0
716 323 m 0
 748 476 651 611 500 611 c 0
 347 611 192 476 160 323 c 0
 126 164 224 31 377 31 c 0
 528 31 682 164 716 323 c 0
574 154 m 1
 512 154 l 0
 485 154 479 194 470 230 c 0
 447 306 462 316 390 315 c 1
 365 198 l 2
 360 175 360 169 385 169 c 2
 397 167 l 1
 395 154 l 1
 254 154 l 1
 256 167 l 1
 265 167 l 2
 291 169 299 169 305 197 c 2
 361 462 l 2
 367 488 365 492 337 492 c 2
 328 492 l 1
 330 505 l 1
 488 505 l 2
 566 505 601 481 589 422 c 0
 577 369 530 336 480 329 c 1
 479 323 l 1
 516 315 523 273 532 241 c 0
 543 206 543 169 576 167 c 1
 574 154 l 1
527 415 m 0
 538 467 515 492 464 492 c 2
 443 490 l 2
 425 490 422 467 419 452 c 2
 394 335 l 1
 414 332 l 1
 467 332 513 349 527 415 c 0
EndSplineSet
EndChar
StartChar: fi
Encoding: 259 64257 224
Width: 534
Flags: W
HStem: 0 21G<22 242 291 511> 417 33<116 178 267 391> 658 25<418 451>
Fore
110 417 m 1
 117 450 l 1
 185 450 l 1
 208 530 228 567 265 608 c 0
 313 658 376 683 451 683 c 0
 529 683 573 655 565 614 c 0
 560 592 541 574 520 574 c 0
 503 574 492 584 479 611 c 0
 462 645 446 658 418 658 c 0
 373 658 326 628 304 584 c 0
 295 568 285 538 276 494 c 2
 267 450 l 1
 424 450 l 2
 465 450 494 453 540 460 c 1
 542 457 l 1
 530 404 525 381 520 359 c 2
 465 97 l 2
 451 34 458 21 514 15 c 1
 511 0 l 1
 291 0 l 1
 294 15 l 1
 357 21 366 29 381 97 c 2
 437 360 l 2
 448 415 443 417 348 417 c 2
 262 417 l 1
 192 88 l 2
 180 34 190 19 245 15 c 1
 242 0 l 1
 22 0 l 1
 25 15 l 1
 82 18 95 29 109 94 c 2
 178 417 l 1
 110 417 l 1
EndSplineSet
Ligature: 0 2 'liga' f i
LCarets: 0 65535 '    ' 1 0 
EndChar
StartChar: fl
Encoding: 260 64258 225
Width: 530
Flags: W
HStem: 0 21G<21 245 294 510> 417 33<116 178 269 451> 656 27<378 401>
Fore
110 417 m 1
 117 450 l 1
 187 450 l 1
 209 538 228 577 267 620 c 0
 303 659 354 683 401 683 c 0
 425 683 453 677 479 666 c 0
 494 661 502 658 508 658 c 0
 516 658 531 664 552 672 c 0
 566 678 577 683 586 683 c 1
 590 681 l 1
 462 81 l 2
 451 29 460 19 513 15 c 1
 510 0 l 1
 294 0 l 1
 297 15 l 1
 350 19 369 35 380 83 c 2
 451 417 l 1
 262 417 l 1
 190 79 l 2
 180 34 191 21 248 15 c 1
 245 0 l 1
 21 0 l 1
 24 15 l 1
 54 18 63 19 75 26 c 0
 90 35 102 60 111 105 c 2
 178 417 l 1
 110 417 l 1
458 450 m 1
 488 592 l 1
 481 586 477 584 470 584 c 0
 446 584 435 593 422 621 c 0
 410 647 400 656 378 656 c 0
 334 656 302 606 280 502 c 2
 269 450 l 1
 458 450 l 1
EndSplineSet
Ligature: 0 2 'liga' f l
LCarets: 0 65535 '    ' 1 0 
EndChar
StartChar: ff
Encoding: 261 64256 226
Width: 588
Flags: W
HStem: 0 21G<22 242 293 513> 417 33<116 177 269 448 538 654> 633 29<407 446> 663 20G<654 710>
Fore
110 417 m 1
 117 450 l 1
 184 450 l 1
 201 530 241 583 278 612 c 0
 317 645 355 662 446 662 c 0
 487 662 525 650 543 631 c 1
 579 665 628 683 680 683 c 0
 740 683 780 658 772 621 c 0
 767 598 744 580 721 580 c 0
 703 580 693 590 683 617 c 0
 672 645 659 655 638 655 c 0
 600 655 575 624 562 565 c 2
 538 450 l 1
 661 450 l 1
 654 417 l 1
 533 417 l 1
 463 88 l 2
 451 34 461 19 516 15 c 1
 513 0 l 1
 293 0 l 1
 296 15 l 1
 353 18 365 29 379 94 c 2
 448 417 l 1
 262 417 l 1
 192 88 l 2
 180 34 190 19 245 15 c 1
 242 0 l 1
 22 0 l 1
 25 15 l 1
 82 18 94 29 108 94 c 2
 177 417 l 1
 110 417 l 1
455 450 m 1
 465 501 476 533 491 561 c 1
 480 565 472 576 464 596 c 0
 452 624 431 633 407 633 c 0
 369 633 302 605 286 533 c 1
 269 450 l 1
 455 450 l 1
EndSplineSet
Ligature: 0 2 'liga' f f
LCarets: 0 65535 '    ' 1 0 
EndChar
StartChar: ffi
Encoding: 262 64259 227
Width: 805
Flags: W
HStem: 0 21G<22 242 293 513 562 782> 417 33<116 177 269 449 538 663> 658 25<689 722>
Fore
269 450 m 1
 456 450 l 1
 472 504 486 539 505 567 c 1
 493 570 483 582 474 602 c 0
 462 630 435 642 411 642 c 0
 373 642 302 605 286 533 c 1
 269 450 l 1
192 88 m 2
 180 34 190 19 245 15 c 1
 242 0 l 1
 22 0 l 1
 25 15 l 1
 82 18 94 29 108 94 c 2
 177 417 l 1
 110 417 l 1
 117 450 l 1
 184 450 l 1
 201 530 241 583 278 612 c 0
 317 645 365 668 453 668 c 0
 501 668 539 662 562 631 c 1
 606 666 661 683 722 683 c 0
 800 683 844 655 836 614 c 0
 831 592 812 574 791 574 c 0
 774 574 763 584 750 611 c 0
 733 645 717 658 689 658 c 0
 644 658 597 628 575 584 c 0
 566 568 556 538 547 494 c 2
 538 450 l 1
 695 450 l 2
 736 450 765 453 811 460 c 1
 813 457 l 1
 801 404 796 381 791 359 c 2
 736 97 l 2
 722 34 729 21 785 15 c 1
 782 0 l 1
 562 0 l 1
 565 15 l 1
 628 21 637 29 652 97 c 2
 708 360 l 2
 719 415 714 417 619 417 c 2
 533 417 l 1
 463 88 l 2
 451 34 461 19 516 15 c 1
 513 0 l 1
 293 0 l 1
 296 15 l 1
 353 18 366 29 380 94 c 2
 449 417 l 1
 262 417 l 1
 192 88 l 2
EndSplineSet
Ligature: 0 2 'liga' ff i
Ligature: 0 2 'liga' f f i
LCarets: 0 65535 '    ' 2 0 0 
EndChar
StartChar: ffl
Encoding: 263 64260 228
Width: 799
Flags: W
HStem: 0 21G<22 242 290 514 564 779> 417 33<116 177 269 448 538 720> 656 27<647 671>
Fore
456 450 m 1
 469 499 481 532 495 561 c 1
 485 565 472 576 464 596 c 0
 452 624 431 633 407 633 c 0
 369 633 302 605 286 533 c 1
 269 450 l 1
 456 450 l 1
110 417 m 1
 117 450 l 1
 184 450 l 1
 201 530 241 583 278 612 c 0
 317 645 355 662 446 662 c 0
 487 662 536 655 551 633 c 1
 586 666 627 683 671 683 c 0
 694 683 723 677 748 666 c 0
 764 661 771 658 777 658 c 0
 786 658 800 664 821 672 c 0
 835 678 847 683 855 683 c 1
 860 681 l 1
 732 81 l 2
 721 29 729 19 782 15 c 1
 779 0 l 1
 564 0 l 1
 567 15 l 1
 619 19 638 35 649 83 c 2
 720 417 l 1
 531 417 l 1
 459 79 l 2
 449 34 461 21 517 15 c 1
 514 0 l 1
 290 0 l 1
 293 15 l 1
 323 18 332 19 344 26 c 0
 360 35 372 60 381 105 c 2
 448 417 l 1
 262 417 l 1
 192 88 l 2
 180 34 190 19 245 15 c 1
 242 0 l 1
 22 0 l 1
 25 15 l 1
 82 18 94 29 108 94 c 2
 177 417 l 1
 110 417 l 1
727 450 m 1
 757 592 l 1
 750 586 747 584 739 584 c 0
 716 584 705 593 692 621 c 0
 680 647 669 656 647 656 c 0
 603 656 571 606 549 502 c 2
 538 450 l 1
 727 450 l 1
EndSplineSet
Ligature: 0 2 'liga' ff l
Ligature: 0 2 'liga' f f l
LCarets: 0 65535 '    ' 2 0 0 
EndChar
